0
SECTION
2
HEADER
9
$ANGDIR
70
1
9
$AUNITS
70
0
9
$PROJECTNAME
1
main
9
$TDCREATE
40
2458798.32038575
9
$INSUNITS
70
4
0
ENDSEC
0
SECTION
2
ENTITIES
0
POLYLINE
66
1
8
outline
10
0.0
20
0.0
30
0.0
70
1
0
VERTEX
8
0
10
-8
20
0.635
30
0
0
VERTEX
8
0
10
-7.997584375000001
20
0.57965625
30
0
0
VERTEX
8
0
10
-7.990353125
20
0.524734375
30
0
0
VERTEX
8
0
10
-7.9783625
20
0.47065
30
0
0
VERTEX
8
0
10
-7.961706250000001
20
0.41781875
30
0
0
VERTEX
8
0
10
-7.94050625
20
0.3666375
30
0
0
VERTEX
8
0
10
-7.914925
20
0.3175
30
0
0
VERTEX
8
0
10
-7.885162500000001
20
0.27077812500000004
30
0
0
VERTEX
8
0
10
-7.8514375
20
0.22683125
30
0
0
VERTEX
8
0
10
-7.8140125000000005
20
0.1859875
30
0
0
VERTEX
8
0
10
-7.77316875
20
0.14856250000000001
30
0
0
VERTEX
8
0
10
-7.729221875
20
0.11483750000000001
30
0
0
VERTEX
8
0
10
-7.6825
20
0.085075
30
0
0
VERTEX
8
0
10
-7.6333625000000005
20
0.059493750000000005
30
0
0
VERTEX
8
0
10
-7.5821812500000005
20
0.03829375
30
0
0
VERTEX
8
0
10
-7.52935
20
0.0216375
30
0
0
VERTEX
8
0
10
-7.4752656250000005
20
0.009646875000000001
30
0
0
VERTEX
8
0
10
-7.420343750000001
20
0.0024156250000000002
30
0
0
VERTEX
8
0
10
-7.365
20
0
30
0
0
VERTEX
8
0
10
17.365000000000002
20
0
30
0
0
VERTEX
8
0
10
17.42034375
20
0.0024156250000000002
30
0
0
VERTEX
8
0
10
17.475265625000002
20
0.009646875000000001
30
0
0
VERTEX
8
0
10
17.52935
20
0.0216375
30
0
0
VERTEX
8
0
10
17.58218125
20
0.03829375
30
0
0
VERTEX
8
0
10
17.6333625
20
0.059493750000000005
30
0
0
VERTEX
8
0
10
17.6825
20
0.085075
30
0
0
VERTEX
8
0
10
17.729221875
20
0.11483750000000001
30
0
0
VERTEX
8
0
10
17.77316875
20
0.14856250000000001
30
0
0
VERTEX
8
0
10
17.8140125
20
0.1859875
30
0
0
VERTEX
8
0
10
17.8514375
20
0.22683125
30
0
0
VERTEX
8
0
10
17.8851625
20
0.27077812500000004
30
0
0
VERTEX
8
0
10
17.914925
20
0.3175
30
0
0
VERTEX
8
0
10
17.940506250000002
20
0.3666375
30
0
0
VERTEX
8
0
10
17.961706250000002
20
0.41781875
30
0
0
VERTEX
8
0
10
17.9783625
20
0.47065
30
0
0
VERTEX
8
0
10
17.990353125000002
20
0.524734375
30
0
0
VERTEX
8
0
10
17.997584375000002
20
0.57965625
30
0
0
VERTEX
8
0
10
18
20
0.635
30
0
0
VERTEX
8
0
10
18
20
79.36500000000001
30
0
0
VERTEX
8
0
10
17.997584375000002
20
79.42034375
30
0
0
VERTEX
8
0
10
17.990353125000002
20
79.475265625
30
0
0
VERTEX
8
0
10
17.9783625
20
79.52935000000001
30
0
0
VERTEX
8
0
10
17.961706250000002
20
79.58218125
30
0
0
VERTEX
8
0
10
17.940506250000002
20
79.6333625
30
0
0
VERTEX
8
0
10
17.914925
20
79.6825
30
0
0
VERTEX
8
0
10
17.8851625
20
79.72922187500001
30
0
0
VERTEX
8
0
10
17.8514375
20
79.77316875000001
30
0
0
VERTEX
8
0
10
17.8140125
20
79.8140125
30
0
0
VERTEX
8
0
10
17.77316875
20
79.8514375
30
0
0
VERTEX
8
0
10
17.729221875
20
79.8851625
30
0
0
VERTEX
8
0
10
17.6825
20
79.91492500000001
30
0
0
VERTEX
8
0
10
17.6333625
20
79.94050625
30
0
0
VERTEX
8
0
10
17.58218125
20
79.96170625
30
0
0
VERTEX
8
0
10
17.52935
20
79.9783625
30
0
0
VERTEX
8
0
10
17.475265625000002
20
79.990353125
30
0
0
VERTEX
8
0
10
17.42034375
20
79.997584375
30
0
0
VERTEX
8
0
10
17.365000000000002
20
80
30
0
0
VERTEX
8
0
10
-7.365
20
80
30
0
0
VERTEX
8
0
10
-7.420343750000001
20
79.997584375
30
0
0
VERTEX
8
0
10
-7.4752656250000005
20
79.990353125
30
0
0
VERTEX
8
0
10
-7.52935
20
79.9783625
30
0
0
VERTEX
8
0
10
-7.5821812500000005
20
79.96170625
30
0
0
VERTEX
8
0
10
-7.6333625000000005
20
79.94050625
30
0
0
VERTEX
8
0
10
-7.6825
20
79.91492500000001
30
0
0
VERTEX
8
0
10
-7.729221875
20
79.8851625
30
0
0
VERTEX
8
0
10
-7.77316875
20
79.8514375
30
0
0
VERTEX
8
0
10
-7.8140125000000005
20
79.8140125
30
0
0
VERTEX
8
0
10
-7.8514375
20
79.77316875000001
30
0
0
VERTEX
8
0
10
-7.885162500000001
20
79.72922187500001
30
0
0
VERTEX
8
0
10
-7.914925
20
79.6825
30
0
0
VERTEX
8
0
10
-7.94050625
20
79.6333625
30
0
0
VERTEX
8
0
10
-7.961706250000001
20
79.58218125
30
0
0
VERTEX
8
0
10
-7.9783625
20
79.52935000000001
30
0
0
VERTEX
8
0
10
-7.990353125
20
79.475265625
30
0
0
VERTEX
8
0
10
-7.997584375000001
20
79.42034375
30
0
0
VERTEX
8
0
10
-8
20
79.36500000000001
30
0
0
VERTEX
8
0
10
-8
20
0.635
30
0
0
SEQEND
0
POLYLINE
66
1
8
holes
10
0.0
20
0.0
30
0.0
70
1
0
VERTEX
8
0
10
11.4
20
3.95
30
0
0
VERTEX
8
0
10
11.392865625
20
3.8502500000000004
30
0
0
VERTEX
8
0
10
11.378634375
20
3.7512656250000003
30
0
0
VERTEX
8
0
10
11.357378125
20
3.65355
30
0
0
VERTEX
8
0
10
11.329203125000001
20
3.5576000000000003
30
0
0
VERTEX
8
0
10
11.29425625
20
3.4639031250000003
30
0
0
VERTEX
8
0
10
11.252712500000001
20
3.3729375000000004
30
0
0
VERTEX
8
0
10
11.2047875
20
3.2851656250000003
30
0
0
VERTEX
8
0
10
11.150721875
20
3.201040625
30
0
0
VERTEX
8
0
10
11.090793750000001
20
3.1209843750000004
30
0
0
VERTEX
8
0
10
11.02530625
20
3.04540625
30
0
0
VERTEX
8
0
10
10.95459375
20
2.97469375
30
0
0
VERTEX
8
0
10
10.879015625000001
20
2.90920625
30
0
0
VERTEX
8
0
10
10.798959375
20
2.849278125
30
0
0
VERTEX
8
0
10
10.714834375
20
2.7952125000000003
30
0
0
VERTEX
8
0
10
10.627062500000001
20
2.7472875
30
0
0
VERTEX
8
0
10
10.536096875
20
2.7057437500000003
30
0
0
VERTEX
8
0
10
10.442400000000001
20
2.670796875
30
0
0
VERTEX
8
0
10
10.34645
20
2.642621875
30
0
0
VERTEX
8
0
10
10.248734375
20
2.621365625
30
0
0
VERTEX
8
0
10
10.149750000000001
20
2.6071343750000002
30
0
0
VERTEX
8
0
10
10.05
20
2.6
30
0
0
VERTEX
8
0
10
9.950000000000001
20
2.6
30
0
0
VERTEX
8
0
10
9.85025
20
2.6071343750000002
30
0
0
VERTEX
8
0
10
9.751265625
20
2.621365625
30
0
0
VERTEX
8
0
10
9.653550000000001
20
2.642621875
30
0
0
VERTEX
8
0
10
9.5576
20
2.670796875
30
0
0
VERTEX
8
0
10
9.463903125
20
2.7057437500000003
30
0
0
VERTEX
8
0
10
9.3729375
20
2.7472875
30
0
0
VERTEX
8
0
10
9.285165625000001
20
2.7952125000000003
30
0
0
VERTEX
8
0
10
9.201040625000001
20
2.849278125
30
0
0
VERTEX
8
0
10
9.120984375
20
2.90920625
30
0
0
VERTEX
8
0
10
9.045406250000001
20
2.97469375
30
0
0
VERTEX
8
0
10
8.97469375
20
3.04540625
30
0
0
VERTEX
8
0
10
8.90920625
20
3.1209843750000004
30
0
0
VERTEX
8
0
10
8.849278125
20
3.201040625
30
0
0
VERTEX
8
0
10
8.7952125
20
3.2851656250000003
30
0
0
VERTEX
8
0
10
8.7472875
20
3.3729375000000004
30
0
0
VERTEX
8
0
10
8.70574375
20
3.4639031250000003
30
0
0
VERTEX
8
0
10
8.670796875
20
3.5576000000000003
30
0
0
VERTEX
8
0
10
8.642621875
20
3.65355
30
0
0
VERTEX
8
0
10
8.621365625000001
20
3.7512656250000003
30
0
0
VERTEX
8
0
10
8.607134375000001
20
3.8502500000000004
30
0
0
VERTEX
8
0
10
8.6
20
3.95
30
0
0
VERTEX
8
0
10
8.6
20
4.05
30
0
0
VERTEX
8
0
10
8.607134375000001
20
4.14975
30
0
0
VERTEX
8
0
10
8.621365625000001
20
4.248734375000001
30
0
0
VERTEX
8
0
10
8.642621875
20
4.34645
30
0
0
VERTEX
8
0
10
8.670796875
20
4.4424
30
0
0
VERTEX
8
0
10
8.70574375
20
4.536096875
30
0
0
VERTEX
8
0
10
8.7472875
20
4.6270625
30
0
0
VERTEX
8
0
10
8.7952125
20
4.714834375000001
30
0
0
VERTEX
8
0
10
8.849278125
20
4.798959375
30
0
0
VERTEX
8
0
10
8.90920625
20
4.879015625
30
0
0
VERTEX
8
0
10
8.97469375
20
4.95459375
30
0
0
VERTEX
8
0
10
9.045406250000001
20
5.02530625
30
0
0
VERTEX
8
0
10
9.120984375
20
5.0907937500000005
30
0
0
VERTEX
8
0
10
9.201040625000001
20
5.150721875
30
0
0
VERTEX
8
0
10
9.285165625000001
20
5.2047875
30
0
0
VERTEX
8
0
10
9.3729375
20
5.2527125
30
0
0
VERTEX
8
0
10
9.463903125
20
5.29425625
30
0
0
VERTEX
8
0
10
9.5576
20
5.329203125
30
0
0
VERTEX
8
0
10
9.653550000000001
20
5.357378125
30
0
0
VERTEX
8
0
10
9.751265625
20
5.378634375
30
0
0
VERTEX
8
0
10
9.85025
20
5.392865625000001
30
0
0
VERTEX
8
0
10
9.950000000000001
20
5.4
30
0
0
VERTEX
8
0
10
10.05
20
5.4
30
0
0
VERTEX
8
0
10
10.149750000000001
20
5.392865625000001
30
0
0
VERTEX
8
0
10
10.248734375
20
5.378634375
30
0
0
VERTEX
8
0
10
10.34645
20
5.357378125
30
0
0
VERTEX
8
0
10
10.442400000000001
20
5.329203125
30
0
0
VERTEX
8
0
10
10.536096875
20
5.29425625
30
0
0
VERTEX
8
0
10
10.627062500000001
20
5.2527125
30
0
0
VERTEX
8
0
10
10.714834375
20
5.2047875
30
0
0
VERTEX
8
0
10
10.798959375
20
5.150721875
30
0
0
VERTEX
8
0
10
10.879015625000001
20
5.0907937500000005
30
0
0
VERTEX
8
0
10
10.95459375
20
5.02530625
30
0
0
VERTEX
8
0
10
11.02530625
20
4.95459375
30
0
0
VERTEX
8
0
10
11.090793750000001
20
4.879015625
30
0
0
VERTEX
8
0
10
11.150721875
20
4.798959375
30
0
0
VERTEX
8
0
10
11.2047875
20
4.714834375000001
30
0
0
VERTEX
8
0
10
11.252712500000001
20
4.6270625
30
0
0
VERTEX
8
0
10
11.29425625
20
4.536096875
30
0
0
VERTEX
8
0
10
11.329203125000001
20
4.4424
30
0
0
VERTEX
8
0
10
11.357378125
20
4.34645
30
0
0
VERTEX
8
0
10
11.378634375
20
4.248734375000001
30
0
0
VERTEX
8
0
10
11.392865625
20
4.14975
30
0
0
VERTEX
8
0
10
11.4
20
4.05
30
0
0
VERTEX
8
0
10
11.4
20
3.95
30
0
0
SEQEND
0
POLYLINE
66
1
8
holes
10
0.0
20
0.0
30
0.0
70
1
0
VERTEX
8
0
10
11.4
20
61.95
30
0
0
VERTEX
8
0
10
11.392865625
20
61.85025
30
0
0
VERTEX
8
0
10
11.378634375
20
61.751265625
30
0
0
VERTEX
8
0
10
11.357378125
20
61.65355
30
0
0
VERTEX
8
0
10
11.329203125000001
20
61.5576
30
0
0
VERTEX
8
0
10
11.29425625
20
61.463903125
30
0
0
VERTEX
8
0
10
11.252712500000001
20
61.372937500000006
30
0
0
VERTEX
8
0
10
11.2047875
20
61.285165625000005
30
0
0
VERTEX
8
0
10
11.150721875
20
61.201040625000005
30
0
0
VERTEX
8
0
10
11.090793750000001
20
61.120984375000006
30
0
0
VERTEX
8
0
10
11.02530625
20
61.045406250000006
30
0
0
VERTEX
8
0
10
10.95459375
20
60.97469375
30
0
0
VERTEX
8
0
10
10.879015625000001
20
60.909206250000004
30
0
0
VERTEX
8
0
10
10.798959375
20
60.849278125000005
30
0
0
VERTEX
8
0
10
10.714834375
20
60.795212500000005
30
0
0
VERTEX
8
0
10
10.627062500000001
20
60.747287500000006
30
0
0
VERTEX
8
0
10
10.536096875
20
60.70574375
30
0
0
VERTEX
8
0
10
10.442400000000001
20
60.670796875
30
0
0
VERTEX
8
0
10
10.34645
20
60.642621875
30
0
0
VERTEX
8
0
10
10.248734375
20
60.621365625
30
0
0
VERTEX
8
0
10
10.149750000000001
20
60.607134375
30
0
0
VERTEX
8
0
10
10.05
20
60.6
30
0
0
VERTEX
8
0
10
9.950000000000001
20
60.6
30
0
0
VERTEX
8
0
10
9.85025
20
60.607134375
30
0
0
VERTEX
8
0
10
9.751265625
20
60.621365625
30
0
0
VERTEX
8
0
10
9.653550000000001
20
60.642621875
30
0
0
VERTEX
8
0
10
9.5576
20
60.670796875
30
0
0
VERTEX
8
0
10
9.463903125
20
60.70574375
30
0
0
VERTEX
8
0
10
9.3729375
20
60.747287500000006
30
0
0
VERTEX
8
0
10
9.285165625000001
20
60.795212500000005
30
0
0
VERTEX
8
0
10
9.201040625000001
20
60.849278125000005
30
0
0
VERTEX
8
0
10
9.120984375
20
60.909206250000004
30
0
0
VERTEX
8
0
10
9.045406250000001
20
60.97469375
30
0
0
VERTEX
8
0
10
8.97469375
20
61.045406250000006
30
0
0
VERTEX
8
0
10
8.90920625
20
61.120984375000006
30
0
0
VERTEX
8
0
10
8.849278125
20
61.201040625000005
30
0
0
VERTEX
8
0
10
8.7952125
20
61.285165625000005
30
0
0
VERTEX
8
0
10
8.7472875
20
61.372937500000006
30
0
0
VERTEX
8
0
10
8.70574375
20
61.463903125
30
0
0
VERTEX
8
0
10
8.670796875
20
61.5576
30
0
0
VERTEX
8
0
10
8.642621875
20
61.65355
30
0
0
VERTEX
8
0
10
8.621365625000001
20
61.751265625
30
0
0
VERTEX
8
0
10
8.607134375000001
20
61.85025
30
0
0
VERTEX
8
0
10
8.6
20
61.95
30
0
0
VERTEX
8
0
10
8.6
20
62.050000000000004
30
0
0
VERTEX
8
0
10
8.607134375000001
20
62.149750000000004
30
0
0
VERTEX
8
0
10
8.621365625000001
20
62.248734375000005
30
0
0
VERTEX
8
0
10
8.642621875
20
62.346450000000004
30
0
0
VERTEX
8
0
10
8.670796875
20
62.442400000000006
30
0
0
VERTEX
8
0
10
8.70574375
20
62.536096875000005
30
0
0
VERTEX
8
0
10
8.7472875
20
62.6270625
30
0
0
VERTEX
8
0
10
8.7952125
20
62.714834375
30
0
0
VERTEX
8
0
10
8.849278125
20
62.798959375
30
0
0
VERTEX
8
0
10
8.90920625
20
62.879015625
30
0
0
VERTEX
8
0
10
8.97469375
20
62.95459375
30
0
0
VERTEX
8
0
10
9.045406250000001
20
63.02530625
30
0
0
VERTEX
8
0
10
9.120984375
20
63.09079375
30
0
0
VERTEX
8
0
10
9.201040625000001
20
63.150721875
30
0
0
VERTEX
8
0
10
9.285165625000001
20
63.2047875
30
0
0
VERTEX
8
0
10
9.3729375
20
63.2527125
30
0
0
VERTEX
8
0
10
9.463903125
20
63.294256250000004
30
0
0
VERTEX
8
0
10
9.5576
20
63.32920312500001
30
0
0
VERTEX
8
0
10
9.653550000000001
20
63.357378125000004
30
0
0
VERTEX
8
0
10
9.751265625
20
63.378634375000004
30
0
0
VERTEX
8
0
10
9.85025
20
63.392865625000006
30
0
0
VERTEX
8
0
10
9.950000000000001
20
63.400000000000006
30
0
0
VERTEX
8
0
10
10.05
20
63.400000000000006
30
0
0
VERTEX
8
0
10
10.149750000000001
20
63.392865625000006
30
0
0
VERTEX
8
0
10
10.248734375
20
63.378634375000004
30
0
0
VERTEX
8
0
10
10.34645
20
63.357378125000004
30
0
0
VERTEX
8
0
10
10.442400000000001
20
63.32920312500001
30
0
0
VERTEX
8
0
10
10.536096875
20
63.294256250000004
30
0
0
VERTEX
8
0
10
10.627062500000001
20
63.2527125
30
0
0
VERTEX
8
0
10
10.714834375
20
63.2047875
30
0
0
VERTEX
8
0
10
10.798959375
20
63.150721875
30
0
0
VERTEX
8
0
10
10.879015625000001
20
63.09079375
30
0
0
VERTEX
8
0
10
10.95459375
20
63.02530625
30
0
0
VERTEX
8
0
10
11.02530625
20
62.95459375
30
0
0
VERTEX
8
0
10
11.090793750000001
20
62.879015625
30
0
0
VERTEX
8
0
10
11.150721875
20
62.798959375
30
0
0
VERTEX
8
0
10
11.2047875
20
62.714834375
30
0
0
VERTEX
8
0
10
11.252712500000001
20
62.6270625
30
0
0
VERTEX
8
0
10
11.29425625
20
62.536096875000005
30
0
0
VERTEX
8
0
10
11.329203125000001
20
62.442400000000006
30
0
0
VERTEX
8
0
10
11.357378125
20
62.346450000000004
30
0
0
VERTEX
8
0
10
11.378634375
20
62.248734375000005
30
0
0
VERTEX
8
0
10
11.392865625
20
62.149750000000004
30
0
0
VERTEX
8
0
10
11.4
20
62.050000000000004
30
0
0
VERTEX
8
0
10
11.4
20
61.95
30
0
0
SEQEND
0
POLYLINE
66
1
8
1_copper
10
0.0
20
0.0
30
0.0
70
1
0
VERTEX
8
0
10
9.492
20
56.414371875
30
0
0
VERTEX
8
0
10
9.492
20
57.045628125
30
0
0
VERTEX
8
0
10
9.045628125
20
57.492000000000004
30
0
0
VERTEX
8
0
10
8.414371875
20
57.492000000000004
30
0
0
VERTEX
8
0
10
7.968
20
57.045628125
30
0
0
VERTEX
8
0
10
7.968
20
56.414371875
30
0
0
VERTEX
8
0
10
8.414371875
20
55.968
30
0
0
VERTEX
8
0
10
9.045628125
20
55.968
30
0
0
SEQEND
0
POLYLINE
66
1
8
1_copper
10
0.0
20
0.0
30
0.0
70
1
0
VERTEX
8
0
10
9.492
20
53.874371875
30
0
0
VERTEX
8
0
10
9.492
20
54.505628125
30
0
0
VERTEX
8
0
10
9.045628125
20
54.952000000000005
30
0
0
VERTEX
8
0
10
8.414371875
20
54.952000000000005
30
0
0
VERTEX
8
0
10
7.968
20
54.505628125
30
0
0
VERTEX
8
0
10
7.968
20
53.874371875
30
0
0
VERTEX
8
0
10
8.414371875
20
53.428000000000004
30
0
0
VERTEX
8
0
10
9.045628125
20
53.428000000000004
30
0
0
SEQEND
0
POLYLINE
66
1
8
1_copper
10
0.0
20
0.0
30
0.0
70
1
0
VERTEX
8
0
10
12.032
20
53.874371875
30
0
0
VERTEX
8
0
10
12.032
20
54.505628125
30
0
0
VERTEX
8
0
10
11.585628125000001
20
54.952000000000005
30
0
0
VERTEX
8
0
10
10.954371875
20
54.952000000000005
30
0
0
VERTEX
8
0
10
10.508000000000001
20
54.505628125
30
0
0
VERTEX
8
0
10
10.508000000000001
20
53.874371875
30
0
0
VERTEX
8
0
10
10.954371875
20
53.428000000000004
30
0
0
VERTEX
8
0
10
11.585628125000001
20
53.428000000000004
30
0
0
SEQEND
0
POLYLINE
66
1
8
1_copper
10
0.0
20
0.0
30
0.0
70
1
0
VERTEX
8
0
10
9.492
20
51.334371875
30
0
0
VERTEX
8
0
10
9.492
20
51.965628125
30
0
0
VERTEX
8
0
10
9.045628125
20
52.412
30
0
0
VERTEX
8
0
10
8.414371875
20
52.412
30
0
0
VERTEX
8
0
10
7.968
20
51.965628125
30
0
0
VERTEX
8
0
10
7.968
20
51.334371875
30
0
0
VERTEX
8
0
10
8.414371875
20
50.888000000000005
30
0
0
VERTEX
8
0
10
9.045628125
20
50.888000000000005
30
0
0
SEQEND
0
POLYLINE
66
1
8
1_copper
10
0.0
20
0.0
30
0.0
70
1
0
VERTEX
8
0
10
12.032
20
48.794371875
30
0
0
VERTEX
8
0
10
12.032
20
49.425628125
30
0
0
VERTEX
8
0
10
11.585628125000001
20
49.872
30
0
0
VERTEX
8
0
10
10.954371875
20
49.872
30
0
0
VERTEX
8
0
10
10.508000000000001
20
49.425628125
30
0
0
VERTEX
8
0
10
10.508000000000001
20
48.794371875
30
0
0
VERTEX
8
0
10
10.954371875
20
48.348
30
0
0
VERTEX
8
0
10
11.585628125000001
20
48.348
30
0
0
SEQEND
0
POLYLINE
66
1
8
1_copper
10
0.0
20
0.0
30
0.0
70
1
0
VERTEX
8
0
10
9.492
20
46.254371875000004
30
0
0
VERTEX
8
0
10
9.492
20
46.885628125000004
30
0
0
VERTEX
8
0
10
9.045628125
20
47.332
30
0
0
VERTEX
8
0
10
8.414371875
20
47.332
30
0
0
VERTEX
8
0
10
7.968
20
46.885628125000004
30
0
0
VERTEX
8
0
10
7.968
20
46.254371875000004
30
0
0
VERTEX
8
0
10
8.414371875
20
45.808
30
0
0
VERTEX
8
0
10
9.045628125
20
45.808
30
0
0
SEQEND
0
POLYLINE
66
1
8
1_copper
10
0.0
20
0.0
30
0.0
70
1
0
VERTEX
8
0
10
12.032
20
46.254371875000004
30
0
0
VERTEX
8
0
10
12.032
20
46.885628125000004
30
0
0
VERTEX
8
0
10
11.585628125000001
20
47.332
30
0
0
VERTEX
8
0
10
10.954371875
20
47.332
30
0
0
VERTEX
8
0
10
10.508000000000001
20
46.885628125000004
30
0
0
VERTEX
8
0
10
10.508000000000001
20
46.254371875000004
30
0
0
VERTEX
8
0
10
10.954371875
20
45.808
30
0
0
VERTEX
8
0
10
11.585628125000001
20
45.808
30
0
0
SEQEND
0
POLYLINE
66
1
8
1_copper
10
0.0
20
0.0
30
0.0
70
1
0
VERTEX
8
0
10
12.032
20
43.714371875000005
30
0
0
VERTEX
8
0
10
12.032
20
44.345628125000005
30
0
0
VERTEX
8
0
10
11.585628125000001
20
44.792
30
0
0
VERTEX
8
0
10
10.954371875
20
44.792
30
0
0
VERTEX
8
0
10
10.508000000000001
20
44.345628125000005
30
0
0
VERTEX
8
0
10
10.508000000000001
20
43.714371875000005
30
0
0
VERTEX
8
0
10
10.954371875
20
43.268
30
0
0
VERTEX
8
0
10
11.585628125000001
20
43.268
30
0
0
SEQEND
0
POLYLINE
66
1
8
1_copper
10
0.0
20
0.0
30
0.0
70
1
0
VERTEX
8
0
10
12.032
20
41.174371875
30
0
0
VERTEX
8
0
10
12.032
20
41.805628125000005
30
0
0
VERTEX
8
0
10
11.585628125000001
20
42.252
30
0
0
VERTEX
8
0
10
10.954371875
20
42.252
30
0
0
VERTEX
8
0
10
10.508000000000001
20
41.805628125000005
30
0
0
VERTEX
8
0
10
10.508000000000001
20
41.174371875
30
0
0
VERTEX
8
0
10
10.954371875
20
40.728
30
0
0
VERTEX
8
0
10
11.585628125000001
20
40.728
30
0
0
SEQEND
0
POLYLINE
66
1
8
1_copper
10
0.0
20
0.0
30
0.0
70
1
0
VERTEX
8
0
10
12.032
20
38.634371875
30
0
0
VERTEX
8
0
10
12.032
20
39.265628125
30
0
0
VERTEX
8
0
10
11.585628125000001
20
39.712
30
0
0
VERTEX
8
0
10
10.954371875
20
39.712
30
0
0
VERTEX
8
0
10
10.508000000000001
20
39.265628125
30
0
0
VERTEX
8
0
10
10.508000000000001
20
38.634371875
30
0
0
VERTEX
8
0
10
10.954371875
20
38.188
30
0
0
VERTEX
8
0
10
11.585628125000001
20
38.188
30
0
0
SEQEND
0
POLYLINE
66
1
8
1_copper
10
0.0
20
0.0
30
0.0
70
1
0
VERTEX
8
0
10
9.492
20
36.094371875
30
0
0
VERTEX
8
0
10
9.492
20
36.725628125
30
0
0
VERTEX
8
0
10
9.045628125
20
37.172000000000004
30
0
0
VERTEX
8
0
10
8.414371875
20
37.172000000000004
30
0
0
VERTEX
8
0
10
7.968
20
36.725628125
30
0
0
VERTEX
8
0
10
7.968
20
36.094371875
30
0
0
VERTEX
8
0
10
8.414371875
20
35.648
30
0
0
VERTEX
8
0
10
9.045628125
20
35.648
30
0
0
SEQEND
0
POLYLINE
66
1
8
1_copper
10
0.0
20
0.0
30
0.0
70
1
0
VERTEX
8
0
10
12.032
20
36.094371875
30
0
0
VERTEX
8
0
10
12.032
20
36.725628125
30
0
0
VERTEX
8
0
10
11.585628125000001
20
37.172000000000004
30
0
0
VERTEX
8
0
10
10.954371875
20
37.172000000000004
30
0
0
VERTEX
8
0
10
10.508000000000001
20
36.725628125
30
0
0
VERTEX
8
0
10
10.508000000000001
20
36.094371875
30
0
0
VERTEX
8
0
10
10.954371875
20
35.648
30
0
0
VERTEX
8
0
10
11.585628125000001
20
35.648
30
0
0
SEQEND
0
POLYLINE
66
1
8
1_copper
10
0.0
20
0.0
30
0.0
70
1
0
VERTEX
8
0
10
12.032
20
33.554371875
30
0
0
VERTEX
8
0
10
12.032
20
34.185628125
30
0
0
VERTEX
8
0
10
11.585628125000001
20
34.632000000000005
30
0
0
VERTEX
8
0
10
10.954371875
20
34.632000000000005
30
0
0
VERTEX
8
0
10
10.508000000000001
20
34.185628125
30
0
0
VERTEX
8
0
10
10.508000000000001
20
33.554371875
30
0
0
VERTEX
8
0
10
10.954371875
20
33.108000000000004
30
0
0
VERTEX
8
0
10
11.585628125000001
20
33.108000000000004
30
0
0
SEQEND
0
POLYLINE
66
1
8
1_copper
10
0.0
20
0.0
30
0.0
70
1
0
VERTEX
8
0
10
9.492
20
31.014371875000002
30
0
0
VERTEX
8
0
10
9.492
20
31.645628125
30
0
0
VERTEX
8
0
10
9.045628125
20
32.092
30
0
0
VERTEX
8
0
10
8.414371875
20
32.092
30
0
0
VERTEX
8
0
10
7.968
20
31.645628125
30
0
0
VERTEX
8
0
10
7.968
20
31.014371875000002
30
0
0
VERTEX
8
0
10
8.414371875
20
30.568
30
0
0
VERTEX
8
0
10
9.045628125
20
30.568
30
0
0
SEQEND
0
POLYLINE
66
1
8
1_copper
10
0.0
20
0.0
30
0.0
70
1
0
VERTEX
8
0
10
12.032
20
31.014371875000002
30
0
0
VERTEX
8
0
10
12.032
20
31.645628125
30
0
0
VERTEX
8
0
10
11.585628125000001
20
32.092
30
0
0
VERTEX
8
0
10
10.954371875
20
32.092
30
0
0
VERTEX
8
0
10
10.508000000000001
20
31.645628125
30
0
0
VERTEX
8
0
10
10.508000000000001
20
31.014371875000002
30
0
0
VERTEX
8
0
10
10.954371875
20
30.568
30
0
0
VERTEX
8
0
10
11.585628125000001
20
30.568
30
0
0
SEQEND
0
POLYLINE
66
1
8
1_copper
10
0.0
20
0.0
30
0.0
70
1
0
VERTEX
8
0
10
12.032
20
28.474371875000003
30
0
0
VERTEX
8
0
10
12.032
20
29.105628125000003
30
0
0
VERTEX
8
0
10
11.585628125000001
20
29.552000000000003
30
0
0
VERTEX
8
0
10
10.954371875
20
29.552000000000003
30
0
0
VERTEX
8
0
10
10.508000000000001
20
29.105628125000003
30
0
0
VERTEX
8
0
10
10.508000000000001
20
28.474371875000003
30
0
0
VERTEX
8
0
10
10.954371875
20
28.028000000000002
30
0
0
VERTEX
8
0
10
11.585628125000001
20
28.028000000000002
30
0
0
SEQEND
0
POLYLINE
66
1
8
1_copper
10
0.0
20
0.0
30
0.0
70
1
0
VERTEX
8
0
10
9.492
20
25.934371875
30
0
0
VERTEX
8
0
10
9.492
20
26.565628125
30
0
0
VERTEX
8
0
10
9.045628125
20
27.012
30
0
0
VERTEX
8
0
10
8.414371875
20
27.012
30
0
0
VERTEX
8
0
10
7.968
20
26.565628125
30
0
0
VERTEX
8
0
10
7.968
20
25.934371875
30
0
0
VERTEX
8
0
10
8.414371875
20
25.488
30
0
0
VERTEX
8
0
10
9.045628125
20
25.488
30
0
0
SEQEND
0
POLYLINE
66
1
8
1_copper
10
0.0
20
0.0
30
0.0
70
1
0
VERTEX
8
0
10
12.032
20
25.934371875
30
0
0
VERTEX
8
0
10
12.032
20
26.565628125
30
0
0
VERTEX
8
0
10
11.585628125000001
20
27.012
30
0
0
VERTEX
8
0
10
10.954371875
20
27.012
30
0
0
VERTEX
8
0
10
10.508000000000001
20
26.565628125
30
0
0
VERTEX
8
0
10
10.508000000000001
20
25.934371875
30
0
0
VERTEX
8
0
10
10.954371875
20
25.488
30
0
0
VERTEX
8
0
10
11.585628125000001
20
25.488
30
0
0
SEQEND
0
POLYLINE
66
1
8
1_copper
10
0.0
20
0.0
30
0.0
70
1
0
VERTEX
8
0
10
9.492
20
23.394371875
30
0
0
VERTEX
8
0
10
9.492
20
24.025628125
30
0
0
VERTEX
8
0
10
9.045628125
20
24.472
30
0
0
VERTEX
8
0
10
8.414371875
20
24.472
30
0
0
VERTEX
8
0
10
7.968
20
24.025628125
30
0
0
VERTEX
8
0
10
7.968
20
23.394371875
30
0
0
VERTEX
8
0
10
8.414371875
20
22.948
30
0
0
VERTEX
8
0
10
9.045628125
20
22.948
30
0
0
SEQEND
0
POLYLINE
66
1
8
1_copper
10
0.0
20
0.0
30
0.0
70
1
0
VERTEX
8
0
10
12.032
20
23.394371875
30
0
0
VERTEX
8
0
10
12.032
20
24.025628125
30
0
0
VERTEX
8
0
10
11.585628125000001
20
24.472
30
0
0
VERTEX
8
0
10
10.954371875
20
24.472
30
0
0
VERTEX
8
0
10
10.508000000000001
20
24.025628125
30
0
0
VERTEX
8
0
10
10.508000000000001
20
23.394371875
30
0
0
VERTEX
8
0
10
10.954371875
20
22.948
30
0
0
VERTEX
8
0
10
11.585628125000001
20
22.948
30
0
0
SEQEND
0
POLYLINE
66
1
8
1_copper
10
0.0
20
0.0
30
0.0
70
1
0
VERTEX
8
0
10
12.032
20
20.854371875000002
30
0
0
VERTEX
8
0
10
12.032
20
21.485628125
30
0
0
VERTEX
8
0
10
11.585628125000001
20
21.932000000000002
30
0
0
VERTEX
8
0
10
10.954371875
20
21.932000000000002
30
0
0
VERTEX
8
0
10
10.508000000000001
20
21.485628125
30
0
0
VERTEX
8
0
10
10.508000000000001
20
20.854371875000002
30
0
0
VERTEX
8
0
10
10.954371875
20
20.408
30
0
0
VERTEX
8
0
10
11.585628125000001
20
20.408
30
0
0
SEQEND
0
POLYLINE
66
1
8
1_copper
10
0.0
20
0.0
30
0.0
70
1
0
VERTEX
8
0
10
12.032
20
18.314371875000003
30
0
0
VERTEX
8
0
10
12.032
20
18.945628125000002
30
0
0
VERTEX
8
0
10
11.585628125000001
20
19.392
30
0
0
VERTEX
8
0
10
10.954371875
20
19.392
30
0
0
VERTEX
8
0
10
10.508000000000001
20
18.945628125000002
30
0
0
VERTEX
8
0
10
10.508000000000001
20
18.314371875000003
30
0
0
VERTEX
8
0
10
10.954371875
20
17.868000000000002
30
0
0
VERTEX
8
0
10
11.585628125000001
20
17.868000000000002
30
0
0
SEQEND
0
POLYLINE
66
1
8
1_copper
10
0.0
20
0.0
30
0.0
70
1
0
VERTEX
8
0
10
12.032
20
15.774371875
30
0
0
VERTEX
8
0
10
12.032
20
16.405628125
30
0
0
VERTEX
8
0
10
11.585628125000001
20
16.852
30
0
0
VERTEX
8
0
10
10.954371875
20
16.852
30
0
0
VERTEX
8
0
10
10.508000000000001
20
16.405628125
30
0
0
VERTEX
8
0
10
10.508000000000001
20
15.774371875
30
0
0
VERTEX
8
0
10
10.954371875
20
15.328000000000001
30
0
0
VERTEX
8
0
10
11.585628125000001
20
15.328000000000001
30
0
0
SEQEND
0
POLYLINE
66
1
8
1_copper
10
0.0
20
0.0
30
0.0
70
1
0
VERTEX
8
0
10
12.032
20
13.234371875
30
0
0
VERTEX
8
0
10
12.032
20
13.865628125
30
0
0
VERTEX
8
0
10
11.585628125000001
20
14.312000000000001
30
0
0
VERTEX
8
0
10
10.954371875
20
14.312000000000001
30
0
0
VERTEX
8
0
10
10.508000000000001
20
13.865628125
30
0
0
VERTEX
8
0
10
10.508000000000001
20
13.234371875
30
0
0
VERTEX
8
0
10
10.954371875
20
12.788
30
0
0
VERTEX
8
0
10
11.585628125000001
20
12.788
30
0
0
SEQEND
0
POLYLINE
66
1
8
1_copper
10
0.0
20
0.0
30
0.0
70
1
0
VERTEX
8
0
10
12.032
20
10.694371875
30
0
0
VERTEX
8
0
10
12.032
20
11.325628125
30
0
0
VERTEX
8
0
10
11.585628125000001
20
11.772
30
0
0
VERTEX
8
0
10
10.954371875
20
11.772
30
0
0
VERTEX
8
0
10
10.508000000000001
20
11.325628125
30
0
0
VERTEX
8
0
10
10.508000000000001
20
10.694371875
30
0
0
VERTEX
8
0
10
10.954371875
20
10.248000000000001
30
0
0
VERTEX
8
0
10
11.585628125000001
20
10.248000000000001
30
0
0
SEQEND
0
POLYLINE
66
1
8
1_copper
10
0.0
20
0.0
30
0.0
70
1
0
VERTEX
8
0
10
9.492
20
8.154371875
30
0
0
VERTEX
8
0
10
9.492
20
8.785628125
30
0
0
VERTEX
8
0
10
9.045628125
20
9.232000000000001
30
0
0
VERTEX
8
0
10
8.414371875
20
9.232000000000001
30
0
0
VERTEX
8
0
10
7.968
20
8.785628125
30
0
0
VERTEX
8
0
10
7.968
20
8.154371875
30
0
0
VERTEX
8
0
10
8.414371875
20
7.708
30
0
0
VERTEX
8
0
10
9.045628125
20
7.708
30
0
0
SEQEND
0
POLYLINE
66
1
8
1_copper
10
0.0
20
0.0
30
0.0
70
1
0
VERTEX
8
0
10
12.032
20
8.154371875
30
0
0
VERTEX
8
0
10
12.032
20
8.785628125
30
0
0
VERTEX
8
0
10
11.585628125000001
20
9.232000000000001
30
0
0
VERTEX
8
0
10
10.954371875
20
9.232000000000001
30
0
0
VERTEX
8
0
10
10.508000000000001
20
8.785628125
30
0
0
VERTEX
8
0
10
10.508000000000001
20
8.154371875
30
0
0
VERTEX
8
0
10
10.954371875
20
7.708
30
0
0
VERTEX
8
0
10
11.585628125000001
20
7.708
30
0
0
SEQEND
0
POLYLINE
66
1
8
16_copper
10
0.0
20
0.0
30
0.0
70
1
0
VERTEX
8
0
10
9.492
20
56.414371875
30
0
0
VERTEX
8
0
10
9.492
20
57.045628125
30
0
0
VERTEX
8
0
10
9.045628125
20
57.492000000000004
30
0
0
VERTEX
8
0
10
8.414371875
20
57.492000000000004
30
0
0
VERTEX
8
0
10
7.968
20
57.045628125
30
0
0
VERTEX
8
0
10
7.968
20
56.414371875
30
0
0
VERTEX
8
0
10
8.414371875
20
55.968
30
0
0
VERTEX
8
0
10
9.045628125
20
55.968
30
0
0
SEQEND
0
POLYLINE
66
1
8
16_copper
10
0.0
20
0.0
30
0.0
70
1
0
VERTEX
8
0
10
9.492
20
53.874371875
30
0
0
VERTEX
8
0
10
9.492
20
54.505628125
30
0
0
VERTEX
8
0
10
9.045628125
20
54.952000000000005
30
0
0
VERTEX
8
0
10
8.414371875
20
54.952000000000005
30
0
0
VERTEX
8
0
10
7.968
20
54.505628125
30
0
0
VERTEX
8
0
10
7.968
20
53.874371875
30
0
0
VERTEX
8
0
10
8.414371875
20
53.428000000000004
30
0
0
VERTEX
8
0
10
9.045628125
20
53.428000000000004
30
0
0
SEQEND
0
POLYLINE
66
1
8
16_copper
10
0.0
20
0.0
30
0.0
70
1
0
VERTEX
8
0
10
12.032
20
53.874371875
30
0
0
VERTEX
8
0
10
12.032
20
54.505628125
30
0
0
VERTEX
8
0
10
11.585628125000001
20
54.952000000000005
30
0
0
VERTEX
8
0
10
10.954371875
20
54.952000000000005
30
0
0
VERTEX
8
0
10
10.508000000000001
20
54.505628125
30
0
0
VERTEX
8
0
10
10.508000000000001
20
53.874371875
30
0
0
VERTEX
8
0
10
10.954371875
20
53.428000000000004
30
0
0
VERTEX
8
0
10
11.585628125000001
20
53.428000000000004
30
0
0
SEQEND
0
POLYLINE
66
1
8
16_copper
10
0.0
20
0.0
30
0.0
70
1
0
VERTEX
8
0
10
9.492
20
51.334371875
30
0
0
VERTEX
8
0
10
9.492
20
51.965628125
30
0
0
VERTEX
8
0
10
9.045628125
20
52.412
30
0
0
VERTEX
8
0
10
8.414371875
20
52.412
30
0
0
VERTEX
8
0
10
7.968
20
51.965628125
30
0
0
VERTEX
8
0
10
7.968
20
51.334371875
30
0
0
VERTEX
8
0
10
8.414371875
20
50.888000000000005
30
0
0
VERTEX
8
0
10
9.045628125
20
50.888000000000005
30
0
0
SEQEND
0
POLYLINE
66
1
8
16_copper
10
0.0
20
0.0
30
0.0
70
1
0
VERTEX
8
0
10
12.032
20
48.794371875
30
0
0
VERTEX
8
0
10
12.032
20
49.425628125
30
0
0
VERTEX
8
0
10
11.585628125000001
20
49.872
30
0
0
VERTEX
8
0
10
10.954371875
20
49.872
30
0
0
VERTEX
8
0
10
10.508000000000001
20
49.425628125
30
0
0
VERTEX
8
0
10
10.508000000000001
20
48.794371875
30
0
0
VERTEX
8
0
10
10.954371875
20
48.348
30
0
0
VERTEX
8
0
10
11.585628125000001
20
48.348
30
0
0
SEQEND
0
POLYLINE
66
1
8
16_copper
10
0.0
20
0.0
30
0.0
70
1
0
VERTEX
8
0
10
9.492
20
46.254371875000004
30
0
0
VERTEX
8
0
10
9.492
20
46.885628125000004
30
0
0
VERTEX
8
0
10
9.045628125
20
47.332
30
0
0
VERTEX
8
0
10
8.414371875
20
47.332
30
0
0
VERTEX
8
0
10
7.968
20
46.885628125000004
30
0
0
VERTEX
8
0
10
7.968
20
46.254371875000004
30
0
0
VERTEX
8
0
10
8.414371875
20
45.808
30
0
0
VERTEX
8
0
10
9.045628125
20
45.808
30
0
0
SEQEND
0
POLYLINE
66
1
8
16_copper
10
0.0
20
0.0
30
0.0
70
1
0
VERTEX
8
0
10
12.032
20
46.254371875000004
30
0
0
VERTEX
8
0
10
12.032
20
46.885628125000004
30
0
0
VERTEX
8
0
10
11.585628125000001
20
47.332
30
0
0
VERTEX
8
0
10
10.954371875
20
47.332
30
0
0
VERTEX
8
0
10
10.508000000000001
20
46.885628125000004
30
0
0
VERTEX
8
0
10
10.508000000000001
20
46.254371875000004
30
0
0
VERTEX
8
0
10
10.954371875
20
45.808
30
0
0
VERTEX
8
0
10
11.585628125000001
20
45.808
30
0
0
SEQEND
0
POLYLINE
66
1
8
16_copper
10
0.0
20
0.0
30
0.0
70
1
0
VERTEX
8
0
10
12.032
20
43.714371875000005
30
0
0
VERTEX
8
0
10
12.032
20
44.345628125000005
30
0
0
VERTEX
8
0
10
11.585628125000001
20
44.792
30
0
0
VERTEX
8
0
10
10.954371875
20
44.792
30
0
0
VERTEX
8
0
10
10.508000000000001
20
44.345628125000005
30
0
0
VERTEX
8
0
10
10.508000000000001
20
43.714371875000005
30
0
0
VERTEX
8
0
10
10.954371875
20
43.268
30
0
0
VERTEX
8
0
10
11.585628125000001
20
43.268
30
0
0
SEQEND
0
POLYLINE
66
1
8
16_copper
10
0.0
20
0.0
30
0.0
70
1
0
VERTEX
8
0
10
12.032
20
41.174371875
30
0
0
VERTEX
8
0
10
12.032
20
41.805628125000005
30
0
0
VERTEX
8
0
10
11.585628125000001
20
42.252
30
0
0
VERTEX
8
0
10
10.954371875
20
42.252
30
0
0
VERTEX
8
0
10
10.508000000000001
20
41.805628125000005
30
0
0
VERTEX
8
0
10
10.508000000000001
20
41.174371875
30
0
0
VERTEX
8
0
10
10.954371875
20
40.728
30
0
0
VERTEX
8
0
10
11.585628125000001
20
40.728
30
0
0
SEQEND
0
POLYLINE
66
1
8
16_copper
10
0.0
20
0.0
30
0.0
70
1
0
VERTEX
8
0
10
12.032
20
38.634371875
30
0
0
VERTEX
8
0
10
12.032
20
39.265628125
30
0
0
VERTEX
8
0
10
11.585628125000001
20
39.712
30
0
0
VERTEX
8
0
10
10.954371875
20
39.712
30
0
0
VERTEX
8
0
10
10.508000000000001
20
39.265628125
30
0
0
VERTEX
8
0
10
10.508000000000001
20
38.634371875
30
0
0
VERTEX
8
0
10
10.954371875
20
38.188
30
0
0
VERTEX
8
0
10
11.585628125000001
20
38.188
30
0
0
SEQEND
0
POLYLINE
66
1
8
16_copper
10
0.0
20
0.0
30
0.0
70
1
0
VERTEX
8
0
10
9.492
20
36.094371875
30
0
0
VERTEX
8
0
10
9.492
20
36.725628125
30
0
0
VERTEX
8
0
10
9.045628125
20
37.172000000000004
30
0
0
VERTEX
8
0
10
8.414371875
20
37.172000000000004
30
0
0
VERTEX
8
0
10
7.968
20
36.725628125
30
0
0
VERTEX
8
0
10
7.968
20
36.094371875
30
0
0
VERTEX
8
0
10
8.414371875
20
35.648
30
0
0
VERTEX
8
0
10
9.045628125
20
35.648
30
0
0
SEQEND
0
POLYLINE
66
1
8
16_copper
10
0.0
20
0.0
30
0.0
70
1
0
VERTEX
8
0
10
12.032
20
36.094371875
30
0
0
VERTEX
8
0
10
12.032
20
36.725628125
30
0
0
VERTEX
8
0
10
11.585628125000001
20
37.172000000000004
30
0
0
VERTEX
8
0
10
10.954371875
20
37.172000000000004
30
0
0
VERTEX
8
0
10
10.508000000000001
20
36.725628125
30
0
0
VERTEX
8
0
10
10.508000000000001
20
36.094371875
30
0
0
VERTEX
8
0
10
10.954371875
20
35.648
30
0
0
VERTEX
8
0
10
11.585628125000001
20
35.648
30
0
0
SEQEND
0
POLYLINE
66
1
8
16_copper
10
0.0
20
0.0
30
0.0
70
1
0
VERTEX
8
0
10
12.032
20
33.554371875
30
0
0
VERTEX
8
0
10
12.032
20
34.185628125
30
0
0
VERTEX
8
0
10
11.585628125000001
20
34.632000000000005
30
0
0
VERTEX
8
0
10
10.954371875
20
34.632000000000005
30
0
0
VERTEX
8
0
10
10.508000000000001
20
34.185628125
30
0
0
VERTEX
8
0
10
10.508000000000001
20
33.554371875
30
0
0
VERTEX
8
0
10
10.954371875
20
33.108000000000004
30
0
0
VERTEX
8
0
10
11.585628125000001
20
33.108000000000004
30
0
0
SEQEND
0
POLYLINE
66
1
8
16_copper
10
0.0
20
0.0
30
0.0
70
1
0
VERTEX
8
0
10
9.492
20
31.014371875000002
30
0
0
VERTEX
8
0
10
9.492
20
31.645628125
30
0
0
VERTEX
8
0
10
9.045628125
20
32.092
30
0
0
VERTEX
8
0
10
8.414371875
20
32.092
30
0
0
VERTEX
8
0
10
7.968
20
31.645628125
30
0
0
VERTEX
8
0
10
7.968
20
31.014371875000002
30
0
0
VERTEX
8
0
10
8.414371875
20
30.568
30
0
0
VERTEX
8
0
10
9.045628125
20
30.568
30
0
0
SEQEND
0
POLYLINE
66
1
8
16_copper
10
0.0
20
0.0
30
0.0
70
1
0
VERTEX
8
0
10
12.032
20
31.014371875000002
30
0
0
VERTEX
8
0
10
12.032
20
31.645628125
30
0
0
VERTEX
8
0
10
11.585628125000001
20
32.092
30
0
0
VERTEX
8
0
10
10.954371875
20
32.092
30
0
0
VERTEX
8
0
10
10.508000000000001
20
31.645628125
30
0
0
VERTEX
8
0
10
10.508000000000001
20
31.014371875000002
30
0
0
VERTEX
8
0
10
10.954371875
20
30.568
30
0
0
VERTEX
8
0
10
11.585628125000001
20
30.568
30
0
0
SEQEND
0
POLYLINE
66
1
8
16_copper
10
0.0
20
0.0
30
0.0
70
1
0
VERTEX
8
0
10
12.032
20
28.474371875000003
30
0
0
VERTEX
8
0
10
12.032
20
29.105628125000003
30
0
0
VERTEX
8
0
10
11.585628125000001
20
29.552000000000003
30
0
0
VERTEX
8
0
10
10.954371875
20
29.552000000000003
30
0
0
VERTEX
8
0
10
10.508000000000001
20
29.105628125000003
30
0
0
VERTEX
8
0
10
10.508000000000001
20
28.474371875000003
30
0
0
VERTEX
8
0
10
10.954371875
20
28.028000000000002
30
0
0
VERTEX
8
0
10
11.585628125000001
20
28.028000000000002
30
0
0
SEQEND
0
POLYLINE
66
1
8
16_copper
10
0.0
20
0.0
30
0.0
70
1
0
VERTEX
8
0
10
9.492
20
25.934371875
30
0
0
VERTEX
8
0
10
9.492
20
26.565628125
30
0
0
VERTEX
8
0
10
9.045628125
20
27.012
30
0
0
VERTEX
8
0
10
8.414371875
20
27.012
30
0
0
VERTEX
8
0
10
7.968
20
26.565628125
30
0
0
VERTEX
8
0
10
7.968
20
25.934371875
30
0
0
VERTEX
8
0
10
8.414371875
20
25.488
30
0
0
VERTEX
8
0
10
9.045628125
20
25.488
30
0
0
SEQEND
0
POLYLINE
66
1
8
16_copper
10
0.0
20
0.0
30
0.0
70
1
0
VERTEX
8
0
10
12.032
20
25.934371875
30
0
0
VERTEX
8
0
10
12.032
20
26.565628125
30
0
0
VERTEX
8
0
10
11.585628125000001
20
27.012
30
0
0
VERTEX
8
0
10
10.954371875
20
27.012
30
0
0
VERTEX
8
0
10
10.508000000000001
20
26.565628125
30
0
0
VERTEX
8
0
10
10.508000000000001
20
25.934371875
30
0
0
VERTEX
8
0
10
10.954371875
20
25.488
30
0
0
VERTEX
8
0
10
11.585628125000001
20
25.488
30
0
0
SEQEND
0
POLYLINE
66
1
8
16_copper
10
0.0
20
0.0
30
0.0
70
1
0
VERTEX
8
0
10
9.492
20
23.394371875
30
0
0
VERTEX
8
0
10
9.492
20
24.025628125
30
0
0
VERTEX
8
0
10
9.045628125
20
24.472
30
0
0
VERTEX
8
0
10
8.414371875
20
24.472
30
0
0
VERTEX
8
0
10
7.968
20
24.025628125
30
0
0
VERTEX
8
0
10
7.968
20
23.394371875
30
0
0
VERTEX
8
0
10
8.414371875
20
22.948
30
0
0
VERTEX
8
0
10
9.045628125
20
22.948
30
0
0
SEQEND
0
POLYLINE
66
1
8
16_copper
10
0.0
20
0.0
30
0.0
70
1
0
VERTEX
8
0
10
12.032
20
23.394371875
30
0
0
VERTEX
8
0
10
12.032
20
24.025628125
30
0
0
VERTEX
8
0
10
11.585628125000001
20
24.472
30
0
0
VERTEX
8
0
10
10.954371875
20
24.472
30
0
0
VERTEX
8
0
10
10.508000000000001
20
24.025628125
30
0
0
VERTEX
8
0
10
10.508000000000001
20
23.394371875
30
0
0
VERTEX
8
0
10
10.954371875
20
22.948
30
0
0
VERTEX
8
0
10
11.585628125000001
20
22.948
30
0
0
SEQEND
0
POLYLINE
66
1
8
16_copper
10
0.0
20
0.0
30
0.0
70
1
0
VERTEX
8
0
10
12.032
20
20.854371875000002
30
0
0
VERTEX
8
0
10
12.032
20
21.485628125
30
0
0
VERTEX
8
0
10
11.585628125000001
20
21.932000000000002
30
0
0
VERTEX
8
0
10
10.954371875
20
21.932000000000002
30
0
0
VERTEX
8
0
10
10.508000000000001
20
21.485628125
30
0
0
VERTEX
8
0
10
10.508000000000001
20
20.854371875000002
30
0
0
VERTEX
8
0
10
10.954371875
20
20.408
30
0
0
VERTEX
8
0
10
11.585628125000001
20
20.408
30
0
0
SEQEND
0
POLYLINE
66
1
8
16_copper
10
0.0
20
0.0
30
0.0
70
1
0
VERTEX
8
0
10
12.032
20
18.314371875000003
30
0
0
VERTEX
8
0
10
12.032
20
18.945628125000002
30
0
0
VERTEX
8
0
10
11.585628125000001
20
19.392
30
0
0
VERTEX
8
0
10
10.954371875
20
19.392
30
0
0
VERTEX
8
0
10
10.508000000000001
20
18.945628125000002
30
0
0
VERTEX
8
0
10
10.508000000000001
20
18.314371875000003
30
0
0
VERTEX
8
0
10
10.954371875
20
17.868000000000002
30
0
0
VERTEX
8
0
10
11.585628125000001
20
17.868000000000002
30
0
0
SEQEND
0
POLYLINE
66
1
8
16_copper
10
0.0
20
0.0
30
0.0
70
1
0
VERTEX
8
0
10
12.032
20
15.774371875
30
0
0
VERTEX
8
0
10
12.032
20
16.405628125
30
0
0
VERTEX
8
0
10
11.585628125000001
20
16.852
30
0
0
VERTEX
8
0
10
10.954371875
20
16.852
30
0
0
VERTEX
8
0
10
10.508000000000001
20
16.405628125
30
0
0
VERTEX
8
0
10
10.508000000000001
20
15.774371875
30
0
0
VERTEX
8
0
10
10.954371875
20
15.328000000000001
30
0
0
VERTEX
8
0
10
11.585628125000001
20
15.328000000000001
30
0
0
SEQEND
0
POLYLINE
66
1
8
16_copper
10
0.0
20
0.0
30
0.0
70
1
0
VERTEX
8
0
10
12.032
20
13.234371875
30
0
0
VERTEX
8
0
10
12.032
20
13.865628125
30
0
0
VERTEX
8
0
10
11.585628125000001
20
14.312000000000001
30
0
0
VERTEX
8
0
10
10.954371875
20
14.312000000000001
30
0
0
VERTEX
8
0
10
10.508000000000001
20
13.865628125
30
0
0
VERTEX
8
0
10
10.508000000000001
20
13.234371875
30
0
0
VERTEX
8
0
10
10.954371875
20
12.788
30
0
0
VERTEX
8
0
10
11.585628125000001
20
12.788
30
0
0
SEQEND
0
POLYLINE
66
1
8
16_copper
10
0.0
20
0.0
30
0.0
70
1
0
VERTEX
8
0
10
12.032
20
10.694371875
30
0
0
VERTEX
8
0
10
12.032
20
11.325628125
30
0
0
VERTEX
8
0
10
11.585628125000001
20
11.772
30
0
0
VERTEX
8
0
10
10.954371875
20
11.772
30
0
0
VERTEX
8
0
10
10.508000000000001
20
11.325628125
30
0
0
VERTEX
8
0
10
10.508000000000001
20
10.694371875
30
0
0
VERTEX
8
0
10
10.954371875
20
10.248000000000001
30
0
0
VERTEX
8
0
10
11.585628125000001
20
10.248000000000001
30
0
0
SEQEND
0
POLYLINE
66
1
8
16_copper
10
0.0
20
0.0
30
0.0
70
1
0
VERTEX
8
0
10
9.492
20
8.154371875
30
0
0
VERTEX
8
0
10
9.492
20
8.785628125
30
0
0
VERTEX
8
0
10
9.045628125
20
9.232000000000001
30
0
0
VERTEX
8
0
10
8.414371875
20
9.232000000000001
30
0
0
VERTEX
8
0
10
7.968
20
8.785628125
30
0
0
VERTEX
8
0
10
7.968
20
8.154371875
30
0
0
VERTEX
8
0
10
8.414371875
20
7.708
30
0
0
VERTEX
8
0
10
9.045628125
20
7.708
30
0
0
SEQEND
0
POLYLINE
66
1
8
16_copper
10
0.0
20
0.0
30
0.0
70
1
0
VERTEX
8
0
10
12.032
20
8.154371875
30
0
0
VERTEX
8
0
10
12.032
20
8.785628125
30
0
0
VERTEX
8
0
10
11.585628125000001
20
9.232000000000001
30
0
0
VERTEX
8
0
10
10.954371875
20
9.232000000000001
30
0
0
VERTEX
8
0
10
10.508000000000001
20
8.785628125
30
0
0
VERTEX
8
0
10
10.508000000000001
20
8.154371875
30
0
0
VERTEX
8
0
10
10.954371875
20
7.708
30
0
0
VERTEX
8
0
10
11.585628125000001
20
7.708
30
0
0
SEQEND
0
POLYLINE
66
1
8
1_copper
10
0.0
20
0.0
30
0.0
70
1
0
VERTEX
8
0
10
9.492
20
10.694371875
30
0
0
VERTEX
8
0
10
9.492
20
11.325628125
30
0
0
VERTEX
8
0
10
9.045628125
20
11.772
30
0
0
VERTEX
8
0
10
8.414371875
20
11.772
30
0
0
VERTEX
8
0
10
7.968
20
11.325628125
30
0
0
VERTEX
8
0
10
7.968
20
10.694371875
30
0
0
VERTEX
8
0
10
8.414371875
20
10.248000000000001
30
0
0
VERTEX
8
0
10
9.045628125
20
10.248000000000001
30
0
0
SEQEND
0
POLYLINE
66
1
8
1_copper
10
0.0
20
0.0
30
0.0
70
1
0
VERTEX
8
0
10
1.87394375
20
2.9753375
30
0
42
0.9063472543261978
0
VERTEX
8
0
10
1.7994343750000001
20
4.492
30
0
0
VERTEX
8
0
10
0.200565625
20
4.492
30
0
42
0.9520795017710562
0
VERTEX
8
0
10
0.200565625
20
2.968
30
0
0
VERTEX
8
0
10
1.7994343750000001
20
2.968
30
0
0
SEQEND
0
POLYLINE
66
1
8
16_copper
10
0.0
20
0.0
30
0.0
70
1
0
VERTEX
8
0
10
1.87394375
20
2.9753375
30
0
42
0.2585650878322207
0
VERTEX
8
0
10
2.4605312500000003
20
3.4252000000000002
30
0
0
VERTEX
8
0
10
5
20
3.4252000000000002
30
0
42
0.198912367379658
0
VERTEX
8
0
10
5.215525
20
3.514475
30
0
0
VERTEX
8
0
10
6.565525
20
4.8644750000000005
30
0
42
0.198912367379658
0
VERTEX
8
0
10
6.654800000000001
20
5.08
30
0
0
VERTEX
8
0
10
6.654800000000001
20
8.50375
30
0
0
VERTEX
8
0
10
8.406712500000001
20
10.2556625
30
0
0
VERTEX
8
0
10
8.414371875
20
10.248000000000001
30
0
0
VERTEX
8
0
10
9.045628125
20
10.248000000000001
30
0
0
VERTEX
8
0
10
9.492
20
10.694371875
30
0
0
VERTEX
8
0
10
9.492
20
11.325628125
30
0
0
VERTEX
8
0
10
9.045628125
20
11.772
30
0
0
VERTEX
8
0
10
8.414371875
20
11.772
30
0
0
VERTEX
8
0
10
7.968
20
11.325628125
30
0
0
VERTEX
8
0
10
7.968
20
10.694371875
30
0
0
VERTEX
8
0
10
7.9756625
20
10.6867125
30
0
0
VERTEX
8
0
10
6.134475
20
8.845525
30
0
42
0.198912367379658
0
VERTEX
8
0
10
6.0452
20
8.63
30
0
0
VERTEX
8
0
10
6.0452
20
5.20625
30
0
0
VERTEX
8
0
10
4.87375
20
4.034800000000001
30
0
0
VERTEX
8
0
10
2.4605312500000003
20
4.034800000000001
30
0
42
0.2849223807724057
0
VERTEX
8
0
10
1.7994343750000001
20
4.492
30
0
0
VERTEX
8
0
10
0.200565625
20
4.492
30
0
42
0.9520795017710562
0
VERTEX
8
0
10
0.200565625
20
2.968
30
0
0
VERTEX
8
0
10
1.7994343750000001
20
2.968
30
0
0
SEQEND
0
POLYLINE
66
1
8
1_copper
10
0.0
20
0.0
30
0.0
70
1
0
VERTEX
8
0
10
9.492
20
13.234371875
30
0
0
VERTEX
8
0
10
9.492
20
13.865628125
30
0
0
VERTEX
8
0
10
9.045628125
20
14.312000000000001
30
0
0
VERTEX
8
0
10
8.414371875
20
14.312000000000001
30
0
0
VERTEX
8
0
10
7.968
20
13.865628125
30
0
0
VERTEX
8
0
10
7.968
20
13.234371875
30
0
0
VERTEX
8
0
10
8.414371875
20
12.788
30
0
0
VERTEX
8
0
10
9.045628125
20
12.788
30
0
0
SEQEND
0
POLYLINE
66
1
8
1_copper
10
0.0
20
0.0
30
0.0
70
1
0
VERTEX
8
0
10
1.87394375
20
5.5153375
30
0
42
0.9063472543261978
0
VERTEX
8
0
10
1.7994343750000001
20
7.032
30
0
0
VERTEX
8
0
10
0.200565625
20
7.032
30
0
42
0.9520795017710562
0
VERTEX
8
0
10
0.200565625
20
5.508
30
0
0
VERTEX
8
0
10
1.7994343750000001
20
5.508
30
0
0
SEQEND
0
POLYLINE
66
1
8
16_copper
10
0.0
20
0.0
30
0.0
70
1
0
VERTEX
8
0
10
1.87394375
20
5.5153375
30
0
42
0.9063472543261978
0
VERTEX
8
0
10
1.7994343750000001
20
7.032
30
0
0
VERTEX
8
0
10
1.3048
20
7.032
30
0
0
VERTEX
8
0
10
1.3048
20
8.49375
30
0
0
VERTEX
8
0
10
3.9362500000000002
20
11.125200000000001
30
0
0
VERTEX
8
0
10
6.61
20
11.125200000000001
30
0
42
0.198912367379658
0
VERTEX
8
0
10
6.825525000000001
20
11.214475
30
0
0
VERTEX
8
0
10
8.406712500000001
20
12.7956625
30
0
0
VERTEX
8
0
10
8.414371875
20
12.788
30
0
0
VERTEX
8
0
10
9.045628125
20
12.788
30
0
0
VERTEX
8
0
10
9.492
20
13.234371875
30
0
0
VERTEX
8
0
10
9.492
20
13.865628125
30
0
0
VERTEX
8
0
10
9.045628125
20
14.312000000000001
30
0
0
VERTEX
8
0
10
8.414371875
20
14.312000000000001
30
0
0
VERTEX
8
0
10
7.968
20
13.865628125
30
0
0
VERTEX
8
0
10
7.968
20
13.234371875
30
0
0
VERTEX
8
0
10
7.9756625
20
13.226712500000001
30
0
0
VERTEX
8
0
10
6.483750000000001
20
11.7348
30
0
0
VERTEX
8
0
10
3.81
20
11.7348
30
0
42
0.198912367379658
0
VERTEX
8
0
10
3.594475
20
11.645525000000001
30
0
0
VERTEX
8
0
10
0.784475
20
8.835525
30
0
42
0.198912367379658
0
VERTEX
8
0
10
0.6952
20
8.620000000000001
30
0
0
VERTEX
8
0
10
0.6952
20
7.032
30
0
0
VERTEX
8
0
10
0.200565625
20
7.032
30
0
42
0.9520795017710562
0
VERTEX
8
0
10
0.200565625
20
5.508
30
0
0
VERTEX
8
0
10
1.7994343750000001
20
5.508
30
0
0
SEQEND
0
POLYLINE
66
1
8
1_copper
10
0.0
20
0.0
30
0.0
70
1
0
VERTEX
8
0
10
9.492
20
15.774371875
30
0
0
VERTEX
8
0
10
9.492
20
16.405628125
30
0
0
VERTEX
8
0
10
9.045628125
20
16.852
30
0
0
VERTEX
8
0
10
8.414371875
20
16.852
30
0
0
VERTEX
8
0
10
7.968
20
16.405628125
30
0
0
VERTEX
8
0
10
7.968
20
15.774371875
30
0
0
VERTEX
8
0
10
8.414371875
20
15.328000000000001
30
0
0
VERTEX
8
0
10
9.045628125
20
15.328000000000001
30
0
0
SEQEND
0
POLYLINE
66
1
8
1_copper
10
0.0
20
0.0
30
0.0
70
1
0
VERTEX
8
0
10
1.87394375
20
12.9753375
30
0
42
0.9063472543261978
0
VERTEX
8
0
10
1.7994343750000001
20
14.492
30
0
0
VERTEX
8
0
10
0.200565625
20
14.492
30
0
42
0.9520795017710562
0
VERTEX
8
0
10
0.200565625
20
12.968
30
0
0
VERTEX
8
0
10
1.7994343750000001
20
12.968
30
0
0
SEQEND
0
POLYLINE
66
1
8
16_copper
10
0.0
20
0.0
30
0.0
70
1
0
VERTEX
8
0
10
1.87394375
20
12.9753375
30
0
42
0.2585650878322207
0
VERTEX
8
0
10
2.4605312500000003
20
13.4252
30
0
0
VERTEX
8
0
10
4.84
20
13.4252
30
0
42
0.198912367379658
0
VERTEX
8
0
10
5.055525
20
13.514475000000001
30
0
0
VERTEX
8
0
10
7.32625
20
15.785200000000001
30
0
0
VERTEX
8
0
10
7.968
20
15.785200000000001
30
0
0
VERTEX
8
0
10
7.968
20
15.774371875
30
0
0
VERTEX
8
0
10
8.414371875
20
15.328000000000001
30
0
0
VERTEX
8
0
10
9.045628125
20
15.328000000000001
30
0
0
VERTEX
8
0
10
9.492
20
15.774371875
30
0
0
VERTEX
8
0
10
9.492
20
16.405628125
30
0
0
VERTEX
8
0
10
9.045628125
20
16.852
30
0
0
VERTEX
8
0
10
8.414371875
20
16.852
30
0
0
VERTEX
8
0
10
7.968
20
16.405628125
30
0
0
VERTEX
8
0
10
7.968
20
16.3948
30
0
0
VERTEX
8
0
10
7.2
20
16.3948
30
0
42
0.198912367379658
0
VERTEX
8
0
10
6.984475000000001
20
16.305525
30
0
0
VERTEX
8
0
10
4.71375
20
14.0348
30
0
0
VERTEX
8
0
10
2.4605312500000003
20
14.0348
30
0
42
0.2849223807724057
0
VERTEX
8
0
10
1.7994343750000001
20
14.492
30
0
0
VERTEX
8
0
10
0.200565625
20
14.492
30
0
42
0.9520795017710562
0
VERTEX
8
0
10
0.200565625
20
12.968
30
0
0
VERTEX
8
0
10
1.7994343750000001
20
12.968
30
0
0
SEQEND
0
POLYLINE
66
1
8
1_copper
10
0.0
20
0.0
30
0.0
70
1
0
VERTEX
8
0
10
9.492
20
18.314371875000003
30
0
0
VERTEX
8
0
10
9.492
20
18.945628125000002
30
0
0
VERTEX
8
0
10
9.045628125
20
19.392
30
0
0
VERTEX
8
0
10
8.414371875
20
19.392
30
0
0
VERTEX
8
0
10
7.968
20
18.945628125000002
30
0
0
VERTEX
8
0
10
7.968
20
18.314371875000003
30
0
0
VERTEX
8
0
10
8.414371875
20
17.868000000000002
30
0
0
VERTEX
8
0
10
9.045628125
20
17.868000000000002
30
0
0
SEQEND
0
POLYLINE
66
1
8
1_copper
10
0.0
20
0.0
30
0.0
70
1
0
VERTEX
8
0
10
1.87394375
20
15.515337500000001
30
0
42
0.9063472543261978
0
VERTEX
8
0
10
1.7994343750000001
20
17.032
30
0
0
VERTEX
8
0
10
0.200565625
20
17.032
30
0
42
0.9520795017710562
0
VERTEX
8
0
10
0.200565625
20
15.508000000000001
30
0
0
VERTEX
8
0
10
1.7994343750000001
20
15.508000000000001
30
0
0
SEQEND
0
POLYLINE
66
1
8
16_copper
10
0.0
20
0.0
30
0.0
70
1
0
VERTEX
8
0
10
1.87394375
20
15.515337500000001
30
0
42
0.49584142593315506
0
VERTEX
8
0
10
2.4586968750000002
20
16.579228125
30
0
0
VERTEX
8
0
10
6.424128125
20
18.325200000000002
30
0
0
VERTEX
8
0
10
7.968
20
18.325200000000002
30
0
0
VERTEX
8
0
10
7.968
20
18.314371875000003
30
0
0
VERTEX
8
0
10
8.414371875
20
17.868000000000002
30
0
0
VERTEX
8
0
10
9.045628125
20
17.868000000000002
30
0
0
VERTEX
8
0
10
9.492
20
18.314371875000003
30
0
0
VERTEX
8
0
10
9.492
20
18.945628125000002
30
0
0
VERTEX
8
0
10
9.045628125
20
19.392
30
0
0
VERTEX
8
0
10
8.414371875
20
19.392
30
0
0
VERTEX
8
0
10
7.968
20
18.945628125000002
30
0
0
VERTEX
8
0
10
7.968
20
18.9348
30
0
0
VERTEX
8
0
10
6.36
20
18.9348
30
0
42
0.10406318605523475
0
VERTEX
8
0
10
6.237175000000001
20
18.90895625
30
0
0
VERTEX
8
0
10
1.9315625
20
17.0132
30
0
42
0.04383440067476473
0
VERTEX
8
0
10
1.7994343750000001
20
17.032
30
0
0
VERTEX
8
0
10
0.200565625
20
17.032
30
0
42
0.9520795017710562
0
VERTEX
8
0
10
0.200565625
20
15.508000000000001
30
0
0
VERTEX
8
0
10
1.7994343750000001
20
15.508000000000001
30
0
0
SEQEND
0
POLYLINE
66
1
8
1_copper
10
0.0
20
0.0
30
0.0
70
1
0
VERTEX
8
0
10
1.87394375
20
22.975337500000002
30
0
42
0.9063472543261978
0
VERTEX
8
0
10
1.7994343750000001
20
24.492
30
0
0
VERTEX
8
0
10
0.200565625
20
24.492
30
0
42
0.9520795017710562
0
VERTEX
8
0
10
0.200565625
20
22.968
30
0
0
VERTEX
8
0
10
1.7994343750000001
20
22.968
30
0
0
SEQEND
0
POLYLINE
66
1
8
1_copper
10
0.0
20
0.0
30
0.0
70
1
0
VERTEX
8
0
10
9.492
20
20.854371875000002
30
0
0
VERTEX
8
0
10
9.492
20
21.485628125
30
0
0
VERTEX
8
0
10
9.045628125
20
21.932000000000002
30
0
0
VERTEX
8
0
10
8.414371875
20
21.932000000000002
30
0
0
VERTEX
8
0
10
7.968
20
21.485628125
30
0
0
VERTEX
8
0
10
7.968
20
20.854371875000002
30
0
0
VERTEX
8
0
10
8.414371875
20
20.408
30
0
0
VERTEX
8
0
10
9.045628125
20
20.408
30
0
0
SEQEND
0
POLYLINE
66
1
8
16_copper
10
0.0
20
0.0
30
0.0
70
1
0
VERTEX
8
0
10
9.492
20
20.854371875000002
30
0
0
VERTEX
8
0
10
9.492
20
21.485628125
30
0
0
VERTEX
8
0
10
9.045628125
20
21.932000000000002
30
0
0
VERTEX
8
0
10
8.414371875
20
21.932000000000002
30
0
0
VERTEX
8
0
10
7.968
20
21.485628125
30
0
0
VERTEX
8
0
10
7.968
20
21.474800000000002
30
0
0
VERTEX
8
0
10
6.626796875
20
21.474800000000002
30
0
0
VERTEX
8
0
10
2.44881875
20
23.398475
30
0
42
0.5370605347844501
0
VERTEX
8
0
10
1.7994343750000001
20
24.492
30
0
0
VERTEX
8
0
10
0.200565625
20
24.492
30
0
42
0.9520795017710562
0
VERTEX
8
0
10
0.200565625
20
22.968
30
0
0
VERTEX
8
0
10
1.7994343750000001
20
22.968
30
0
42
0.033026192937290574
0
VERTEX
8
0
10
1.89929375
20
22.98038125
30
0
0
VERTEX
8
0
10
6.432525
20
20.8931375
30
0
42
0.10829317856053182
0
VERTEX
8
0
10
6.5600000000000005
20
20.8652
30
0
0
VERTEX
8
0
10
7.968
20
20.8652
30
0
0
VERTEX
8
0
10
7.968
20
20.854371875000002
30
0
0
VERTEX
8
0
10
8.414371875
20
20.408
30
0
0
VERTEX
8
0
10
9.045628125
20
20.408
30
0
0
SEQEND
0
POLYLINE
66
1
8
1_copper
10
0.0
20
0.0
30
0.0
70
1
0
VERTEX
8
0
10
9.492
20
28.474371875000003
30
0
0
VERTEX
8
0
10
9.492
20
29.105628125000003
30
0
0
VERTEX
8
0
10
9.045628125
20
29.552000000000003
30
0
0
VERTEX
8
0
10
8.414371875
20
29.552000000000003
30
0
0
VERTEX
8
0
10
7.968
20
29.105628125000003
30
0
0
VERTEX
8
0
10
7.968
20
28.474371875000003
30
0
0
VERTEX
8
0
10
8.414371875
20
28.028000000000002
30
0
0
VERTEX
8
0
10
9.045628125
20
28.028000000000002
30
0
0
SEQEND
0
POLYLINE
66
1
8
1_copper
10
0.0
20
0.0
30
0.0
70
1
0
VERTEX
8
0
10
1.87394375
20
25.5153375
30
0
42
0.9063472543261978
0
VERTEX
8
0
10
1.7994343750000001
20
27.032
30
0
0
VERTEX
8
0
10
0.200565625
20
27.032
30
0
42
0.9520795017710562
0
VERTEX
8
0
10
0.200565625
20
25.508000000000003
30
0
0
VERTEX
8
0
10
1.7994343750000001
20
25.508000000000003
30
0
0
SEQEND
0
POLYLINE
66
1
8
16_copper
10
0.0
20
0.0
30
0.0
70
1
0
VERTEX
8
0
10
1.87394375
20
25.5153375
30
0
42
0.2585650878322207
0
VERTEX
8
0
10
2.4605312500000003
20
25.965200000000003
30
0
0
VERTEX
8
0
10
6.21
20
25.965200000000003
30
0
42
0.198912367379658
0
VERTEX
8
0
10
6.425525
20
26.054475
30
0
0
VERTEX
8
0
10
8.406712500000001
20
28.0356625
30
0
0
VERTEX
8
0
10
8.414371875
20
28.028000000000002
30
0
0
VERTEX
8
0
10
9.045628125
20
28.028000000000002
30
0
0
VERTEX
8
0
10
9.492
20
28.474371875000003
30
0
0
VERTEX
8
0
10
9.492
20
29.105628125000003
30
0
0
VERTEX
8
0
10
9.045628125
20
29.552000000000003
30
0
0
VERTEX
8
0
10
8.414371875
20
29.552000000000003
30
0
0
VERTEX
8
0
10
7.968
20
29.105628125000003
30
0
0
VERTEX
8
0
10
7.968
20
28.474371875000003
30
0
0
VERTEX
8
0
10
7.9756625
20
28.4667125
30
0
0
VERTEX
8
0
10
6.08375
20
26.5748
30
0
0
VERTEX
8
0
10
2.4605312500000003
20
26.5748
30
0
42
0.2849223807724057
0
VERTEX
8
0
10
1.7994343750000001
20
27.032
30
0
0
VERTEX
8
0
10
0.200565625
20
27.032
30
0
42
0.9520795017710562
0
VERTEX
8
0
10
0.200565625
20
25.508000000000003
30
0
0
VERTEX
8
0
10
1.7994343750000001
20
25.508000000000003
30
0
0
SEQEND
0
POLYLINE
66
1
8
1_copper
10
0.0
20
0.0
30
0.0
70
1
0
VERTEX
8
0
10
1.87394375
20
67.2453375
30
0
42
0.9063472543261978
0
VERTEX
8
0
10
1.7994343750000001
20
68.762
30
0
0
VERTEX
8
0
10
0.200565625
20
68.762
30
0
42
0.9520795017710562
0
VERTEX
8
0
10
0.200565625
20
67.238
30
0
0
VERTEX
8
0
10
1.7994343750000001
20
67.238
30
0
0
SEQEND
0
POLYLINE
66
1
8
1_copper
10
0.0
20
0.0
30
0.0
70
1
0
VERTEX
8
0
10
1.87394375
20
56.245337500000005
30
0
42
0.9063472543261978
0
VERTEX
8
0
10
1.7994343750000001
20
57.762
30
0
0
VERTEX
8
0
10
0.200565625
20
57.762
30
0
42
0.9520795017710562
0
VERTEX
8
0
10
0.200565625
20
56.238
30
0
0
VERTEX
8
0
10
1.7994343750000001
20
56.238
30
0
0
SEQEND
0
POLYLINE
66
1
8
1_copper
10
0.0
20
0.0
30
0.0
70
1
0
VERTEX
8
0
10
12.032
20
56.414371875
30
0
0
VERTEX
8
0
10
12.032
20
57.045628125
30
0
0
VERTEX
8
0
10
11.585628125000001
20
57.492000000000004
30
0
0
VERTEX
8
0
10
10.954371875
20
57.492000000000004
30
0
0
VERTEX
8
0
10
10.508000000000001
20
57.045628125
30
0
0
VERTEX
8
0
10
10.508000000000001
20
56.414371875
30
0
0
VERTEX
8
0
10
10.954371875
20
55.968
30
0
0
VERTEX
8
0
10
11.585628125000001
20
55.968
30
0
0
SEQEND
0
POLYLINE
66
1
8
1_copper
10
0.0
20
0.0
30
0.0
70
1
0
VERTEX
8
0
10
1.87394375
20
45.245337500000005
30
0
42
0.9063472543261978
0
VERTEX
8
0
10
1.7994343750000001
20
46.762
30
0
0
VERTEX
8
0
10
0.200565625
20
46.762
30
0
42
0.9520795017710562
0
VERTEX
8
0
10
0.200565625
20
45.238
30
0
0
VERTEX
8
0
10
1.7994343750000001
20
45.238
30
0
0
SEQEND
0
POLYLINE
66
1
8
16_copper
10
0.0
20
0.0
30
0.0
70
1
0
VERTEX
8
0
10
1.87394375
20
45.245337500000005
30
0
42
0.9063472543261978
0
VERTEX
8
0
10
1.7994343750000001
20
46.762
30
0
0
VERTEX
8
0
10
0.200565625
20
46.762
30
0
42
0.20715753287196137
0
VERTEX
8
0
10
-0.34261562500000003
20
46.493665625000006
30
0
0
VERTEX
8
0
10
-0.9652000000000001
20
47.11625
30
0
0
VERTEX
8
0
10
-0.9652000000000001
20
50.673750000000005
30
0
0
VERTEX
8
0
10
0.12625
20
51.7652
30
0
0
VERTEX
8
0
10
2.54
20
51.7652
30
0
42
0.198912367379658
0
VERTEX
8
0
10
2.755525
20
51.854475
30
0
0
VERTEX
8
0
10
4.025525
20
53.124475000000004
30
0
42
0.198912367379658
0
VERTEX
8
0
10
4.1148
20
53.34
30
0
0
VERTEX
8
0
10
4.1148
20
55.88
30
0
42
0.198912367379658
0
VERTEX
8
0
10
4.025525
20
56.095525
30
0
0
VERTEX
8
0
10
2.755525
20
57.365525000000005
30
0
42
0.198912367379658
0
VERTEX
8
0
10
2.54
20
57.454800000000006
30
0
0
VERTEX
8
0
10
2.374509375
20
57.454800000000006
30
0
42
0.22441049884486453
0
VERTEX
8
0
10
1.7994343750000001
20
57.762
30
0
0
VERTEX
8
0
10
0.200565625
20
57.762
30
0
42
0.10348750503016346
0
VERTEX
8
0
10
-0.10150625
20
57.682556250000005
30
0
0
VERTEX
8
0
10
-0.9652000000000001
20
58.54625
30
0
0
VERTEX
8
0
10
-0.9652000000000001
20
60.83375
30
0
0
VERTEX
8
0
10
0.12625
20
61.925200000000004
30
0
0
VERTEX
8
0
10
3.81
20
61.925200000000004
30
0
42
0.198912367379658
0
VERTEX
8
0
10
4.025525
20
62.014475000000004
30
0
0
VERTEX
8
0
10
5.2955250000000005
20
63.284475
30
0
42
0.198912367379658
0
VERTEX
8
0
10
5.3848
20
63.5
30
0
0
VERTEX
8
0
10
5.3848
20
66.04
30
0
42
0.198912367379658
0
VERTEX
8
0
10
5.2955250000000005
20
66.255525
30
0
0
VERTEX
8
0
10
3.335525
20
68.215525
30
0
42
0.198912367379658
0
VERTEX
8
0
10
3.12
20
68.3048
30
0
0
VERTEX
8
0
10
2.4605312500000003
20
68.3048
30
0
42
0.2849223807724057
0
VERTEX
8
0
10
1.7994343750000001
20
68.762
30
0
0
VERTEX
8
0
10
0.24905000000000002
20
68.762
30
0
0
VERTEX
8
0
10
-0.9652000000000001
20
69.97625000000001
30
0
0
VERTEX
8
0
10
-0.9652000000000001
20
72.26375
30
0
0
VERTEX
8
0
10
0.12625
20
73.35520000000001
30
0
0
VERTEX
8
0
10
6.22375
20
73.35520000000001
30
0
0
VERTEX
8
0
10
9.8552
20
69.72375000000001
30
0
0
VERTEX
8
0
10
9.8552
20
67.31
30
0
42
0.198912367379658
0
VERTEX
8
0
10
9.944475
20
67.094475
30
0
0
VERTEX
8
0
10
13.6652
20
63.37375
30
0
0
VERTEX
8
0
10
13.6652
20
59.556250000000006
30
0
0
VERTEX
8
0
10
11.593290625
20
57.484340625
30
0
0
VERTEX
8
0
10
11.585628125000001
20
57.492000000000004
30
0
0
VERTEX
8
0
10
10.954371875
20
57.492000000000004
30
0
0
VERTEX
8
0
10
10.508000000000001
20
57.045628125
30
0
0
VERTEX
8
0
10
10.508000000000001
20
56.414371875
30
0
0
VERTEX
8
0
10
10.954371875
20
55.968
30
0
0
VERTEX
8
0
10
11.585628125000001
20
55.968
30
0
0
VERTEX
8
0
10
12.032
20
56.414371875
30
0
0
VERTEX
8
0
10
12.032
20
57.045628125
30
0
0
VERTEX
8
0
10
12.024340625
20
57.053290625
30
0
0
VERTEX
8
0
10
14.185525
20
59.214475
30
0
42
0.198912367379658
0
VERTEX
8
0
10
14.2748
20
59.43
30
0
0
VERTEX
8
0
10
14.2748
20
63.5
30
0
42
0.198912367379658
0
VERTEX
8
0
10
14.185525
20
63.715525
30
0
0
VERTEX
8
0
10
10.4648
20
67.43625
30
0
0
VERTEX
8
0
10
10.4648
20
69.85000000000001
30
0
42
0.198912367379658
0
VERTEX
8
0
10
10.375525
20
70.06552500000001
30
0
0
VERTEX
8
0
10
6.565525
20
73.87552500000001
30
0
42
0.198912367379658
0
VERTEX
8
0
10
6.3500000000000005
20
73.9648
30
0
0
VERTEX
8
0
10
0
20
73.9648
30
0
42
0.198912367379658
0
VERTEX
8
0
10
-0.21552500000000002
20
73.87552500000001
30
0
0
VERTEX
8
0
10
-1.485525
20
72.605525
30
0
42
0.198912367379658
0
VERTEX
8
0
10
-1.5748
20
72.39
30
0
0
VERTEX
8
0
10
-1.5748
20
69.85000000000001
30
0
42
0.198912367379658
0
VERTEX
8
0
10
-1.485525
20
69.63447500000001
30
0
0
VERTEX
8
0
10
-0.343559375
20
68.492509375
30
0
42
0.6215255179637169
0
VERTEX
8
0
10
0.200565625
20
67.238
30
0
0
VERTEX
8
0
10
1.7994343750000001
20
67.238
30
0
42
0.2849223807724057
0
VERTEX
8
0
10
2.4605312500000003
20
67.6952
30
0
0
VERTEX
8
0
10
2.9937500000000004
20
67.6952
30
0
0
VERTEX
8
0
10
4.7752
20
65.91375000000001
30
0
0
VERTEX
8
0
10
4.7752
20
63.626250000000006
30
0
0
VERTEX
8
0
10
3.6837500000000003
20
62.534800000000004
30
0
0
VERTEX
8
0
10
0
20
62.534800000000004
30
0
42
0.198912367379658
0
VERTEX
8
0
10
-0.21552500000000002
20
62.445525
30
0
0
VERTEX
8
0
10
-1.485525
20
61.175525
30
0
42
0.198912367379658
0
VERTEX
8
0
10
-1.5748
20
60.96
30
0
0
VERTEX
8
0
10
-1.5748
20
58.42
30
0
42
0.198912367379658
0
VERTEX
8
0
10
-1.485525
20
58.204475
30
0
0
VERTEX
8
0
10
-0.49376250000000005
20
57.2127125
30
0
42
0.4844737749282474
0
VERTEX
8
0
10
0.200565625
20
56.238
30
0
0
VERTEX
8
0
10
1.7994343750000001
20
56.238
30
0
42
0.3136056721259501
0
VERTEX
8
0
10
2.48861875
20
56.770331250000005
30
0
0
VERTEX
8
0
10
3.5052000000000003
20
55.753750000000004
30
0
0
VERTEX
8
0
10
3.5052000000000003
20
53.46625
30
0
0
VERTEX
8
0
10
2.4137500000000003
20
52.3748
30
0
0
VERTEX
8
0
10
0
20
52.3748
30
0
42
0.198912367379658
0
VERTEX
8
0
10
-0.21552500000000002
20
52.285525
30
0
0
VERTEX
8
0
10
-1.485525
20
51.015525000000004
30
0
42
0.198912367379658
0
VERTEX
8
0
10
-1.5748
20
50.800000000000004
30
0
0
VERTEX
8
0
10
-1.5748
20
46.99
30
0
42
0.198912367379658
0
VERTEX
8
0
10
-1.485525
20
46.774475
30
0
0
VERTEX
8
0
10
-0.49552500000000005
20
45.784475
30
0
42
0.030845147381897614
0
VERTEX
8
0
10
-0.480321875
20
45.74298125
30
0
0
VERTEX
8
0
10
-0.451671875
20
45.673809375000005
30
0
42
0.2767373317423673
0
VERTEX
8
0
10
0.200565625
20
45.238
30
0
0
VERTEX
8
0
10
1.7994343750000001
20
45.238
30
0
0
SEQEND
0
POLYLINE
66
1
8
1_copper
10
0.0
20
0.0
30
0.0
70
1
0
VERTEX
8
0
10
1.87394375
20
69.7853375
30
0
42
0.9063472543261978
0
VERTEX
8
0
10
1.7994343750000001
20
71.302
30
0
0
VERTEX
8
0
10
0.200565625
20
71.302
30
0
42
0.9520795017710562
0
VERTEX
8
0
10
0.200565625
20
69.778
30
0
0
VERTEX
8
0
10
1.7994343750000001
20
69.778
30
0
0
SEQEND
0
POLYLINE
66
1
8
1_copper
10
0.0
20
0.0
30
0.0
70
1
0
VERTEX
8
0
10
9.492
20
48.794371875
30
0
0
VERTEX
8
0
10
9.492
20
49.425628125
30
0
0
VERTEX
8
0
10
9.045628125
20
49.872
30
0
0
VERTEX
8
0
10
8.414371875
20
49.872
30
0
0
VERTEX
8
0
10
7.968
20
49.425628125
30
0
0
VERTEX
8
0
10
7.968
20
48.794371875
30
0
0
VERTEX
8
0
10
8.414371875
20
48.348
30
0
0
VERTEX
8
0
10
9.045628125
20
48.348
30
0
0
SEQEND
0
POLYLINE
66
1
8
16_copper
10
0.0
20
0.0
30
0.0
70
1
0
VERTEX
8
0
10
9.492
20
48.794371875
30
0
0
VERTEX
8
0
10
9.492
20
49.425628125
30
0
0
VERTEX
8
0
10
9.045628125
20
49.872
30
0
0
VERTEX
8
0
10
8.414371875
20
49.872
30
0
0
VERTEX
8
0
10
8.0617125
20
49.519340625000005
30
0
0
VERTEX
8
0
10
6.654800000000001
20
50.92625
30
0
0
VERTEX
8
0
10
6.654800000000001
20
68.58
30
0
42
0.198912367379658
0
VERTEX
8
0
10
6.565525
20
68.795525
30
0
0
VERTEX
8
0
10
4.605525
20
70.755525
30
0
42
0.198912367379658
0
VERTEX
8
0
10
4.390000000000001
20
70.8448
30
0
0
VERTEX
8
0
10
2.4605312500000003
20
70.8448
30
0
42
0.2849223807724057
0
VERTEX
8
0
10
1.7994343750000001
20
71.302
30
0
0
VERTEX
8
0
10
0.200565625
20
71.302
30
0
42
0.9520795017710562
0
VERTEX
8
0
10
0.200565625
20
69.778
30
0
0
VERTEX
8
0
10
1.7994343750000001
20
69.778
30
0
42
0.2849223807724057
0
VERTEX
8
0
10
2.4605312500000003
20
70.2352
30
0
0
VERTEX
8
0
10
4.26375
20
70.2352
30
0
0
VERTEX
8
0
10
6.0452
20
68.45375
30
0
0
VERTEX
8
0
10
6.0452
20
50.800000000000004
30
0
42
0.198912367379658
0
VERTEX
8
0
10
6.134475
20
50.584475000000005
30
0
0
VERTEX
8
0
10
7.8244750000000005
20
48.894475
30
0
42
0.14120729543415989
0
VERTEX
8
0
10
7.968
20
48.794371875
30
0
0
VERTEX
8
0
10
8.414371875
20
48.348
30
0
0
VERTEX
8
0
10
9.045628125
20
48.348
30
0
0
SEQEND
0
POLYLINE
66
1
8
1_copper
10
0.0
20
0.0
30
0.0
70
1
0
VERTEX
8
0
10
1.87394375
20
58.785337500000004
30
0
42
0.9063472543261978
0
VERTEX
8
0
10
1.7994343750000001
20
60.302
30
0
0
VERTEX
8
0
10
0.200565625
20
60.302
30
0
42
0.9520795017710562
0
VERTEX
8
0
10
0.200565625
20
58.778000000000006
30
0
0
VERTEX
8
0
10
1.7994343750000001
20
58.778000000000006
30
0
0
SEQEND
0
POLYLINE
66
1
8
1_copper
10
0.0
20
0.0
30
0.0
70
1
0
VERTEX
8
0
10
9.492
20
43.714371875000005
30
0
0
VERTEX
8
0
10
9.492
20
44.345628125000005
30
0
0
VERTEX
8
0
10
9.045628125
20
44.792
30
0
0
VERTEX
8
0
10
8.414371875
20
44.792
30
0
0
VERTEX
8
0
10
7.968
20
44.345628125000005
30
0
0
VERTEX
8
0
10
7.968
20
43.714371875000005
30
0
0
VERTEX
8
0
10
8.414371875
20
43.268
30
0
0
VERTEX
8
0
10
9.045628125
20
43.268
30
0
0
SEQEND
0
POLYLINE
66
1
8
16_copper
10
0.0
20
0.0
30
0.0
70
1
0
VERTEX
8
0
10
9.492
20
43.714371875000005
30
0
0
VERTEX
8
0
10
9.492
20
44.345628125000005
30
0
0
VERTEX
8
0
10
9.045628125
20
44.792
30
0
0
VERTEX
8
0
10
8.414371875
20
44.792
30
0
0
VERTEX
8
0
10
8.0617125
20
44.439340625
30
0
0
VERTEX
8
0
10
6.654800000000001
20
45.846250000000005
30
0
0
VERTEX
8
0
10
6.654800000000001
20
48.260000000000005
30
0
42
0.198912367379658
0
VERTEX
8
0
10
6.565525
20
48.475525000000005
30
0
0
VERTEX
8
0
10
5.3848
20
49.65625
30
0
0
VERTEX
8
0
10
5.3848
20
58.42
30
0
42
0.198912367379658
0
VERTEX
8
0
10
5.2955250000000005
20
58.635525
30
0
0
VERTEX
8
0
10
4.175525
20
59.755525000000006
30
0
42
0.198912367379658
0
VERTEX
8
0
10
3.9600000000000004
20
59.8448
30
0
0
VERTEX
8
0
10
2.4605312500000003
20
59.8448
30
0
42
0.2849223807724057
0
VERTEX
8
0
10
1.7994343750000001
20
60.302
30
0
0
VERTEX
8
0
10
0.200565625
20
60.302
30
0
42
0.9520795017710562
0
VERTEX
8
0
10
0.200565625
20
58.778000000000006
30
0
0
VERTEX
8
0
10
1.7994343750000001
20
58.778000000000006
30
0
42
0.2849223807724057
0
VERTEX
8
0
10
2.4605312500000003
20
59.235200000000006
30
0
0
VERTEX
8
0
10
3.83375
20
59.235200000000006
30
0
0
VERTEX
8
0
10
4.7752
20
58.29375
30
0
0
VERTEX
8
0
10
4.7752
20
49.53
30
0
42
0.198912367379658
0
VERTEX
8
0
10
4.8644750000000005
20
49.314475
30
0
0
VERTEX
8
0
10
6.0452
20
48.13375
30
0
0
VERTEX
8
0
10
6.0452
20
45.72
30
0
42
0.198912367379658
0
VERTEX
8
0
10
6.134475
20
45.504475
30
0
0
VERTEX
8
0
10
7.8244750000000005
20
43.814475
30
0
42
0.14120729543415989
0
VERTEX
8
0
10
7.968
20
43.714371875000005
30
0
0
VERTEX
8
0
10
8.414371875
20
43.268
30
0
0
VERTEX
8
0
10
9.045628125
20
43.268
30
0
0
SEQEND
0
POLYLINE
66
1
8
1_copper
10
0.0
20
0.0
30
0.0
70
1
0
VERTEX
8
0
10
1.87394375
20
64.7053375
30
0
42
0.9063472543261978
0
VERTEX
8
0
10
1.7994343750000001
20
66.22200000000001
30
0
0
VERTEX
8
0
10
0.200565625
20
66.22200000000001
30
0
42
0.9520795017710562
0
VERTEX
8
0
10
0.200565625
20
64.69800000000001
30
0
0
VERTEX
8
0
10
1.7994343750000001
20
64.69800000000001
30
0
0
SEQEND
0
POLYLINE
66
1
8
1_copper
10
0.0
20
0.0
30
0.0
70
1
0
VERTEX
8
0
10
1.87394375
20
53.705337500000006
30
0
42
0.9063472543261978
0
VERTEX
8
0
10
1.7994343750000001
20
55.222
30
0
0
VERTEX
8
0
10
0.200565625
20
55.222
30
0
42
0.9520795017710562
0
VERTEX
8
0
10
0.200565625
20
53.698
30
0
0
VERTEX
8
0
10
1.7994343750000001
20
53.698
30
0
0
SEQEND
0
POLYLINE
66
1
8
1_copper
10
0.0
20
0.0
30
0.0
70
1
0
VERTEX
8
0
10
12.032
20
51.334371875
30
0
0
VERTEX
8
0
10
12.032
20
51.965628125
30
0
0
VERTEX
8
0
10
11.585628125000001
20
52.412
30
0
0
VERTEX
8
0
10
10.954371875
20
52.412
30
0
0
VERTEX
8
0
10
10.508000000000001
20
51.965628125
30
0
0
VERTEX
8
0
10
10.508000000000001
20
51.334371875
30
0
0
VERTEX
8
0
10
10.954371875
20
50.888000000000005
30
0
0
VERTEX
8
0
10
11.585628125000001
20
50.888000000000005
30
0
0
SEQEND
0
POLYLINE
66
1
8
1_copper
10
0.0
20
0.0
30
0.0
70
1
0
VERTEX
8
0
10
1.87394375
20
42.7053375
30
0
42
0.9063472543261978
0
VERTEX
8
0
10
1.7994343750000001
20
44.222
30
0
0
VERTEX
8
0
10
0.200565625
20
44.222
30
0
42
0.9520795017710562
0
VERTEX
8
0
10
0.200565625
20
42.698
30
0
0
VERTEX
8
0
10
1.7994343750000001
20
42.698
30
0
0
SEQEND
0
POLYLINE
66
1
8
16_copper
10
0.0
20
0.0
30
0.0
70
1
0
VERTEX
8
0
10
9.205946875
20
1.092465625
30
0
42
0.871528485248384
0
VERTEX
8
0
10
9.281071875
20
1.6914125
30
0
0
VERTEX
8
0
10
9.067456250000001
20
1.74865
30
0
0
VERTEX
8
0
10
8.51653125
20
2.066725
30
0
0
VERTEX
8
0
10
8.066725
20
2.5165312500000003
30
0
0
VERTEX
8
0
10
7.74864375
20
3.06746875
30
0
0
VERTEX
8
0
10
7.5840000000000005
20
3.6819187500000004
30
0
0
VERTEX
8
0
10
7.5840000000000005
20
4.318078125
30
0
0
VERTEX
8
0
10
7.74864375
20
4.932528125
30
0
0
VERTEX
8
0
10
8.066725
20
5.483465625
30
0
0
VERTEX
8
0
10
8.51653125
20
5.933271875
30
0
0
VERTEX
8
0
10
9.06746875
20
6.2513531250000005
30
0
0
VERTEX
8
0
10
9.681918750000001
20
6.415996875
30
0
0
VERTEX
8
0
10
10.318078125000001
20
6.415996875
30
0
0
VERTEX
8
0
10
10.932528125000001
20
6.2513531250000005
30
0
0
VERTEX
8
0
10
11.483465625000001
20
5.933271875
30
0
0
VERTEX
8
0
10
11.933271875
20
5.483465625
30
0
0
VERTEX
8
0
10
12.251353125000001
20
4.932528125
30
0
0
VERTEX
8
0
10
12.415996875000001
20
4.318078125
30
0
0
VERTEX
8
0
10
12.415996875000001
20
3.6819187500000004
30
0
0
VERTEX
8
0
10
12.251353125000001
20
3.06746875
30
0
0
VERTEX
8
0
10
11.933271875
20
2.5165312500000003
30
0
0
VERTEX
8
0
10
11.483465625000001
20
2.066725
30
0
0
VERTEX
8
0
10
10.932540625
20
1.74865
30
0
0
VERTEX
8
0
10
10.718925
20
1.6914125
30
0
42
0.8769777649979336
0
VERTEX
8
0
10
10.797812500000001
20
1.092196875
30
0
0
VERTEX
8
0
10
16.51
20
1.092196875
30
0
42
0.41421356237309503
0
VERTEX
8
0
10
16.8148
20
1.3969968750000001
30
0
0
VERTEX
8
0
10
16.8148
20
78.60300000000001
30
0
42
0.41421356237309503
0
VERTEX
8
0
10
16.51
20
78.90780000000001
30
0
0
VERTEX
8
0
10
-6.3500000000000005
20
78.90780000000001
30
0
42
0.41421356237309503
0
VERTEX
8
0
10
-6.654800000000001
20
78.60300000000001
30
0
0
VERTEX
8
0
10
-6.654800000000001
20
1.3969968750000001
30
0
42
0.41421356237309503
0
VERTEX
8
0
10
-6.3500000000000005
20
1.092196875
30
0
0
VERTEX
8
0
10
9.202184375
20
1.092196875
30
0
0
SEQEND
0
POLYLINE
66
1
8
16_copper
10
0.0
20
0.0
30
0.0
70
1
0
VERTEX
8
0
10
-0.09094062500000001
20
30.0228
30
0
0
VERTEX
8
0
10
-0.25898750000000004
20
30.09240625
30
0
0
VERTEX
8
0
10
-2.927590625
20
32.761009375
30
0
0
VERTEX
8
0
10
-2.997196875
20
32.92905625
30
0
0
VERTEX
8
0
10
-2.997196875
20
38.190940625
30
0
0
VERTEX
8
0
10
-2.927590625
20
38.358987500000005
30
0
0
VERTEX
8
0
10
-0.25898750000000004
20
41.027590625
30
0
0
VERTEX
8
0
10
-0.09094062500000001
20
41.097196875
30
0
0
VERTEX
8
0
10
2.224365625
20
41.097196875
30
0
42
0.198912367379658
0
VERTEX
8
0
10
2.4398906250000003
20
41.186471875
30
0
0
VERTEX
8
0
10
3.263525
20
42.01010625
30
0
42
0.198912367379658
0
VERTEX
8
0
10
3.3528000000000002
20
42.22563125
30
0
0
VERTEX
8
0
10
3.3528000000000002
20
43.1437125
30
0
42
0.390773470416488
0
VERTEX
8
0
10
3.07250625
20
43.446771875
30
0
0
VERTEX
8
0
10
3.055009375
20
43.44843125
30
0
42
-0.019763142531395925
0
VERTEX
8
0
10
3.0290000000000004
20
43.447165625000004
30
0
0
VERTEX
8
0
10
3.011440625
20
43.446312500000005
30
0
42
0.2919997698998953
0
VERTEX
8
0
10
2.75811875
20
43.2379
30
0
0
VERTEX
8
0
10
2.7035625000000003
20
43.0699875
30
0
0
VERTEX
8
0
10
2.630965625
20
42.927509375
30
0
0
VERTEX
8
0
10
2.53695
20
42.798109375
30
0
0
VERTEX
8
0
10
2.4238875
20
42.685046875000005
30
0
0
VERTEX
8
0
10
2.2944875000000002
20
42.59103125
30
0
0
VERTEX
8
0
10
2.152009375
20
42.518434375000005
30
0
0
VERTEX
8
0
10
1.999915625
20
42.469015625000004
30
0
0
VERTEX
8
0
10
1.841965625
20
42.444
30
0
0
VERTEX
8
0
10
1.3048125000000002
20
42.444
30
0
0
VERTEX
8
0
10
1.3048125000000002
20
42.698
30
0
0
VERTEX
8
0
10
1.7994343750000001
20
42.698
30
0
42
0.9520795017710562
0
VERTEX
8
0
10
1.7994343750000001
20
44.222
30
0
0
VERTEX
8
0
10
1.3048125000000002
20
44.222
30
0
0
VERTEX
8
0
10
1.3048125000000002
20
44.475996875
30
0
0
VERTEX
8
0
10
1.841965625
20
44.475996875
30
0
0
VERTEX
8
0
10
1.999915625
20
44.450981250000005
30
0
0
VERTEX
8
0
10
2.152009375
20
44.401562500000004
30
0
0
VERTEX
8
0
10
2.2944875000000002
20
44.328965625
30
0
0
VERTEX
8
0
10
2.4238875
20
44.234950000000005
30
0
0
VERTEX
8
0
10
2.53695
20
44.1218875
30
0
0
VERTEX
8
0
10
2.630965625
20
43.9924875
30
0
0
VERTEX
8
0
10
2.7035625000000003
20
43.850009375
30
0
0
VERTEX
8
0
10
2.75811875
20
43.682096875
30
0
42
0.854081532280671
0
VERTEX
8
0
10
3.3528000000000002
20
43.776284375
30
0
0
VERTEX
8
0
10
3.3528000000000002
20
46.674365625
30
0
42
0.19891048324821556
0
VERTEX
8
0
10
3.263528125
20
46.889890625
30
0
0
VERTEX
8
0
10
2.5008
20
47.652621875
30
0
42
0.3033507359261198
0
VERTEX
8
0
10
2.168628125
20
47.71869375
30
0
0
VERTEX
8
0
10
1.943884375
20
47.625600000000006
30
0
0
VERTEX
8
0
10
0.056115625
20
47.625600000000006
30
0
0
VERTEX
8
0
10
-0.2799625
20
47.76480625
30
0
42
0.6893584719748094
0
VERTEX
8
0
10
-0.8128000000000001
20
47.561796875
30
0
0
VERTEX
8
0
10
-0.8128000000000001
20
47.305631250000005
30
0
42
0.19891048324821556
0
VERTEX
8
0
10
-0.7235281250000001
20
47.090106250000005
30
0
0
VERTEX
8
0
10
-0.51494375
20
46.881518750000005
30
0
42
0.30334814996013887
0
VERTEX
8
0
10
-0.18277500000000002
20
46.815446875
30
0
0
VERTEX
8
0
10
0.0561125
20
46.914396875
30
0
0
VERTEX
8
0
10
1.943884375
20
46.914396875
30
0
0
VERTEX
8
0
10
2.279965625
20
46.7751875
30
0
0
VERTEX
8
0
10
2.5371875
20
46.517965625
30
0
0
VERTEX
8
0
10
2.676396875
20
46.181884375
30
0
0
VERTEX
8
0
10
2.676396875
20
45.818112500000005
30
0
0
VERTEX
8
0
10
2.5371875
20
45.482031250000006
30
0
0
VERTEX
8
0
10
2.279965625
20
45.224809375
30
0
0
VERTEX
8
0
10
1.943884375
20
45.0856
30
0
0
VERTEX
8
0
10
0.056115625
20
45.0856
30
0
0
VERTEX
8
0
10
-0.279965625
20
45.224809375
30
0
0
VERTEX
8
0
10
-0.5371875
20
45.482031250000006
30
0
0
VERTEX
8
0
10
-0.60490625
20
45.645515625
30
0
42
0.09848948651819747
0
VERTEX
8
0
10
-0.670978125
20
45.744396875
30
0
0
VERTEX
8
0
10
-1.657590625
20
46.731009375
30
0
0
VERTEX
8
0
10
-1.7271968750000002
20
46.89905625
30
0
0
VERTEX
8
0
10
-1.7271968750000002
20
50.890940625
30
0
0
VERTEX
8
0
10
-1.657590625
20
51.0589875
30
0
0
VERTEX
8
0
10
-1.486134375
20
51.23044375
30
0
0
VERTEX
8
0
10
-1.486109375
20
51.230465625
30
0
0
VERTEX
8
0
10
-0.25898750000000004
20
52.457590625
30
0
0
VERTEX
8
0
10
-0.09094062500000001
20
52.527196875
30
0
0
VERTEX
8
0
10
2.22436875
20
52.527196875
30
0
42
0.198912367379658
0
VERTEX
8
0
10
2.43989375
20
52.616471875
30
0
0
VERTEX
8
0
10
3.263525
20
53.440103125
30
0
42
0.198912367379658
0
VERTEX
8
0
10
3.3528000000000002
20
53.655628125
30
0
0
VERTEX
8
0
10
3.3528000000000002
20
54.143715625000006
30
0
42
0.3907793748893917
0
VERTEX
8
0
10
3.0725000000000002
20
54.446775
30
0
0
VERTEX
8
0
10
3.0550062500000004
20
54.448434375000005
30
0
42
-0.019758768032218037
0
VERTEX
8
0
10
3.029003125
20
54.44716875
30
0
0
VERTEX
8
0
10
3.011440625
20
54.446315625000004
30
0
42
0.2920032750357017
0
VERTEX
8
0
10
2.7581156250000003
20
54.2379
30
0
0
VERTEX
8
0
10
2.70355625
20
54.069975
30
0
0
VERTEX
8
0
10
2.630965625
20
53.927509375
30
0
0
VERTEX
8
0
10
2.53695
20
53.798109375
30
0
0
VERTEX
8
0
10
2.4238875
20
53.685046875000005
30
0
0
VERTEX
8
0
10
2.2944875000000002
20
53.59103125
30
0
0
VERTEX
8
0
10
2.152009375
20
53.518434375000005
30
0
0
VERTEX
8
0
10
1.999915625
20
53.469015625000004
30
0
0
VERTEX
8
0
10
1.841965625
20
53.444
30
0
0
VERTEX
8
0
10
1.3048125000000002
20
53.444
30
0
0
VERTEX
8
0
10
1.3048125000000002
20
53.698
30
0
0
VERTEX
8
0
10
1.7994343750000001
20
53.698
30
0
42
0.9520795017710562
0
VERTEX
8
0
10
1.7994343750000001
20
55.222
30
0
0
VERTEX
8
0
10
1.3048125000000002
20
55.222
30
0
0
VERTEX
8
0
10
1.3048125000000002
20
55.475996875
30
0
0
VERTEX
8
0
10
1.841965625
20
55.475996875
30
0
0
VERTEX
8
0
10
1.999915625
20
55.450981250000005
30
0
0
VERTEX
8
0
10
2.152009375
20
55.401562500000004
30
0
0
VERTEX
8
0
10
2.2944875000000002
20
55.328965625
30
0
0
VERTEX
8
0
10
2.4238875
20
55.234950000000005
30
0
0
VERTEX
8
0
10
2.53695
20
55.1218875
30
0
0
VERTEX
8
0
10
2.630965625
20
54.9924875
30
0
0
VERTEX
8
0
10
2.70355625
20
54.850021875
30
0
0
VERTEX
8
0
10
2.7581156250000003
20
54.682096875
30
0
42
0.8540871180066567
0
VERTEX
8
0
10
3.3528000000000002
20
54.776281250000004
30
0
0
VERTEX
8
0
10
3.3528000000000002
20
55.56436875
30
0
42
0.198912367379658
0
VERTEX
8
0
10
3.263525
20
55.77989375
30
0
0
VERTEX
8
0
10
2.7648125
20
56.27860625
30
0
42
0.41421356237309503
0
VERTEX
8
0
10
2.3337625
20
56.27860625
30
0
0
VERTEX
8
0
10
2.279965625
20
56.224809375
30
0
0
VERTEX
8
0
10
1.943884375
20
56.0856
30
0
0
VERTEX
8
0
10
0.056115625
20
56.0856
30
0
0
VERTEX
8
0
10
-0.279965625
20
56.224809375
30
0
0
VERTEX
8
0
10
-0.5371875
20
56.482031250000006
30
0
0
VERTEX
8
0
10
-0.676396875
20
56.818112500000005
30
0
0
VERTEX
8
0
10
-0.676396875
20
57.053565625000005
30
0
42
0.198912367379658
0
VERTEX
8
0
10
-0.765671875
20
57.269090625000004
30
0
0
VERTEX
8
0
10
-1.657590625
20
58.161009375000006
30
0
0
VERTEX
8
0
10
-1.7271968750000002
20
58.32905625
30
0
0
VERTEX
8
0
10
-1.7271968750000002
20
61.050940625
30
0
0
VERTEX
8
0
10
-1.657590625
20
61.218987500000004
30
0
0
VERTEX
8
0
10
-0.25898750000000004
20
62.617590625000005
30
0
0
VERTEX
8
0
10
-0.09094062500000001
20
62.687196875000005
30
0
0
VERTEX
8
0
10
3.4943656250000004
20
62.687196875000005
30
0
42
0.198912367379658
0
VERTEX
8
0
10
3.7098906250000003
20
62.776471875000006
30
0
0
VERTEX
8
0
10
4.533525
20
63.60010625
30
0
42
0.198912367379658
0
VERTEX
8
0
10
4.6228
20
63.81563125
30
0
0
VERTEX
8
0
10
4.6228
20
65.724365625
30
0
42
0.198912367379658
0
VERTEX
8
0
10
4.533525
20
65.939890625
30
0
0
VERTEX
8
0
10
3.019890625
20
67.453525
30
0
42
0.14421388048154168
0
VERTEX
8
0
10
2.868646875
20
67.53594375
30
0
0
VERTEX
8
0
10
2.85679375
20
67.537625
30
0
42
0.3098905292589715
0
VERTEX
8
0
10
2.508675
20
67.453525
30
0
0
VERTEX
8
0
10
2.2799593750000002
20
67.22480625
30
0
0
VERTEX
8
0
10
1.943884375
20
67.0856
30
0
0
VERTEX
8
0
10
0.056115625
20
67.0856
30
0
0
VERTEX
8
0
10
-0.279965625
20
67.224809375
30
0
0
VERTEX
8
0
10
-0.5371875
20
67.48203125
30
0
0
VERTEX
8
0
10
-0.676396875
20
67.8181125
30
0
0
VERTEX
8
0
10
-0.676396875
20
68.18188125
30
0
42
0.4122556099010558
0
VERTEX
8
0
10
-0.695065625
20
68.6284875
30
0
0
VERTEX
8
0
10
-1.657590625
20
69.591009375
30
0
0
VERTEX
8
0
10
-1.7271968750000002
20
69.75905625
30
0
0
VERTEX
8
0
10
-1.7271968750000002
20
72.480940625
30
0
0
VERTEX
8
0
10
-1.657590625
20
72.6489875
30
0
0
VERTEX
8
0
10
-0.25898750000000004
20
74.047590625
30
0
0
VERTEX
8
0
10
-0.09094062500000001
20
74.117196875
30
0
0
VERTEX
8
0
10
6.4409406250000005
20
74.117196875
30
0
0
VERTEX
8
0
10
6.6089875000000005
20
74.047590625
30
0
0
VERTEX
8
0
10
10.547590625
20
70.1089875
30
0
0
VERTEX
8
0
10
10.617196875000001
20
69.94094062500001
30
0
0
VERTEX
8
0
10
10.617196875000001
20
67.62563125
30
0
42
0.198912367379658
0
VERTEX
8
0
10
10.706471875
20
67.41010625
30
0
0
VERTEX
8
0
10
14.357590625
20
63.7589875
30
0
0
VERTEX
8
0
10
14.427196875
20
63.590940625
30
0
0
VERTEX
8
0
10
14.427196875
20
59.339056250000006
30
0
0
VERTEX
8
0
10
14.357590625
20
59.171009375000004
30
0
0
VERTEX
8
0
10
14.1861125
20
58.999531250000004
30
0
0
VERTEX
8
0
10
12.273671875
20
57.08709375
30
0
42
0.198912367379658
0
VERTEX
8
0
10
12.184396875000001
20
56.87156875
30
0
0
VERTEX
8
0
10
12.184396875000001
20
56.351240625
30
0
0
VERTEX
8
0
10
11.64875625
20
55.8156
30
0
0
VERTEX
8
0
10
10.891240625
20
55.8156
30
0
0
VERTEX
8
0
10
10.3556
20
56.351240625
30
0
0
VERTEX
8
0
10
10.3556
20
57.108756250000006
30
0
0
VERTEX
8
0
10
10.891240625
20
57.644396875000005
30
0
0
VERTEX
8
0
10
11.41156875
20
57.644396875000005
30
0
42
0.198912367379658
0
VERTEX
8
0
10
11.62709375
20
57.733671875000006
30
0
0
VERTEX
8
0
10
13.423525000000001
20
59.53010625
30
0
42
0.198912367379658
0
VERTEX
8
0
10
13.5128
20
59.74563125
30
0
0
VERTEX
8
0
10
13.5128
20
63.184365625000005
30
0
42
0.198912367379658
0
VERTEX
8
0
10
13.423525000000001
20
63.399890625000005
30
0
0
VERTEX
8
0
10
9.772406250000001
20
67.051009375
30
0
0
VERTEX
8
0
10
9.7028
20
67.21905625000001
30
0
0
VERTEX
8
0
10
9.7028
20
69.534365625
30
0
42
0.198912367379658
0
VERTEX
8
0
10
9.613525000000001
20
69.749890625
30
0
0
VERTEX
8
0
10
6.249890625
20
73.11352500000001
30
0
42
0.198912367379658
0
VERTEX
8
0
10
6.034365625
20
73.20280000000001
30
0
0
VERTEX
8
0
10
0.31563125000000003
20
73.20280000000001
30
0
42
0.198912367379658
0
VERTEX
8
0
10
0.10010625000000001
20
73.11352500000001
30
0
0
VERTEX
8
0
10
-0.7235250000000001
20
72.289890625
30
0
42
0.198912367379658
0
VERTEX
8
0
10
-0.8128000000000001
20
72.074365625
30
0
0
VERTEX
8
0
10
-0.8128000000000001
20
71.51820000000001
30
0
42
0.5954963115132768
0
VERTEX
8
0
10
-0.341571875
20
71.26284687500001
30
0
0
VERTEX
8
0
10
-0.33258125
20
71.269671875
30
0
42
0.0532730119082373
0
VERTEX
8
0
10
-0.2799625
20
71.315190625
30
0
0
VERTEX
8
0
10
0.056115625
20
71.454396875
30
0
0
VERTEX
8
0
10
1.943884375
20
71.454396875
30
0
0
VERTEX
8
0
10
2.279965625
20
71.31518750000001
30
0
0
VERTEX
8
0
10
2.50868125
20
71.086471875
30
0
42
0.198912367379658
0
VERTEX
8
0
10
2.72420625
20
70.997196875
30
0
0
VERTEX
8
0
10
4.480940625000001
20
70.997196875
30
0
0
VERTEX
8
0
10
4.6489875000000005
20
70.92759062500001
30
0
0
VERTEX
8
0
10
6.737590625
20
68.8389875
30
0
0
VERTEX
8
0
10
6.807196875000001
20
68.670940625
30
0
0
VERTEX
8
0
10
6.807196875000001
20
51.11563125
30
0
42
0.198912367379658
0
VERTEX
8
0
10
6.8964718750000005
20
50.90010625
30
0
0
VERTEX
8
0
10
7.8461875
20
49.950390625000004
30
0
42
0.514766217098132
0
VERTEX
8
0
10
8.351246875000001
20
50.024396875
30
0
0
VERTEX
8
0
10
9.10875625
20
50.024396875
30
0
0
VERTEX
8
0
10
9.644396875
20
49.48875625
30
0
0
VERTEX
8
0
10
9.644396875
20
48.731240625000005
30
0
0
VERTEX
8
0
10
9.10875625
20
48.1956
30
0
0
VERTEX
8
0
10
8.351240625
20
48.1956
30
0
0
VERTEX
8
0
10
7.898015625
20
48.648825
30
0
42
0.035822270772197594
0
VERTEX
8
0
10
7.865046875
20
48.677384375
30
0
0
VERTEX
8
0
10
7.850209375
20
48.68690625
30
0
42
0.059342856567458524
0
VERTEX
8
0
10
7.781015625
20
48.7224
30
0
0
VERTEX
8
0
10
6.1339125
20
50.369503125
30
0
42
0.7991246142691586
0
VERTEX
8
0
10
5.537196875
20
50.230371875
30
0
0
VERTEX
8
0
10
5.537196875
20
49.845631250000004
30
0
42
0.198912367379658
0
VERTEX
8
0
10
5.626471875
20
49.630106250000004
30
0
0
VERTEX
8
0
10
6.737590625
20
48.5189875
30
0
0
VERTEX
8
0
10
6.807196875000001
20
48.350940625
30
0
0
VERTEX
8
0
10
6.807196875000001
20
46.03563125
30
0
42
0.198912367379658
0
VERTEX
8
0
10
6.8964718750000005
20
45.82010625
30
0
0
VERTEX
8
0
10
7.8461875
20
44.870390625
30
0
42
0.514766217098132
0
VERTEX
8
0
10
8.351246875000001
20
44.944396875
30
0
0
VERTEX
8
0
10
9.10875625
20
44.944396875
30
0
0
VERTEX
8
0
10
9.644396875
20
44.40875625
30
0
0
VERTEX
8
0
10
9.644396875
20
43.651240625
30
0
0
VERTEX
8
0
10
9.10875625
20
43.1156
30
0
0
VERTEX
8
0
10
8.351240625
20
43.1156
30
0
0
VERTEX
8
0
10
7.898015625
20
43.568825000000004
30
0
42
0.035822270772197594
0
VERTEX
8
0
10
7.865046875
20
43.597384375000004
30
0
0
VERTEX
8
0
10
7.850209375
20
43.60690625
30
0
42
0.059342856567458524
0
VERTEX
8
0
10
7.781015625
20
43.6424
30
0
0
VERTEX
8
0
10
5.96240625
20
45.461009375
30
0
0
VERTEX
8
0
10
5.8928
20
45.629056250000005
30
0
0
VERTEX
8
0
10
5.8928
20
47.944365625
30
0
42
0.198912367379658
0
VERTEX
8
0
10
5.8035250000000005
20
48.159890625
30
0
0
VERTEX
8
0
10
4.69240625
20
49.271009375000006
30
0
0
VERTEX
8
0
10
4.6228
20
49.43905625
30
0
0
VERTEX
8
0
10
4.6228
20
52.770371875
30
0
42
0.6450797966003604
0
VERTEX
8
0
10
4.1168281250000005
20
52.999353125000006
30
0
0
VERTEX
8
0
10
4.110365625
20
52.9928
30
0
42
0.09313492441893462
0
VERTEX
8
0
10
4.02610625
20
52.909528125
30
0
0
VERTEX
8
0
10
2.970465625
20
51.8538875
30
0
0
VERTEX
8
0
10
2.970446875
20
51.853865625000005
30
0
0
VERTEX
8
0
10
2.7989875
20
51.68240625
30
0
0
VERTEX
8
0
10
2.630940625
20
51.6128
30
0
0
VERTEX
8
0
10
0.31563125000000003
20
51.6128
30
0
42
0.198912367379658
0
VERTEX
8
0
10
0.10010625000000001
20
51.523525
30
0
0
VERTEX
8
0
10
-0.7235250000000001
20
50.69989375
30
0
42
0.198912367379658
0
VERTEX
8
0
10
-0.8128000000000001
20
50.48436875
30
0
0
VERTEX
8
0
10
-0.8128000000000001
20
49.5182
30
0
42
0.5954963115132768
0
VERTEX
8
0
10
-0.341571875
20
49.262846875
30
0
0
VERTEX
8
0
10
-0.33258125
20
49.269671875
30
0
42
0.0532730119082373
0
VERTEX
8
0
10
-0.2799625
20
49.315190625
30
0
0
VERTEX
8
0
10
0.056115625
20
49.454396875
30
0
0
VERTEX
8
0
10
1.943884375
20
49.454396875
30
0
0
VERTEX
8
0
10
2.279965625
20
49.3151875
30
0
0
VERTEX
8
0
10
2.5371875
20
49.057965625
30
0
0
VERTEX
8
0
10
2.619046875
20
48.860340625
30
0
42
0.09848948651819747
0
VERTEX
8
0
10
2.68511875
20
48.761459375
30
0
0
VERTEX
8
0
10
4.197590625
20
47.248987500000005
30
0
0
VERTEX
8
0
10
4.267196875
20
47.080940625000004
30
0
0
VERTEX
8
0
10
4.267196875
20
41.81905625
30
0
0
VERTEX
8
0
10
4.197590625
20
41.651009375
30
0
0
VERTEX
8
0
10
2.7989875
20
40.25240625
30
0
0
VERTEX
8
0
10
2.630940625
20
40.1828
30
0
0
VERTEX
8
0
10
0.31563125000000003
20
40.1828
30
0
42
0.198912367379658
0
VERTEX
8
0
10
0.10010625000000001
20
40.093525
30
0
0
VERTEX
8
0
10
-1.993525
20
37.999890625
30
0
42
0.198912367379658
0
VERTEX
8
0
10
-2.0828
20
37.784365625
30
0
0
VERTEX
8
0
10
-2.0828
20
33.33563125
30
0
42
0.198912367379658
0
VERTEX
8
0
10
-1.993525
20
33.12010625
30
0
0
VERTEX
8
0
10
0.10010625000000001
20
31.026471875000002
30
0
42
0.198912367379658
0
VERTEX
8
0
10
0.31563125000000003
20
30.937196875
30
0
0
VERTEX
8
0
10
5.02436875
20
30.937196875
30
0
42
0.198912367379658
0
VERTEX
8
0
10
5.23989375
20
31.026471875000002
30
0
0
VERTEX
8
0
10
7.726325
20
33.51290625
30
0
42
0.198912367379658
0
VERTEX
8
0
10
7.815600000000001
20
33.72843125
30
0
0
VERTEX
8
0
10
7.815600000000001
20
34.24875625
30
0
0
VERTEX
8
0
10
8.351240625
20
34.784396875
30
0
0
VERTEX
8
0
10
9.10875625
20
34.784396875
30
0
0
VERTEX
8
0
10
9.644396875
20
34.24875625
30
0
0
VERTEX
8
0
10
9.644396875
20
33.491240625
30
0
0
VERTEX
8
0
10
9.10875625
20
32.955600000000004
30
0
0
VERTEX
8
0
10
8.588431250000001
20
32.955600000000004
30
0
42
0.1989085990908129
0
VERTEX
8
0
10
8.372909375
20
32.866328125
30
0
0
VERTEX
8
0
10
8.271303125000001
20
32.764725
30
0
42
0.6681838811705005
0
VERTEX
8
0
10
8.486825
20
32.244396875
30
0
0
VERTEX
8
0
10
9.10875625
20
32.244396875
30
0
0
VERTEX
8
0
10
9.644396875
20
31.70875625
30
0
0
VERTEX
8
0
10
9.644396875
20
30.951240625
30
0
0
VERTEX
8
0
10
9.10875625
20
30.4156
30
0
0
VERTEX
8
0
10
8.351240625
20
30.4156
30
0
0
VERTEX
8
0
10
7.815600000000001
20
30.951240625
30
0
0
VERTEX
8
0
10
7.815600000000001
20
31.573171875
30
0
42
0.6681786379192989
0
VERTEX
8
0
10
7.295275
20
31.788696875000003
30
0
0
VERTEX
8
0
10
5.770465625
20
30.263887500000003
30
0
0
VERTEX
8
0
10
5.770446875
20
30.263865625
30
0
0
VERTEX
8
0
10
5.598987500000001
20
30.09240625
30
0
0
VERTEX
8
0
10
5.430940625
20
30.0228
30
0
0
SEQEND
0
POLYLINE
66
1
8
16_copper
10
0.0
20
0.0
30
0.0
70
1
0
VERTEX
8
0
10
-0.5637625
20
65.7648125
30
0
0
VERTEX
8
0
10
-0.6851312500000001
20
65.88618125
30
0
0
VERTEX
8
0
10
-0.6309656250000001
20
65.99248750000001
30
0
0
VERTEX
8
0
10
-0.53695
20
66.1218875
30
0
0
VERTEX
8
0
10
-0.42388750000000003
20
66.23495
30
0
0
VERTEX
8
0
10
-0.2944875
20
66.32896562500001
30
0
0
VERTEX
8
0
10
-0.152009375
20
66.4015625
30
0
0
VERTEX
8
0
10
8.4375e-5
20
66.45098125
30
0
0
VERTEX
8
0
10
0.15803125
20
66.475996875
30
0
0
VERTEX
8
0
10
0.6951812500000001
20
66.475996875
30
0
0
VERTEX
8
0
10
0.6951812500000001
20
66.22200000000001
30
0
0
VERTEX
8
0
10
0.200565625
20
66.22200000000001
30
0
0
VERTEX
8
0
10
0.12605625
20
66.2146625
30
0
0
VERTEX
8
0
10
0.052625000000000005
20
66.20005625
30
0
0
VERTEX
8
0
10
-0.01901875
20
66.17832187500001
30
0
0
VERTEX
8
0
10
-0.08819062500000001
20
66.14967187500001
30
0
0
VERTEX
8
0
10
-0.15421875000000002
20
66.114378125
30
0
0
VERTEX
8
0
10
-0.21646875000000002
20
66.07278125
30
0
0
VERTEX
8
0
10
-0.27434375
20
66.025284375
30
0
0
VERTEX
8
0
10
-0.327284375
20
65.97234375000001
30
0
0
VERTEX
8
0
10
-0.37478125
20
65.91446875
30
0
0
VERTEX
8
0
10
-0.41637812500000004
20
65.85221875
30
0
0
VERTEX
8
0
10
-0.451671875
20
65.786190625
30
0
0
VERTEX
8
0
10
-0.460525
20
65.7648125
30
0
0
SEQEND
0
POLYLINE
66
1
8
16_copper
10
0.0
20
0.0
30
0.0
70
1
0
VERTEX
8
0
10
2.460525
20
65.7648125
30
0
42
0.28491743106590933
0
VERTEX
8
0
10
1.7994343750000001
20
66.22200000000001
30
0
0
VERTEX
8
0
10
1.3048125000000002
20
66.22200000000001
30
0
0
VERTEX
8
0
10
1.3048125000000002
20
66.475996875
30
0
0
VERTEX
8
0
10
1.841965625
20
66.475996875
30
0
0
VERTEX
8
0
10
1.999915625
20
66.45098125
30
0
0
VERTEX
8
0
10
2.152009375
20
66.4015625
30
0
0
VERTEX
8
0
10
2.2944875000000002
20
66.32896562500001
30
0
0
VERTEX
8
0
10
2.4238875
20
66.23495
30
0
0
VERTEX
8
0
10
2.53695
20
66.1218875
30
0
0
VERTEX
8
0
10
2.630965625
20
65.99248750000001
30
0
0
VERTEX
8
0
10
2.7035625000000003
20
65.850009375
30
0
0
VERTEX
8
0
10
2.73124375
20
65.7648125
30
0
0
SEQEND
0
POLYLINE
66
1
8
16_copper
10
0.0
20
0.0
30
0.0
70
1
0
VERTEX
8
0
10
0.15803125
20
64.444
30
0
0
VERTEX
8
0
10
8.4375e-5
20
64.469015625
30
0
0
VERTEX
8
0
10
-0.152009375
20
64.518434375
30
0
0
VERTEX
8
0
10
-0.2944875
20
64.59103125
30
0
0
VERTEX
8
0
10
-0.42388750000000003
20
64.685046875
30
0
0
VERTEX
8
0
10
-0.53695
20
64.79810937500001
30
0
0
VERTEX
8
0
10
-0.6309656250000001
20
64.927509375
30
0
0
VERTEX
8
0
10
-0.7035625
20
65.0699875
30
0
0
VERTEX
8
0
10
-0.7312437500000001
20
65.15518125
30
0
0
VERTEX
8
0
10
-0.460525
20
65.15518125
30
0
42
0.28491539948031575
0
VERTEX
8
0
10
0.200565625
20
64.69800000000001
30
0
0
VERTEX
8
0
10
0.6951812500000001
20
64.69800000000001
30
0
0
VERTEX
8
0
10
0.6951812500000001
20
64.444
30
0
0
SEQEND
0
POLYLINE
66
1
8
16_copper
10
0.0
20
0.0
30
0.0
70
1
0
VERTEX
8
0
10
1.3048125000000002
20
64.444
30
0
0
VERTEX
8
0
10
1.3048125000000002
20
64.69800000000001
30
0
0
VERTEX
8
0
10
1.7994343750000001
20
64.69800000000001
30
0
42
0.28491539948031575
0
VERTEX
8
0
10
2.460525
20
65.15518125
30
0
0
VERTEX
8
0
10
2.73124375
20
65.15518125
30
0
0
VERTEX
8
0
10
2.7035625000000003
20
65.0699875
30
0
0
VERTEX
8
0
10
2.630965625
20
64.927509375
30
0
0
VERTEX
8
0
10
2.53695
20
64.79810937500001
30
0
0
VERTEX
8
0
10
2.4238875
20
64.685046875
30
0
0
VERTEX
8
0
10
2.2944875000000002
20
64.59103125
30
0
0
VERTEX
8
0
10
2.152009375
20
64.518434375
30
0
0
VERTEX
8
0
10
1.999915625
20
64.469015625
30
0
0
VERTEX
8
0
10
1.841965625
20
64.444
30
0
0
SEQEND
0
POLYLINE
66
1
8
16_copper
10
0.0
20
0.0
30
0.0
70
1
0
VERTEX
8
0
10
9.681918750000001
20
59.584
30
0
0
VERTEX
8
0
10
9.06746875
20
59.74864375
30
0
0
VERTEX
8
0
10
8.51653125
20
60.066725000000005
30
0
0
VERTEX
8
0
10
8.066725
20
60.51653125
30
0
0
VERTEX
8
0
10
7.74864375
20
61.06746875
30
0
0
VERTEX
8
0
10
7.5840000000000005
20
61.68191875
30
0
0
VERTEX
8
0
10
7.5840000000000005
20
62.318078125
30
0
0
VERTEX
8
0
10
7.74864375
20
62.932528125000005
30
0
0
VERTEX
8
0
10
8.066725
20
63.483465625
30
0
0
VERTEX
8
0
10
8.51653125
20
63.933271875
30
0
0
VERTEX
8
0
10
9.06746875
20
64.25135312500001
30
0
0
VERTEX
8
0
10
9.681918750000001
20
64.415996875
30
0
0
VERTEX
8
0
10
10.318078125000001
20
64.415996875
30
0
0
VERTEX
8
0
10
10.932528125000001
20
64.25135312500001
30
0
0
VERTEX
8
0
10
11.483465625000001
20
63.933271875
30
0
0
VERTEX
8
0
10
11.933271875
20
63.483465625
30
0
0
VERTEX
8
0
10
12.251353125000001
20
62.932528125000005
30
0
0
VERTEX
8
0
10
12.415996875000001
20
62.318078125
30
0
0
VERTEX
8
0
10
12.415996875000001
20
61.68191875
30
0
0
VERTEX
8
0
10
12.251353125000001
20
61.06746875
30
0
0
VERTEX
8
0
10
11.933271875
20
60.51653125
30
0
0
VERTEX
8
0
10
11.483465625000001
20
60.066725000000005
30
0
0
VERTEX
8
0
10
10.932528125000001
20
59.74864375
30
0
0
VERTEX
8
0
10
10.318078125000001
20
59.584
30
0
0
SEQEND
0
POLYLINE
66
1
8
16_copper
10
0.0
20
0.0
30
0.0
70
1
0
VERTEX
8
0
10
8.351240625
20
55.8156
30
0
0
VERTEX
8
0
10
7.815600000000001
20
56.351240625
30
0
0
VERTEX
8
0
10
7.815600000000001
20
57.108756250000006
30
0
0
VERTEX
8
0
10
8.351240625
20
57.644396875000005
30
0
0
VERTEX
8
0
10
9.10875625
20
57.644396875000005
30
0
0
VERTEX
8
0
10
9.644396875
20
57.108756250000006
30
0
0
VERTEX
8
0
10
9.644396875
20
56.351240625
30
0
0
VERTEX
8
0
10
9.10875625
20
55.8156
30
0
0
SEQEND
0
POLYLINE
66
1
8
16_copper
10
0.0
20
0.0
30
0.0
70
1
0
VERTEX
8
0
10
-0.7312437500000001
20
54.764812500000005
30
0
0
VERTEX
8
0
10
-0.7035625
20
54.850009375000006
30
0
0
VERTEX
8
0
10
-0.6309656250000001
20
54.9924875
30
0
0
VERTEX
8
0
10
-0.53695
20
55.1218875
30
0
0
VERTEX
8
0
10
-0.42388750000000003
20
55.234950000000005
30
0
0
VERTEX
8
0
10
-0.2944875
20
55.328965625
30
0
0
VERTEX
8
0
10
-0.152009375
20
55.401562500000004
30
0
0
VERTEX
8
0
10
8.4375e-5
20
55.450981250000005
30
0
0
VERTEX
8
0
10
0.15803125
20
55.475996875
30
0
0
VERTEX
8
0
10
0.6951812500000001
20
55.475996875
30
0
0
VERTEX
8
0
10
0.6951812500000001
20
55.222
30
0
0
VERTEX
8
0
10
0.200565625
20
55.222
30
0
0
VERTEX
8
0
10
0.12605625
20
55.2146625
30
0
0
VERTEX
8
0
10
0.052625000000000005
20
55.20005625
30
0
0
VERTEX
8
0
10
-0.01901875
20
55.178321875
30
0
0
VERTEX
8
0
10
-0.08819062500000001
20
55.149671875
30
0
0
VERTEX
8
0
10
-0.15421875000000002
20
55.114378125
30
0
0
VERTEX
8
0
10
-0.21646875000000002
20
55.072781250000006
30
0
0
VERTEX
8
0
10
-0.27434375
20
55.025284375000005
30
0
0
VERTEX
8
0
10
-0.327284375
20
54.97234375
30
0
0
VERTEX
8
0
10
-0.37478125
20
54.914468750000005
30
0
0
VERTEX
8
0
10
-0.41637812500000004
20
54.852218750000006
30
0
0
VERTEX
8
0
10
-0.451671875
20
54.786190625
30
0
0
VERTEX
8
0
10
-0.460525
20
54.764812500000005
30
0
0
SEQEND
0
POLYLINE
66
1
8
16_copper
10
0.0
20
0.0
30
0.0
70
1
0
VERTEX
8
0
10
10.891240625
20
53.275600000000004
30
0
0
VERTEX
8
0
10
10.3556
20
53.811240625
30
0
0
VERTEX
8
0
10
10.3556
20
54.56875625
30
0
0
VERTEX
8
0
10
10.891240625
20
55.104396875000006
30
0
0
VERTEX
8
0
10
11.64875625
20
55.104396875000006
30
0
0
VERTEX
8
0
10
12.184396875000001
20
54.56875625
30
0
0
VERTEX
8
0
10
12.184396875000001
20
53.811240625
30
0
0
VERTEX
8
0
10
11.64875625
20
53.275600000000004
30
0
0
SEQEND
0
POLYLINE
66
1
8
16_copper
10
0.0
20
0.0
30
0.0
70
1
0
VERTEX
8
0
10
8.351240625
20
53.275600000000004
30
0
0
VERTEX
8
0
10
7.815600000000001
20
53.811240625
30
0
0
VERTEX
8
0
10
7.815600000000001
20
54.56875625
30
0
0
VERTEX
8
0
10
8.351240625
20
55.104396875000006
30
0
0
VERTEX
8
0
10
9.10875625
20
55.104396875000006
30
0
0
VERTEX
8
0
10
9.644396875
20
54.56875625
30
0
0
VERTEX
8
0
10
9.644396875
20
53.811240625
30
0
0
VERTEX
8
0
10
9.10875625
20
53.275600000000004
30
0
0
SEQEND
0
POLYLINE
66
1
8
16_copper
10
0.0
20
0.0
30
0.0
70
1
0
VERTEX
8
0
10
0.15803125
20
53.444
30
0
0
VERTEX
8
0
10
8.4375e-5
20
53.469015625000004
30
0
0
VERTEX
8
0
10
-0.152009375
20
53.518434375000005
30
0
0
VERTEX
8
0
10
-0.2944875
20
53.59103125
30
0
0
VERTEX
8
0
10
-0.42388750000000003
20
53.685046875000005
30
0
0
VERTEX
8
0
10
-0.53695
20
53.798109375
30
0
0
VERTEX
8
0
10
-0.6309656250000001
20
53.927509375
30
0
0
VERTEX
8
0
10
-0.7035625
20
54.0699875
30
0
0
VERTEX
8
0
10
-0.7312437500000001
20
54.155181250000005
30
0
0
VERTEX
8
0
10
-0.460525
20
54.155181250000005
30
0
42
0.28491539948031575
0
VERTEX
8
0
10
0.200565625
20
53.698
30
0
0
VERTEX
8
0
10
0.6951812500000001
20
53.698
30
0
0
VERTEX
8
0
10
0.6951812500000001
20
53.444
30
0
0
SEQEND
0
POLYLINE
66
1
8
16_copper
10
0.0
20
0.0
30
0.0
70
1
0
VERTEX
8
0
10
12.032
20
51.9548125
30
0
0
VERTEX
8
0
10
12.032
20
51.965628125
30
0
0
VERTEX
8
0
10
11.585628125000001
20
52.412
30
0
0
VERTEX
8
0
10
11.5748125
20
52.412
30
0
0
VERTEX
8
0
10
11.5748125
20
52.665996875000005
30
0
0
VERTEX
8
0
10
11.690840625
20
52.665996875000005
30
0
0
VERTEX
8
0
10
12.285996875
20
52.070840625
30
0
0
VERTEX
8
0
10
12.285996875
20
51.9548125
30
0
0
SEQEND
0
POLYLINE
66
1
8
16_copper
10
0.0
20
0.0
30
0.0
70
1
0
VERTEX
8
0
10
10.254000000000001
20
51.9548125
30
0
0
VERTEX
8
0
10
10.254000000000001
20
52.070840625
30
0
0
VERTEX
8
0
10
10.84915625
20
52.665996875000005
30
0
0
VERTEX
8
0
10
10.96518125
20
52.665996875000005
30
0
0
VERTEX
8
0
10
10.96518125
20
52.412
30
0
0
VERTEX
8
0
10
10.954371875
20
52.412
30
0
0
VERTEX
8
0
10
10.508000000000001
20
51.965628125
30
0
0
VERTEX
8
0
10
10.508000000000001
20
51.9548125
30
0
0
SEQEND
0
POLYLINE
66
1
8
16_copper
10
0.0
20
0.0
30
0.0
70
1
0
VERTEX
8
0
10
8.351240625
20
50.735600000000005
30
0
0
VERTEX
8
0
10
7.815600000000001
20
51.271240625000004
30
0
0
VERTEX
8
0
10
7.815600000000001
20
52.02875625
30
0
0
VERTEX
8
0
10
8.351240625
20
52.564396875
30
0
0
VERTEX
8
0
10
9.10875625
20
52.564396875
30
0
0
VERTEX
8
0
10
9.644396875
20
52.02875625
30
0
0
VERTEX
8
0
10
9.644396875
20
51.271240625000004
30
0
0
VERTEX
8
0
10
9.10875625
20
50.735600000000005
30
0
0
SEQEND
0
POLYLINE
66
1
8
16_copper
10
0.0
20
0.0
30
0.0
70
1
0
VERTEX
8
0
10
10.84915625
20
50.634
30
0
0
VERTEX
8
0
10
10.254000000000001
20
51.22915625
30
0
0
VERTEX
8
0
10
10.254000000000001
20
51.34518125
30
0
0
VERTEX
8
0
10
10.508000000000001
20
51.34518125
30
0
0
VERTEX
8
0
10
10.508000000000001
20
51.334371875
30
0
0
VERTEX
8
0
10
10.954371875
20
50.888000000000005
30
0
0
VERTEX
8
0
10
10.96518125
20
50.888000000000005
30
0
0
VERTEX
8
0
10
10.96518125
20
50.634
30
0
0
SEQEND
0
POLYLINE
66
1
8
16_copper
10
0.0
20
0.0
30
0.0
70
1
0
VERTEX
8
0
10
11.5748125
20
50.634
30
0
0
VERTEX
8
0
10
11.5748125
20
50.888000000000005
30
0
0
VERTEX
8
0
10
11.585628125000001
20
50.888000000000005
30
0
0
VERTEX
8
0
10
12.032
20
51.334371875
30
0
0
VERTEX
8
0
10
12.032
20
51.34518125
30
0
0
VERTEX
8
0
10
12.285996875
20
51.34518125
30
0
0
VERTEX
8
0
10
12.285996875
20
51.22915625
30
0
0
VERTEX
8
0
10
11.690840625
20
50.634
30
0
0
SEQEND
0
POLYLINE
66
1
8
16_copper
10
0.0
20
0.0
30
0.0
70
1
0
VERTEX
8
0
10
10.891240625
20
48.1956
30
0
0
VERTEX
8
0
10
10.3556
20
48.731240625000005
30
0
0
VERTEX
8
0
10
10.3556
20
49.48875625
30
0
0
VERTEX
8
0
10
10.891240625
20
50.024396875
30
0
0
VERTEX
8
0
10
11.64875625
20
50.024396875
30
0
0
VERTEX
8
0
10
12.184396875000001
20
49.48875625
30
0
0
VERTEX
8
0
10
12.184396875000001
20
48.731240625000005
30
0
0
VERTEX
8
0
10
11.64875625
20
48.1956
30
0
0
SEQEND
0
POLYLINE
66
1
8
16_copper
10
0.0
20
0.0
30
0.0
70
1
0
VERTEX
8
0
10
10.891240625
20
45.6556
30
0
0
VERTEX
8
0
10
10.3556
20
46.191240625
30
0
0
VERTEX
8
0
10
10.3556
20
46.94875625
30
0
0
VERTEX
8
0
10
10.891240625
20
47.484396875
30
0
0
VERTEX
8
0
10
11.64875625
20
47.484396875
30
0
0
VERTEX
8
0
10
12.184396875000001
20
46.94875625
30
0
0
VERTEX
8
0
10
12.184396875000001
20
46.191240625
30
0
0
VERTEX
8
0
10
11.64875625
20
45.6556
30
0
0
SEQEND
0
POLYLINE
66
1
8
16_copper
10
0.0
20
0.0
30
0.0
70
1
0
VERTEX
8
0
10
8.351240625
20
45.6556
30
0
0
VERTEX
8
0
10
7.815600000000001
20
46.191240625
30
0
0
VERTEX
8
0
10
7.815600000000001
20
46.94875625
30
0
0
VERTEX
8
0
10
8.351240625
20
47.484396875
30
0
0
VERTEX
8
0
10
9.10875625
20
47.484396875
30
0
0
VERTEX
8
0
10
9.644396875
20
46.94875625
30
0
0
VERTEX
8
0
10
9.644396875
20
46.191240625
30
0
0
VERTEX
8
0
10
9.10875625
20
45.6556
30
0
0
SEQEND
0
POLYLINE
66
1
8
16_copper
10
0.0
20
0.0
30
0.0
70
1
0
VERTEX
8
0
10
10.891240625
20
43.1156
30
0
0
VERTEX
8
0
10
10.3556
20
43.651240625
30
0
0
VERTEX
8
0
10
10.3556
20
44.40875625
30
0
0
VERTEX
8
0
10
10.891240625
20
44.944396875
30
0
0
VERTEX
8
0
10
11.64875625
20
44.944396875
30
0
0
VERTEX
8
0
10
12.184396875000001
20
44.40875625
30
0
0
VERTEX
8
0
10
12.184396875000001
20
43.651240625
30
0
0
VERTEX
8
0
10
11.64875625
20
43.1156
30
0
0
SEQEND
0
POLYLINE
66
1
8
16_copper
10
0.0
20
0.0
30
0.0
70
1
0
VERTEX
8
0
10
-0.7312437500000001
20
43.764812500000005
30
0
0
VERTEX
8
0
10
-0.7035625
20
43.850009375
30
0
0
VERTEX
8
0
10
-0.6309656250000001
20
43.9924875
30
0
0
VERTEX
8
0
10
-0.53695
20
44.1218875
30
0
0
VERTEX
8
0
10
-0.42388750000000003
20
44.234950000000005
30
0
0
VERTEX
8
0
10
-0.2944875
20
44.328965625
30
0
0
VERTEX
8
0
10
-0.152009375
20
44.401562500000004
30
0
0
VERTEX
8
0
10
8.4375e-5
20
44.450981250000005
30
0
0
VERTEX
8
0
10
0.15803125
20
44.475996875
30
0
0
VERTEX
8
0
10
0.6951812500000001
20
44.475996875
30
0
0
VERTEX
8
0
10
0.6951812500000001
20
44.222
30
0
0
VERTEX
8
0
10
0.200565625
20
44.222
30
0
0
VERTEX
8
0
10
0.12605625
20
44.2146625
30
0
0
VERTEX
8
0
10
0.052625000000000005
20
44.20005625
30
0
0
VERTEX
8
0
10
-0.01901875
20
44.178321875
30
0
0
VERTEX
8
0
10
-0.08819062500000001
20
44.149671875
30
0
0
VERTEX
8
0
10
-0.15421875000000002
20
44.114378125
30
0
0
VERTEX
8
0
10
-0.21646875000000002
20
44.072781250000006
30
0
0
VERTEX
8
0
10
-0.27434375
20
44.025284375000005
30
0
0
VERTEX
8
0
10
-0.327284375
20
43.97234375
30
0
0
VERTEX
8
0
10
-0.37478125
20
43.914468750000005
30
0
0
VERTEX
8
0
10
-0.41637812500000004
20
43.85221875
30
0
0
VERTEX
8
0
10
-0.451671875
20
43.786190625
30
0
0
VERTEX
8
0
10
-0.460525
20
43.764812500000005
30
0
0
SEQEND
0
POLYLINE
66
1
8
16_copper
10
0.0
20
0.0
30
0.0
70
1
0
VERTEX
8
0
10
0.15803125
20
42.444
30
0
0
VERTEX
8
0
10
8.4375e-5
20
42.469015625000004
30
0
0
VERTEX
8
0
10
-0.152009375
20
42.518434375000005
30
0
0
VERTEX
8
0
10
-0.2944875
20
42.59103125
30
0
0
VERTEX
8
0
10
-0.42388750000000003
20
42.685046875000005
30
0
0
VERTEX
8
0
10
-0.53695
20
42.798109375
30
0
0
VERTEX
8
0
10
-0.5929593750000001
20
42.8752
30
0
0
VERTEX
8
0
10
-0.2505625
20
42.8752
30
0
42
0.16314742205910374
0
VERTEX
8
0
10
0.200565625
20
42.698
30
0
0
VERTEX
8
0
10
0.6951812500000001
20
42.698
30
0
0
VERTEX
8
0
10
0.6951812500000001
20
42.444
30
0
0
SEQEND
0
POLYLINE
66
1
8
16_copper
10
0.0
20
0.0
30
0.0
70
1
0
VERTEX
8
0
10
0.056115625
20
35.3556
30
0
0
VERTEX
8
0
10
-0.279965625
20
35.494809375
30
0
0
VERTEX
8
0
10
-0.5371875
20
35.75203125
30
0
0
VERTEX
8
0
10
-0.676396875
20
36.0881125
30
0
0
VERTEX
8
0
10
-0.676396875
20
36.451884375
30
0
0
VERTEX
8
0
10
-0.5371875
20
36.787965625
30
0
0
VERTEX
8
0
10
-0.279965625
20
37.045187500000004
30
0
0
VERTEX
8
0
10
0.056115625
20
37.184396875000004
30
0
0
VERTEX
8
0
10
1.943884375
20
37.184396875000004
30
0
42
0.32939980129775875
0
VERTEX
8
0
10
2.30280625
20
37.2393875
30
0
0
VERTEX
8
0
10
6.941009375
20
41.877590625
30
0
0
VERTEX
8
0
10
7.10905625
20
41.947196875
30
0
0
VERTEX
8
0
10
7.76779375
20
41.947196875
30
0
42
0.19891425151245895
0
VERTEX
8
0
10
7.983321875000001
20
42.036471875000004
30
0
0
VERTEX
8
0
10
8.35124375
20
42.404396875
30
0
0
VERTEX
8
0
10
9.10875625
20
42.404396875
30
0
0
VERTEX
8
0
10
9.644396875
20
41.868756250000004
30
0
0
VERTEX
8
0
10
9.644396875
20
41.111240625
30
0
0
VERTEX
8
0
10
9.10875625
20
40.5756
30
0
0
VERTEX
8
0
10
8.35124375
20
40.5756
30
0
0
VERTEX
8
0
10
7.983321875000001
20
40.943525
30
0
42
0.19891425151245895
0
VERTEX
8
0
10
7.76779375
20
41.0328
30
0
0
VERTEX
8
0
10
7.51563125
20
41.0328
30
0
42
0.198912367379658
0
VERTEX
8
0
10
7.300106250000001
20
40.943525
30
0
0
VERTEX
8
0
10
2.7656718750000002
20
36.409090625000005
30
0
42
0.198912367379658
0
VERTEX
8
0
10
2.676396875
20
36.193565625000005
30
0
0
VERTEX
8
0
10
2.676396875
20
36.0881125
30
0
0
VERTEX
8
0
10
2.5371875
20
35.75203125
30
0
0
VERTEX
8
0
10
2.279965625
20
35.494809375
30
0
0
VERTEX
8
0
10
1.943884375
20
35.3556
30
0
0
SEQEND
0
POLYLINE
66
1
8
16_copper
10
0.0
20
0.0
30
0.0
70
1
0
VERTEX
8
0
10
10.891240625
20
40.5756
30
0
0
VERTEX
8
0
10
10.3556
20
41.111240625
30
0
0
VERTEX
8
0
10
10.3556
20
41.868756250000004
30
0
0
VERTEX
8
0
10
10.891240625
20
42.404396875
30
0
0
VERTEX
8
0
10
11.64875625
20
42.404396875
30
0
0
VERTEX
8
0
10
12.184396875000001
20
41.868756250000004
30
0
0
VERTEX
8
0
10
12.184396875000001
20
41.111240625
30
0
0
VERTEX
8
0
10
11.64875625
20
40.5756
30
0
0
SEQEND
0
POLYLINE
66
1
8
16_copper
10
0.0
20
0.0
30
0.0
70
1
0
VERTEX
8
0
10
10.891240625
20
38.0356
30
0
0
VERTEX
8
0
10
10.3556
20
38.571240625
30
0
0
VERTEX
8
0
10
10.3556
20
39.328756250000005
30
0
0
VERTEX
8
0
10
10.891240625
20
39.864396875000004
30
0
0
VERTEX
8
0
10
11.64875625
20
39.864396875000004
30
0
0
VERTEX
8
0
10
12.184396875000001
20
39.328756250000005
30
0
0
VERTEX
8
0
10
12.184396875000001
20
38.571240625
30
0
0
VERTEX
8
0
10
11.64875625
20
38.0356
30
0
0
SEQEND
0
POLYLINE
66
1
8
16_copper
10
0.0
20
0.0
30
0.0
70
1
0
VERTEX
8
0
10
0.056115625
20
32.8156
30
0
0
VERTEX
8
0
10
-0.279965625
20
32.954809375
30
0
0
VERTEX
8
0
10
-0.5371875
20
33.21203125
30
0
0
VERTEX
8
0
10
-0.676396875
20
33.5481125
30
0
0
VERTEX
8
0
10
-0.676396875
20
33.911884375
30
0
0
VERTEX
8
0
10
-0.5371875
20
34.247965625
30
0
0
VERTEX
8
0
10
-0.279965625
20
34.5051875
30
0
0
VERTEX
8
0
10
0.056115625
20
34.644396875
30
0
0
VERTEX
8
0
10
1.943884375
20
34.644396875
30
0
0
VERTEX
8
0
10
2.2799593750000002
20
34.505190625000004
30
0
0
VERTEX
8
0
10
2.508675
20
34.276471875
30
0
42
0.19891425151245895
0
VERTEX
8
0
10
2.7242031250000003
20
34.187196875000005
30
0
0
VERTEX
8
0
10
4.204365625
20
34.187196875000005
30
0
42
0.198912367379658
0
VERTEX
8
0
10
4.419890625
20
34.276471875
30
0
0
VERTEX
8
0
10
5.933525
20
35.79010625
30
0
42
0.198912367379658
0
VERTEX
8
0
10
6.0228
20
36.00563125
30
0
0
VERTEX
8
0
10
6.0228
20
36.790940625000005
30
0
0
VERTEX
8
0
10
6.092406250000001
20
36.9589875
30
0
0
VERTEX
8
0
10
7.726325
20
38.59290625
30
0
42
0.198912367379658
0
VERTEX
8
0
10
7.815600000000001
20
38.808431250000005
30
0
0
VERTEX
8
0
10
7.815600000000001
20
39.328756250000005
30
0
0
VERTEX
8
0
10
8.351240625
20
39.864396875000004
30
0
0
VERTEX
8
0
10
9.10875625
20
39.864396875000004
30
0
0
VERTEX
8
0
10
9.644396875
20
39.328756250000005
30
0
0
VERTEX
8
0
10
9.644396875
20
38.571240625
30
0
0
VERTEX
8
0
10
9.10875625
20
38.0356
30
0
0
VERTEX
8
0
10
8.588431250000001
20
38.0356
30
0
42
0.1989085990908129
0
VERTEX
8
0
10
8.372909375
20
37.946328125
30
0
0
VERTEX
8
0
10
8.271303125000001
20
37.844725000000004
30
0
42
0.6681838811705005
0
VERTEX
8
0
10
8.486825
20
37.324396875000005
30
0
0
VERTEX
8
0
10
9.10875625
20
37.324396875000005
30
0
0
VERTEX
8
0
10
9.644396875
20
36.78875625
30
0
0
VERTEX
8
0
10
9.644396875
20
36.031240625
30
0
0
VERTEX
8
0
10
9.10875625
20
35.4956
30
0
0
VERTEX
8
0
10
8.351240625
20
35.4956
30
0
0
VERTEX
8
0
10
7.815600000000001
20
36.031240625
30
0
0
VERTEX
8
0
10
7.815600000000001
20
36.653171875000005
30
0
42
0.6681812595227191
0
VERTEX
8
0
10
7.295271875
20
36.868696875000005
30
0
0
VERTEX
8
0
10
7.02646875
20
36.599890625
30
0
42
0.19891048324821556
0
VERTEX
8
0
10
6.937196875000001
20
36.384365625
30
0
0
VERTEX
8
0
10
6.937196875000001
20
35.599056250000004
30
0
0
VERTEX
8
0
10
6.867590625
20
35.431009375
30
0
0
VERTEX
8
0
10
4.7789875
20
33.34240625
30
0
0
VERTEX
8
0
10
4.6109406250000005
20
33.272800000000004
30
0
0
VERTEX
8
0
10
2.7242031250000003
20
33.272800000000004
30
0
42
0.19891425151245895
0
VERTEX
8
0
10
2.508675
20
33.183525
30
0
0
VERTEX
8
0
10
2.2799593750000002
20
32.954806250000004
30
0
0
VERTEX
8
0
10
1.943884375
20
32.8156
30
0
0
SEQEND
0
POLYLINE
66
1
8
16_copper
10
0.0
20
0.0
30
0.0
70
1
0
VERTEX
8
0
10
10.891240625
20
35.4956
30
0
0
VERTEX
8
0
10
10.3556
20
36.031240625
30
0
0
VERTEX
8
0
10
10.3556
20
36.78875625
30
0
0
VERTEX
8
0
10
10.891240625
20
37.324396875000005
30
0
0
VERTEX
8
0
10
11.64875625
20
37.324396875000005
30
0
0
VERTEX
8
0
10
12.184396875000001
20
36.78875625
30
0
0
VERTEX
8
0
10
12.184396875000001
20
36.031240625
30
0
0
VERTEX
8
0
10
11.64875625
20
35.4956
30
0
0
SEQEND
0
POLYLINE
66
1
8
16_copper
10
0.0
20
0.0
30
0.0
70
1
0
VERTEX
8
0
10
10.891240625
20
32.955600000000004
30
0
0
VERTEX
8
0
10
10.3556
20
33.491240625
30
0
0
VERTEX
8
0
10
10.3556
20
34.24875625
30
0
0
VERTEX
8
0
10
10.891240625
20
34.784396875
30
0
0
VERTEX
8
0
10
11.64875625
20
34.784396875
30
0
0
VERTEX
8
0
10
12.184396875000001
20
34.24875625
30
0
0
VERTEX
8
0
10
12.184396875000001
20
33.491240625
30
0
0
VERTEX
8
0
10
11.64875625
20
32.955600000000004
30
0
0
SEQEND
0
POLYLINE
66
1
8
16_copper
10
0.0
20
0.0
30
0.0
70
1
0
VERTEX
8
0
10
10.891240625
20
30.4156
30
0
0
VERTEX
8
0
10
10.3556
20
30.951240625
30
0
0
VERTEX
8
0
10
10.3556
20
31.70875625
30
0
0
VERTEX
8
0
10
10.891240625
20
32.244396875
30
0
0
VERTEX
8
0
10
11.64875625
20
32.244396875
30
0
0
VERTEX
8
0
10
12.184396875000001
20
31.70875625
30
0
0
VERTEX
8
0
10
12.184396875000001
20
30.951240625
30
0
0
VERTEX
8
0
10
11.64875625
20
30.4156
30
0
0
SEQEND
0
POLYLINE
66
1
8
16_copper
10
0.0
20
0.0
30
0.0
70
1
0
VERTEX
8
0
10
10.891240625
20
27.875600000000002
30
0
0
VERTEX
8
0
10
10.3556
20
28.411240625
30
0
0
VERTEX
8
0
10
10.3556
20
29.16875625
30
0
0
VERTEX
8
0
10
10.891240625
20
29.704396875
30
0
0
VERTEX
8
0
10
11.64875625
20
29.704396875
30
0
0
VERTEX
8
0
10
12.184396875000001
20
29.16875625
30
0
0
VERTEX
8
0
10
12.184396875000001
20
28.411240625
30
0
0
VERTEX
8
0
10
11.64875625
20
27.875600000000002
30
0
0
SEQEND
0
POLYLINE
66
1
8
16_copper
10
0.0
20
0.0
30
0.0
70
1
0
VERTEX
8
0
10
8.351240625
20
25.3356
30
0
0
VERTEX
8
0
10
7.815600000000001
20
25.871240625000002
30
0
0
VERTEX
8
0
10
7.815600000000001
20
26.493171875
30
0
42
0.6681812595227191
0
VERTEX
8
0
10
7.295271875
20
26.708696875
30
0
0
VERTEX
8
0
10
6.6404625
20
26.053884375000003
30
0
0
VERTEX
8
0
10
6.64044375
20
26.0538625
30
0
0
VERTEX
8
0
10
6.4689875
20
25.882406250000003
30
0
0
VERTEX
8
0
10
6.300940625
20
25.812800000000003
30
0
0
VERTEX
8
0
10
2.72420625
20
25.812800000000003
30
0
42
0.198912367379658
0
VERTEX
8
0
10
2.50868125
20
25.723525000000002
30
0
0
VERTEX
8
0
10
2.279965625
20
25.494809375000003
30
0
0
VERTEX
8
0
10
1.943884375
20
25.355600000000003
30
0
0
VERTEX
8
0
10
0.056115625
20
25.355600000000003
30
0
0
VERTEX
8
0
10
-0.279965625
20
25.494809375000003
30
0
0
VERTEX
8
0
10
-0.5371875
20
25.75203125
30
0
0
VERTEX
8
0
10
-0.676396875
20
26.0881125
30
0
0
VERTEX
8
0
10
-0.676396875
20
26.451884375000002
30
0
0
VERTEX
8
0
10
-0.5371875
20
26.787965625000002
30
0
0
VERTEX
8
0
10
-0.279965625
20
27.0451875
30
0
0
VERTEX
8
0
10
0.056115625
20
27.184396875
30
0
0
VERTEX
8
0
10
1.943884375
20
27.184396875
30
0
0
VERTEX
8
0
10
2.279965625
20
27.0451875
30
0
0
VERTEX
8
0
10
2.50868125
20
26.816471875
30
0
42
0.198912367379658
0
VERTEX
8
0
10
2.72420625
20
26.727196875
30
0
0
VERTEX
8
0
10
5.894365625000001
20
26.727196875
30
0
42
0.198912367379658
0
VERTEX
8
0
10
6.109890625
20
26.816471875
30
0
0
VERTEX
8
0
10
7.726325
20
28.432903125000003
30
0
42
0.198912367379658
0
VERTEX
8
0
10
7.815600000000001
20
28.648428125000002
30
0
0
VERTEX
8
0
10
7.815600000000001
20
29.16875625
30
0
0
VERTEX
8
0
10
8.351240625
20
29.704396875
30
0
0
VERTEX
8
0
10
9.10875625
20
29.704396875
30
0
0
VERTEX
8
0
10
9.644396875
20
29.16875625
30
0
0
VERTEX
8
0
10
9.644396875
20
28.411240625
30
0
0
VERTEX
8
0
10
9.10875625
20
27.875600000000002
30
0
0
VERTEX
8
0
10
8.588428125
20
27.875600000000002
30
0
42
0.198912367379658
0
VERTEX
8
0
10
8.372903125
20
27.786325
30
0
0
VERTEX
8
0
10
8.2713
20
27.684721875
30
0
42
0.6681786379192989
0
VERTEX
8
0
10
8.486825
20
27.164396875
30
0
0
VERTEX
8
0
10
9.10875625
20
27.164396875
30
0
0
VERTEX
8
0
10
9.644396875
20
26.628756250000002
30
0
0
VERTEX
8
0
10
9.644396875
20
25.871240625000002
30
0
0
VERTEX
8
0
10
9.10875625
20
25.3356
30
0
0
SEQEND
0
POLYLINE
66
1
8
16_copper
10
0.0
20
0.0
30
0.0
70
1
0
VERTEX
8
0
10
10.891240625
20
25.3356
30
0
0
VERTEX
8
0
10
10.3556
20
25.871240625000002
30
0
0
VERTEX
8
0
10
10.3556
20
26.628756250000002
30
0
0
VERTEX
8
0
10
10.891240625
20
27.164396875
30
0
0
VERTEX
8
0
10
11.64875625
20
27.164396875
30
0
0
VERTEX
8
0
10
12.184396875000001
20
26.628756250000002
30
0
0
VERTEX
8
0
10
12.184396875000001
20
25.871240625000002
30
0
0
VERTEX
8
0
10
11.64875625
20
25.3356
30
0
0
SEQEND
0
POLYLINE
66
1
8
16_copper
10
0.0
20
0.0
30
0.0
70
1
0
VERTEX
8
0
10
8.351240625
20
20.2556
30
0
0
VERTEX
8
0
10
7.983315625
20
20.623525
30
0
42
0.198912367379658
0
VERTEX
8
0
10
7.767790625
20
20.7128
30
0
0
VERTEX
8
0
10
6.6962625000000005
20
20.7128
30
0
0
VERTEX
8
0
10
6.6845875
20
20.711962500000002
30
0
0
VERTEX
8
0
10
6.672840625
20
20.7119
30
0
42
0.09972655448602588
0
VERTEX
8
0
10
6.545215625
20
20.7128
30
0
0
VERTEX
8
0
10
6.4598
20
20.7128
30
0
42
0.0781452800708637
0
VERTEX
8
0
10
6.3714031250000005
20
20.75325
30
0
0
VERTEX
8
0
10
6.2852250000000005
20
20.78894375
30
0
42
0.03797605662449709
0
VERTEX
8
0
10
6.24500625
20
20.811696875000003
30
0
0
VERTEX
8
0
10
1.9534562500000001
20
22.7876625
30
0
42
0.10829317856053182
0
VERTEX
8
0
10
1.8259812500000001
20
22.8156
30
0
0
VERTEX
8
0
10
0.056115625
20
22.8156
30
0
0
VERTEX
8
0
10
-0.279965625
20
22.954809375
30
0
0
VERTEX
8
0
10
-0.5371875
20
23.212031250000003
30
0
0
VERTEX
8
0
10
-0.676396875
20
23.548112500000002
30
0
0
VERTEX
8
0
10
-0.676396875
20
23.911884375
30
0
0
VERTEX
8
0
10
-0.5371875
20
24.247965625000003
30
0
0
VERTEX
8
0
10
-0.279965625
20
24.5051875
30
0
0
VERTEX
8
0
10
0.056115625
20
24.644396875
30
0
0
VERTEX
8
0
10
1.943884375
20
24.644396875
30
0
0
VERTEX
8
0
10
2.279965625
20
24.5051875
30
0
0
VERTEX
8
0
10
2.5371875
20
24.247965625000003
30
0
0
VERTEX
8
0
10
2.676396875
20
23.911884375
30
0
0
VERTEX
8
0
10
2.676396875
20
23.656681250000002
30
0
42
0.2927869835278692
0
VERTEX
8
0
10
2.853721875
20
23.379818750000002
30
0
0
VERTEX
8
0
10
6.599525000000001
20
21.655134375
30
0
42
0.10829317856053182
0
VERTEX
8
0
10
6.727
20
21.627196875000003
30
0
0
VERTEX
8
0
10
7.767790625
20
21.627196875000003
30
0
42
0.198912367379658
0
VERTEX
8
0
10
7.983315625
20
21.716471875
30
0
0
VERTEX
8
0
10
8.351240625
20
22.084396875
30
0
0
VERTEX
8
0
10
9.10875625
20
22.084396875
30
0
0
VERTEX
8
0
10
9.644396875
20
21.54875625
30
0
0
VERTEX
8
0
10
9.644396875
20
20.791240625
30
0
0
VERTEX
8
0
10
9.10875625
20
20.2556
30
0
0
SEQEND
0
POLYLINE
66
1
8
16_copper
10
0.0
20
0.0
30
0.0
70
1
0
VERTEX
8
0
10
10.891240625
20
22.7956
30
0
0
VERTEX
8
0
10
10.3556
20
23.331240625
30
0
0
VERTEX
8
0
10
10.3556
20
24.08875625
30
0
0
VERTEX
8
0
10
10.891240625
20
24.624396875000002
30
0
0
VERTEX
8
0
10
11.64875625
20
24.624396875000002
30
0
0
VERTEX
8
0
10
12.184396875000001
20
24.08875625
30
0
0
VERTEX
8
0
10
12.184396875000001
20
23.331240625
30
0
0
VERTEX
8
0
10
11.64875625
20
22.7956
30
0
0
SEQEND
0
POLYLINE
66
1
8
16_copper
10
0.0
20
0.0
30
0.0
70
1
0
VERTEX
8
0
10
8.351240625
20
22.7956
30
0
0
VERTEX
8
0
10
7.815600000000001
20
23.331240625
30
0
0
VERTEX
8
0
10
7.815600000000001
20
24.08875625
30
0
0
VERTEX
8
0
10
8.351240625
20
24.624396875000002
30
0
0
VERTEX
8
0
10
9.10875625
20
24.624396875000002
30
0
0
VERTEX
8
0
10
9.644396875
20
24.08875625
30
0
0
VERTEX
8
0
10
9.644396875
20
23.331240625
30
0
0
VERTEX
8
0
10
9.10875625
20
22.7956
30
0
0
SEQEND
0
POLYLINE
66
1
8
16_copper
10
0.0
20
0.0
30
0.0
70
1
0
VERTEX
8
0
10
10.891240625
20
20.2556
30
0
0
VERTEX
8
0
10
10.3556
20
20.791240625
30
0
0
VERTEX
8
0
10
10.3556
20
21.54875625
30
0
0
VERTEX
8
0
10
10.891240625
20
22.084396875
30
0
0
VERTEX
8
0
10
11.64875625
20
22.084396875
30
0
0
VERTEX
8
0
10
12.184396875000001
20
21.54875625
30
0
0
VERTEX
8
0
10
12.184396875000001
20
20.791240625
30
0
0
VERTEX
8
0
10
11.64875625
20
20.2556
30
0
0
SEQEND
0
POLYLINE
66
1
8
16_copper
10
0.0
20
0.0
30
0.0
70
1
0
VERTEX
8
0
10
10.891240625
20
17.715600000000002
30
0
0
VERTEX
8
0
10
10.3556
20
18.251240625
30
0
0
VERTEX
8
0
10
10.3556
20
19.00875625
30
0
0
VERTEX
8
0
10
10.891240625
20
19.544396875
30
0
0
VERTEX
8
0
10
11.64875625
20
19.544396875
30
0
0
VERTEX
8
0
10
12.184396875000001
20
19.00875625
30
0
0
VERTEX
8
0
10
12.184396875000001
20
18.251240625
30
0
0
VERTEX
8
0
10
11.64875625
20
17.715600000000002
30
0
0
SEQEND
0
POLYLINE
66
1
8
16_copper
10
0.0
20
0.0
30
0.0
70
1
0
VERTEX
8
0
10
0.056115625
20
15.3556
30
0
0
VERTEX
8
0
10
-0.279965625
20
15.494809375
30
0
0
VERTEX
8
0
10
-0.5371875
20
15.75203125
30
0
0
VERTEX
8
0
10
-0.676396875
20
16.0881125
30
0
0
VERTEX
8
0
10
-0.676396875
20
16.451884375000002
30
0
0
VERTEX
8
0
10
-0.5371875
20
16.787965625000002
30
0
0
VERTEX
8
0
10
-0.279965625
20
17.0451875
30
0
0
VERTEX
8
0
10
0.056115625
20
17.184396875
30
0
0
VERTEX
8
0
10
1.878059375
20
17.184396875
30
0
42
0.10406318605523475
0
VERTEX
8
0
10
2.000884375
20
17.210240625
30
0
0
VERTEX
8
0
10
6.0450187500000006
20
18.990865625
30
0
0
VERTEX
8
0
10
6.0576187500000005
20
18.997528125000002
30
0
0
VERTEX
8
0
10
6.07061875
20
19.003600000000002
30
0
42
0.09638013860345113
0
VERTEX
8
0
10
6.183484375
20
19.05183125
30
0
0
VERTEX
8
0
10
6.263800000000001
20
19.087196875
30
0
42
0.07579361056940434
0
VERTEX
8
0
10
6.3583468750000005
20
19.087271875000003
30
0
0
VERTEX
8
0
10
6.4662218750000005
20
19.089650000000002
30
0
42
0.03014876418168461
0
VERTEX
8
0
10
6.5028500000000005
20
19.087196875
30
0
0
VERTEX
8
0
10
7.767790625
20
19.087196875
30
0
42
0.198912367379658
0
VERTEX
8
0
10
7.983315625
20
19.176471875
30
0
0
VERTEX
8
0
10
8.351240625
20
19.544396875
30
0
0
VERTEX
8
0
10
9.10875625
20
19.544396875
30
0
0
VERTEX
8
0
10
9.644396875
20
19.00875625
30
0
0
VERTEX
8
0
10
9.644396875
20
18.251240625
30
0
0
VERTEX
8
0
10
9.10875625
20
17.715600000000002
30
0
0
VERTEX
8
0
10
8.351240625
20
17.715600000000002
30
0
0
VERTEX
8
0
10
7.983315625
20
18.083525
30
0
42
0.198912367379658
0
VERTEX
8
0
10
7.767790625
20
18.172800000000002
30
0
0
VERTEX
8
0
10
6.520325000000001
20
18.172800000000002
30
0
42
0.10406318605523475
0
VERTEX
8
0
10
6.3975
20
18.146956250000002
30
0
0
VERTEX
8
0
10
2.858371875
20
16.588684375
30
0
42
0.2973339786220909
0
VERTEX
8
0
10
2.676396875
20
16.309728125
30
0
0
VERTEX
8
0
10
2.676396875
20
16.0881125
30
0
0
VERTEX
8
0
10
2.5371875
20
15.75203125
30
0
0
VERTEX
8
0
10
2.279965625
20
15.494809375
30
0
0
VERTEX
8
0
10
1.943884375
20
15.3556
30
0
0
SEQEND
0
POLYLINE
66
1
8
16_copper
10
0.0
20
0.0
30
0.0
70
1
0
VERTEX
8
0
10
0.056115625
20
12.8156
30
0
0
VERTEX
8
0
10
-0.279965625
20
12.954809375
30
0
0
VERTEX
8
0
10
-0.5371875
20
13.21203125
30
0
0
VERTEX
8
0
10
-0.676396875
20
13.5481125
30
0
0
VERTEX
8
0
10
-0.676396875
20
13.911884375000001
30
0
0
VERTEX
8
0
10
-0.5371875
20
14.247965625
30
0
0
VERTEX
8
0
10
-0.279965625
20
14.5051875
30
0
0
VERTEX
8
0
10
0.056115625
20
14.644396875
30
0
0
VERTEX
8
0
10
1.943884375
20
14.644396875
30
0
0
VERTEX
8
0
10
2.279965625
20
14.5051875
30
0
0
VERTEX
8
0
10
2.50868125
20
14.276471875
30
0
42
0.198912367379658
0
VERTEX
8
0
10
2.72420625
20
14.187196875000001
30
0
0
VERTEX
8
0
10
4.524365625000001
20
14.187196875000001
30
0
42
0.198912367379658
0
VERTEX
8
0
10
4.739890625
20
14.276471875
30
0
0
VERTEX
8
0
10
6.941009375
20
16.477590625
30
0
0
VERTEX
8
0
10
7.10905625
20
16.547196875
30
0
0
VERTEX
8
0
10
7.767790625
20
16.547196875
30
0
42
0.198912367379658
0
VERTEX
8
0
10
7.983315625
20
16.636471875
30
0
0
VERTEX
8
0
10
8.351240625
20
17.004396875
30
0
0
VERTEX
8
0
10
9.10875625
20
17.004396875
30
0
0
VERTEX
8
0
10
9.644396875
20
16.468756250000002
30
0
0
VERTEX
8
0
10
9.644396875
20
15.711240625
30
0
0
VERTEX
8
0
10
9.10875625
20
15.175600000000001
30
0
0
VERTEX
8
0
10
8.351240625
20
15.175600000000001
30
0
0
VERTEX
8
0
10
7.983315625
20
15.543525
30
0
42
0.198912367379658
0
VERTEX
8
0
10
7.767790625
20
15.632800000000001
30
0
0
VERTEX
8
0
10
7.51563125
20
15.632800000000001
30
0
42
0.198912367379658
0
VERTEX
8
0
10
7.300106250000001
20
15.543525
30
0
0
VERTEX
8
0
10
5.098987500000001
20
13.34240625
30
0
0
VERTEX
8
0
10
4.930940625
20
13.2728
30
0
0
VERTEX
8
0
10
2.72420625
20
13.2728
30
0
42
0.198912367379658
0
VERTEX
8
0
10
2.50868125
20
13.183525000000001
30
0
0
VERTEX
8
0
10
2.279965625
20
12.954809375
30
0
0
VERTEX
8
0
10
1.943884375
20
12.8156
30
0
0
SEQEND
0
POLYLINE
66
1
8
16_copper
10
0.0
20
0.0
30
0.0
70
1
0
VERTEX
8
0
10
10.891240625
20
15.175600000000001
30
0
0
VERTEX
8
0
10
10.3556
20
15.711240625
30
0
0
VERTEX
8
0
10
10.3556
20
16.468756250000002
30
0
0
VERTEX
8
0
10
10.891240625
20
17.004396875
30
0
0
VERTEX
8
0
10
11.64875625
20
17.004396875
30
0
0
VERTEX
8
0
10
12.184396875000001
20
16.468756250000002
30
0
0
VERTEX
8
0
10
12.184396875000001
20
15.711240625
30
0
0
VERTEX
8
0
10
11.64875625
20
15.175600000000001
30
0
0
SEQEND
0
POLYLINE
66
1
8
16_copper
10
0.0
20
0.0
30
0.0
70
1
0
VERTEX
8
0
10
10.891240625
20
12.6356
30
0
0
VERTEX
8
0
10
10.3556
20
13.171240625000001
30
0
0
VERTEX
8
0
10
10.3556
20
13.928756250000001
30
0
0
VERTEX
8
0
10
10.891240625
20
14.464396875
30
0
0
VERTEX
8
0
10
11.64875625
20
14.464396875
30
0
0
VERTEX
8
0
10
12.184396875000001
20
13.928756250000001
30
0
0
VERTEX
8
0
10
12.184396875000001
20
13.171240625000001
30
0
0
VERTEX
8
0
10
11.64875625
20
12.6356
30
0
0
SEQEND
0
POLYLINE
66
1
8
16_copper
10
0.0
20
0.0
30
0.0
70
1
0
VERTEX
8
0
10
0.056115625
20
2.8156000000000003
30
0
0
VERTEX
8
0
10
-0.279965625
20
2.954809375
30
0
0
VERTEX
8
0
10
-0.5371875
20
3.2120312500000003
30
0
0
VERTEX
8
0
10
-0.676396875
20
3.5481125000000002
30
0
0
VERTEX
8
0
10
-0.676396875
20
3.911884375
30
0
0
VERTEX
8
0
10
-0.5371875
20
4.247965625
30
0
0
VERTEX
8
0
10
-0.279965625
20
4.5051875
30
0
0
VERTEX
8
0
10
0.056115625
20
4.644396875
30
0
0
VERTEX
8
0
10
1.943884375
20
4.644396875
30
0
0
VERTEX
8
0
10
2.279965625
20
4.5051875
30
0
0
VERTEX
8
0
10
2.50868125
20
4.276471875
30
0
42
0.198912367379658
0
VERTEX
8
0
10
2.72420625
20
4.187196875000001
30
0
0
VERTEX
8
0
10
4.68436875
20
4.187196875000001
30
0
42
0.198912367379658
0
VERTEX
8
0
10
4.89989375
20
4.276471875
30
0
0
VERTEX
8
0
10
5.8035250000000005
20
5.180106250000001
30
0
42
0.198912367379658
0
VERTEX
8
0
10
5.8928
20
5.39563125
30
0
0
VERTEX
8
0
10
5.8928
20
8.720940625
30
0
0
VERTEX
8
0
10
5.96240625
20
8.8889875
30
0
0
VERTEX
8
0
10
7.726325
20
10.652906250000001
30
0
42
0.198912367379658
0
VERTEX
8
0
10
7.815600000000001
20
10.86843125
30
0
0
VERTEX
8
0
10
7.815600000000001
20
11.253171875000001
30
0
42
0.6681786379192989
0
VERTEX
8
0
10
7.295275
20
11.468696875000001
30
0
0
VERTEX
8
0
10
7.040465625
20
11.2138875
30
0
0
VERTEX
8
0
10
7.040446875000001
20
11.213865625
30
0
0
VERTEX
8
0
10
6.8689875
20
11.04240625
30
0
0
VERTEX
8
0
10
6.700940625
20
10.972800000000001
30
0
0
VERTEX
8
0
10
4.125628125
20
10.972800000000001
30
0
42
0.198912367379658
0
VERTEX
8
0
10
3.910103125
20
10.883525
30
0
0
VERTEX
8
0
10
1.5464718750000002
20
8.519890625
30
0
42
0.198912367379658
0
VERTEX
8
0
10
1.4571968750000002
20
8.304365625
30
0
0
VERTEX
8
0
10
1.4571968750000002
20
7.489196875
30
0
42
0.41421356237309503
0
VERTEX
8
0
10
1.7619968750000001
20
7.184396875
30
0
0
VERTEX
8
0
10
1.943884375
20
7.184396875
30
0
0
VERTEX
8
0
10
2.279965625
20
7.0451875
30
0
0
VERTEX
8
0
10
2.5371875
20
6.787965625
30
0
0
VERTEX
8
0
10
2.676396875
20
6.451884375000001
30
0
0
VERTEX
8
0
10
2.676396875
20
6.0881125
30
0
0
VERTEX
8
0
10
2.5371875
20
5.75203125
30
0
0
VERTEX
8
0
10
2.279965625
20
5.494809375
30
0
0
VERTEX
8
0
10
1.943884375
20
5.3556
30
0
0
VERTEX
8
0
10
0.056115625
20
5.3556
30
0
0
VERTEX
8
0
10
-0.279965625
20
5.494809375
30
0
0
VERTEX
8
0
10
-0.5371875
20
5.75203125
30
0
0
VERTEX
8
0
10
-0.676396875
20
6.0881125
30
0
0
VERTEX
8
0
10
-0.676396875
20
6.451884375000001
30
0
0
VERTEX
8
0
10
-0.5371875
20
6.787965625
30
0
0
VERTEX
8
0
10
-0.279965625
20
7.0451875
30
0
0
VERTEX
8
0
10
0.056115625
20
7.184396875
30
0
0
VERTEX
8
0
10
0.23800000000000002
20
7.184396875
30
0
42
0.41421356237309503
0
VERTEX
8
0
10
0.5428000000000001
20
7.489196875
30
0
0
VERTEX
8
0
10
0.5428000000000001
20
8.710940625000001
30
0
0
VERTEX
8
0
10
0.61240625
20
8.878987500000001
30
0
0
VERTEX
8
0
10
0.7838843750000001
20
9.050465625000001
30
0
0
VERTEX
8
0
10
3.3795312500000003
20
11.646109375
30
0
0
VERTEX
8
0
10
3.37955
20
11.64613125
30
0
0
VERTEX
8
0
10
3.551009375
20
11.817590625000001
30
0
0
VERTEX
8
0
10
3.7190562500000004
20
11.887196875
30
0
0
VERTEX
8
0
10
6.29436875
20
11.887196875
30
0
42
0.198912367379658
0
VERTEX
8
0
10
6.509893750000001
20
11.976471875000001
30
0
0
VERTEX
8
0
10
7.726325
20
13.192903125
30
0
42
0.198912367379658
0
VERTEX
8
0
10
7.815600000000001
20
13.408428125
30
0
0
VERTEX
8
0
10
7.815600000000001
20
13.928756250000001
30
0
0
VERTEX
8
0
10
8.351240625
20
14.464396875
30
0
0
VERTEX
8
0
10
9.10875625
20
14.464396875
30
0
0
VERTEX
8
0
10
9.644396875
20
13.928756250000001
30
0
0
VERTEX
8
0
10
9.644396875
20
13.171240625000001
30
0
0
VERTEX
8
0
10
9.10875625
20
12.6356
30
0
0
VERTEX
8
0
10
8.588428125
20
12.6356
30
0
42
0.198912367379658
0
VERTEX
8
0
10
8.372903125
20
12.546325000000001
30
0
0
VERTEX
8
0
10
8.2713
20
12.444721875
30
0
42
0.6681786379192989
0
VERTEX
8
0
10
8.486825
20
11.924396875000001
30
0
0
VERTEX
8
0
10
9.10875625
20
11.924396875000001
30
0
0
VERTEX
8
0
10
9.644396875
20
11.38875625
30
0
0
VERTEX
8
0
10
9.644396875
20
10.631240625
30
0
0
VERTEX
8
0
10
9.10875625
20
10.095600000000001
30
0
0
VERTEX
8
0
10
8.588431250000001
20
10.095600000000001
30
0
42
0.1989085990908129
0
VERTEX
8
0
10
8.372909375
20
10.006328125000001
30
0
0
VERTEX
8
0
10
8.271303125000001
20
9.904725000000001
30
0
42
0.6681838811705005
0
VERTEX
8
0
10
8.486825
20
9.384396875
30
0
0
VERTEX
8
0
10
9.10875625
20
9.384396875
30
0
0
VERTEX
8
0
10
9.644396875
20
8.848756250000001
30
0
0
VERTEX
8
0
10
9.644396875
20
8.091240625000001
30
0
0
VERTEX
8
0
10
9.10875625
20
7.5556
30
0
0
VERTEX
8
0
10
8.351240625
20
7.5556
30
0
0
VERTEX
8
0
10
7.815600000000001
20
8.091240625000001
30
0
0
VERTEX
8
0
10
7.815600000000001
20
8.713171875
30
0
42
0.6681812595227191
0
VERTEX
8
0
10
7.295271875
20
8.928696875
30
0
0
VERTEX
8
0
10
6.89646875
20
8.529890625
30
0
42
0.19891048324821556
0
VERTEX
8
0
10
6.807196875000001
20
8.314365625
30
0
0
VERTEX
8
0
10
6.807196875000001
20
4.98905625
30
0
0
VERTEX
8
0
10
6.737590625
20
4.821009375
30
0
0
VERTEX
8
0
10
5.430465625
20
3.5138875
30
0
0
VERTEX
8
0
10
5.430446875
20
3.513865625
30
0
0
VERTEX
8
0
10
5.2589875
20
3.3424062500000002
30
0
0
VERTEX
8
0
10
5.090940625
20
3.2728
30
0
0
VERTEX
8
0
10
2.72420625
20
3.2728
30
0
42
0.198912367379658
0
VERTEX
8
0
10
2.50868125
20
3.183525
30
0
0
VERTEX
8
0
10
2.279965625
20
2.954809375
30
0
0
VERTEX
8
0
10
1.943884375
20
2.8156000000000003
30
0
0
SEQEND
0
POLYLINE
66
1
8
16_copper
10
0.0
20
0.0
30
0.0
70
1
0
VERTEX
8
0
10
10.891240625
20
10.095600000000001
30
0
0
VERTEX
8
0
10
10.3556
20
10.631240625
30
0
0
VERTEX
8
0
10
10.3556
20
11.38875625
30
0
0
VERTEX
8
0
10
10.891240625
20
11.924396875000001
30
0
0
VERTEX
8
0
10
11.64875625
20
11.924396875000001
30
0
0
VERTEX
8
0
10
12.184396875000001
20
11.38875625
30
0
0
VERTEX
8
0
10
12.184396875000001
20
10.631240625
30
0
0
VERTEX
8
0
10
11.64875625
20
10.095600000000001
30
0
0
SEQEND
0
POLYLINE
66
1
8
16_copper
10
0.0
20
0.0
30
0.0
70
1
0
VERTEX
8
0
10
10.891240625
20
7.5556
30
0
0
VERTEX
8
0
10
10.3556
20
8.091240625000001
30
0
0
VERTEX
8
0
10
10.3556
20
8.848756250000001
30
0
0
VERTEX
8
0
10
10.891240625
20
9.384396875
30
0
0
VERTEX
8
0
10
11.64875625
20
9.384396875
30
0
0
VERTEX
8
0
10
12.184396875000001
20
8.848756250000001
30
0
0
VERTEX
8
0
10
12.184396875000001
20
8.091240625000001
30
0
0
VERTEX
8
0
10
11.64875625
20
7.5556
30
0
0
SEQEND
0
POLYLINE
66
1
8
1_copper
10
0.0
20
0.0
30
0.0
70
1
0
VERTEX
8
0
10
1.87394375
20
47.785337500000004
30
0
42
0.9063472543261978
0
VERTEX
8
0
10
1.7994343750000001
20
49.302
30
0
0
VERTEX
8
0
10
0.200565625
20
49.302
30
0
42
0.9520795017710562
0
VERTEX
8
0
10
0.200565625
20
47.778000000000006
30
0
0
VERTEX
8
0
10
1.7994343750000001
20
47.778000000000006
30
0
0
SEQEND
0
POLYLINE
66
1
8
1_copper
10
0.0
20
0.0
30
0.0
70
1
0
VERTEX
8
0
10
9.492
20
33.554371875
30
0
0
VERTEX
8
0
10
9.492
20
34.185628125
30
0
0
VERTEX
8
0
10
9.045628125
20
34.632000000000005
30
0
0
VERTEX
8
0
10
8.414371875
20
34.632000000000005
30
0
0
VERTEX
8
0
10
7.968
20
34.185628125
30
0
0
VERTEX
8
0
10
7.968
20
33.554371875
30
0
0
VERTEX
8
0
10
8.414371875
20
33.108000000000004
30
0
0
VERTEX
8
0
10
9.045628125
20
33.108000000000004
30
0
0
SEQEND
0
POLYLINE
66
1
8
16_copper
10
0.0
20
0.0
30
0.0
70
1
0
VERTEX
8
0
10
5.35196875
20
30.176059375
30
0
42
0.18870314520702475
0
VERTEX
8
0
10
5.555525
20
30.264475
30
0
0
VERTEX
8
0
10
8.406712500000001
20
33.1156625
30
0
0
VERTEX
8
0
10
8.414371875
20
33.108000000000004
30
0
0
VERTEX
8
0
10
9.045628125
20
33.108000000000004
30
0
0
VERTEX
8
0
10
9.492
20
33.554371875
30
0
0
VERTEX
8
0
10
9.492
20
34.185628125
30
0
0
VERTEX
8
0
10
9.045628125
20
34.632000000000005
30
0
0
VERTEX
8
0
10
8.414371875
20
34.632000000000005
30
0
0
VERTEX
8
0
10
7.968
20
34.185628125
30
0
0
VERTEX
8
0
10
7.968
20
33.554371875
30
0
0
VERTEX
8
0
10
7.9756625
20
33.5467125
30
0
0
VERTEX
8
0
10
5.21375
20
30.7848
30
0
0
VERTEX
8
0
10
0.12625
20
30.7848
30
0
0
VERTEX
8
0
10
-2.2352000000000003
20
33.14625
30
0
0
VERTEX
8
0
10
-2.2352000000000003
20
37.97375
30
0
0
VERTEX
8
0
10
0.12625
20
40.3352
30
0
0
VERTEX
8
0
10
2.54
20
40.3352
30
0
42
0.198912367379658
0
VERTEX
8
0
10
2.755525
20
40.424475
30
0
0
VERTEX
8
0
10
4.025525
20
41.694475000000004
30
0
42
0.198912367379658
0
VERTEX
8
0
10
4.1148
20
41.910000000000004
30
0
0
VERTEX
8
0
10
4.1148
20
46.99
30
0
42
0.198912367379658
0
VERTEX
8
0
10
4.025525
20
47.205525
30
0
0
VERTEX
8
0
10
2.50048125
20
48.73056875
30
0
0
VERTEX
8
0
10
2.480321875
20
48.79701875
30
0
42
0.30334709750080463
0
VERTEX
8
0
10
1.7994343750000001
20
49.302
30
0
0
VERTEX
8
0
10
0.200565625
20
49.302
30
0
42
0.9520795017710562
0
VERTEX
8
0
10
0.200565625
20
47.778000000000006
30
0
0
VERTEX
8
0
10
1.7994343750000001
20
47.778000000000006
30
0
42
0.2023034779820525
0
VERTEX
8
0
10
2.3336
20
48.03535
30
0
0
VERTEX
8
0
10
3.5052000000000003
20
46.86375
30
0
0
VERTEX
8
0
10
3.5052000000000003
20
42.03625
30
0
0
VERTEX
8
0
10
2.4137500000000003
20
40.9448
30
0
0
VERTEX
8
0
10
0
20
40.9448
30
0
42
0.198912367379658
0
VERTEX
8
0
10
-0.21552500000000002
20
40.855525
30
0
0
VERTEX
8
0
10
-2.755525
20
38.315525
30
0
42
0.198912367379658
0
VERTEX
8
0
10
-2.8448
20
38.1
30
0
0
VERTEX
8
0
10
-2.8448
20
33.02
30
0
42
0.198912367379658
0
VERTEX
8
0
10
-2.755525
20
32.804475000000004
30
0
0
VERTEX
8
0
10
-0.21552500000000002
20
30.264475
30
0
42
0.198912367379658
0
VERTEX
8
0
10
0
20
30.1752
30
0
0
VERTEX
8
0
10
5.34
20
30.1752
30
0
0
SEQEND
0
POLYLINE
66
1
8
1_copper
10
0.0
20
0.0
30
0.0
70
1
0
VERTEX
8
0
10
9.492
20
41.174371875
30
0
0
VERTEX
8
0
10
9.492
20
41.805628125000005
30
0
0
VERTEX
8
0
10
9.045628125
20
42.252
30
0
0
VERTEX
8
0
10
8.414371875
20
42.252
30
0
0
VERTEX
8
0
10
7.968
20
41.805628125000005
30
0
0
VERTEX
8
0
10
7.968
20
41.174371875
30
0
0
VERTEX
8
0
10
8.414371875
20
40.728
30
0
0
VERTEX
8
0
10
9.045628125
20
40.728
30
0
0
SEQEND
0
POLYLINE
66
1
8
1_copper
10
0.0
20
0.0
30
0.0
70
1
0
VERTEX
8
0
10
1.87394375
20
35.5153375
30
0
42
0.9063472543261978
0
VERTEX
8
0
10
1.7994343750000001
20
37.032000000000004
30
0
0
VERTEX
8
0
10
0.200565625
20
37.032000000000004
30
0
42
0.9520795017710562
0
VERTEX
8
0
10
0.200565625
20
35.508
30
0
0
VERTEX
8
0
10
1.7994343750000001
20
35.508
30
0
0
SEQEND
0
POLYLINE
66
1
8
16_copper
10
0.0
20
0.0
30
0.0
70
1
0
VERTEX
8
0
10
1.87394375
20
35.5153375
30
0
42
0.4119941416332546
0
VERTEX
8
0
10
2.51723125
20
36.37618125
30
0
0
VERTEX
8
0
10
7.32625
20
41.1852
30
0
0
VERTEX
8
0
10
7.968
20
41.1852
30
0
0
VERTEX
8
0
10
7.968
20
41.174371875
30
0
0
VERTEX
8
0
10
8.414371875
20
40.728
30
0
0
VERTEX
8
0
10
9.045628125
20
40.728
30
0
0
VERTEX
8
0
10
9.492
20
41.174371875
30
0
0
VERTEX
8
0
10
9.492
20
41.805628125000005
30
0
0
VERTEX
8
0
10
9.045628125
20
42.252
30
0
0
VERTEX
8
0
10
8.414371875
20
42.252
30
0
0
VERTEX
8
0
10
7.968
20
41.805628125000005
30
0
0
VERTEX
8
0
10
7.968
20
41.7948
30
0
0
VERTEX
8
0
10
7.2
20
41.7948
30
0
42
0.198912367379658
0
VERTEX
8
0
10
6.984475000000001
20
41.705525
30
0
0
VERTEX
8
0
10
2.1836562500000003
20
36.904706250000004
30
0
42
0.13513829289728907
0
VERTEX
8
0
10
1.7994343750000001
20
37.032000000000004
30
0
0
VERTEX
8
0
10
0.200565625
20
37.032000000000004
30
0
42
0.9520795017710562
0
VERTEX
8
0
10
0.200565625
20
35.508
30
0
0
VERTEX
8
0
10
1.7994343750000001
20
35.508
30
0
0
SEQEND
0
POLYLINE
66
1
8
1_copper
10
0.0
20
0.0
30
0.0
70
1
0
VERTEX
8
0
10
9.492
20
38.634371875
30
0
0
VERTEX
8
0
10
9.492
20
39.265628125
30
0
0
VERTEX
8
0
10
9.045628125
20
39.712
30
0
0
VERTEX
8
0
10
8.414371875
20
39.712
30
0
0
VERTEX
8
0
10
7.968
20
39.265628125
30
0
0
VERTEX
8
0
10
7.968
20
38.634371875
30
0
0
VERTEX
8
0
10
8.414371875
20
38.188
30
0
0
VERTEX
8
0
10
9.045628125
20
38.188
30
0
0
SEQEND
0
POLYLINE
66
1
8
1_copper
10
0.0
20
0.0
30
0.0
70
1
0
VERTEX
8
0
10
1.87394375
20
32.9753375
30
0
42
0.9063472543261978
0
VERTEX
8
0
10
1.7994343750000001
20
34.492000000000004
30
0
0
VERTEX
8
0
10
0.200565625
20
34.492000000000004
30
0
42
0.9520795017710562
0
VERTEX
8
0
10
0.200565625
20
32.968
30
0
0
VERTEX
8
0
10
1.7994343750000001
20
32.968
30
0
0
SEQEND
0
POLYLINE
66
1
8
16_copper
10
0.0
20
0.0
30
0.0
70
1
0
VERTEX
8
0
10
1.87394375
20
32.9753375
30
0
42
0.2585650878322207
0
VERTEX
8
0
10
2.4605312500000003
20
33.425200000000004
30
0
0
VERTEX
8
0
10
4.5200000000000005
20
33.425200000000004
30
0
42
0.198912367379658
0
VERTEX
8
0
10
4.735525
20
33.514475000000004
30
0
0
VERTEX
8
0
10
6.695525
20
35.474475
30
0
42
0.198912367379658
0
VERTEX
8
0
10
6.784800000000001
20
35.690000000000005
30
0
0
VERTEX
8
0
10
6.784800000000001
20
36.573750000000004
30
0
0
VERTEX
8
0
10
8.406712500000001
20
38.195662500000005
30
0
0
VERTEX
8
0
10
8.414371875
20
38.188
30
0
0
VERTEX
8
0
10
9.045628125
20
38.188
30
0
0
VERTEX
8
0
10
9.492
20
38.634371875
30
0
0
VERTEX
8
0
10
9.492
20
39.265628125
30
0
0
VERTEX
8
0
10
9.045628125
20
39.712
30
0
0
VERTEX
8
0
10
8.414371875
20
39.712
30
0
0
VERTEX
8
0
10
7.968
20
39.265628125
30
0
0
VERTEX
8
0
10
7.968
20
38.634371875
30
0
0
VERTEX
8
0
10
7.9756625
20
38.626712500000004
30
0
0
VERTEX
8
0
10
6.264475
20
36.915525
30
0
42
0.198912367379658
0
VERTEX
8
0
10
6.1752
20
36.7
30
0
0
VERTEX
8
0
10
6.1752
20
35.816250000000004
30
0
0
VERTEX
8
0
10
4.39375
20
34.034800000000004
30
0
0
VERTEX
8
0
10
2.4605312500000003
20
34.034800000000004
30
0
42
0.2849223807724057
0
VERTEX
8
0
10
1.7994343750000001
20
34.492000000000004
30
0
0
VERTEX
8
0
10
0.200565625
20
34.492000000000004
30
0
42
0.9520795017710562
0
VERTEX
8
0
10
0.200565625
20
32.968
30
0
0
VERTEX
8
0
10
1.7994343750000001
20
32.968
30
0
0
SEQEND
0
CIRCLE
8
drills_NPTH
10
10
20
4
30
0
40
1.4000000000000001
0
CIRCLE
8
drills_NPTH
10
10
20
62
30
0
40
1.4000000000000001
0
CIRCLE
8
drills_PTH
10
8.73
20
56.730000000000004
30
0
40
0.508
0
CIRCLE
8
drills_PTH
10
11.270000000000001
20
56.730000000000004
30
0
40
0.508
0
CIRCLE
8
drills_PTH
10
8.73
20
54.190000000000005
30
0
40
0.508
0
CIRCLE
8
drills_PTH
10
11.270000000000001
20
54.190000000000005
30
0
40
0.508
0
CIRCLE
8
drills_PTH
10
8.73
20
51.650000000000006
30
0
40
0.508
0
CIRCLE
8
drills_PTH
10
11.270000000000001
20
51.650000000000006
30
0
40
0.508
0
CIRCLE
8
drills_PTH
10
8.73
20
49.11
30
0
40
0.508
0
CIRCLE
8
drills_PTH
10
11.270000000000001
20
49.11
30
0
40
0.508
0
CIRCLE
8
drills_PTH
10
8.73
20
46.57
30
0
40
0.508
0
CIRCLE
8
drills_PTH
10
11.270000000000001
20
46.57
30
0
40
0.508
0
CIRCLE
8
drills_PTH
10
8.73
20
44.03
30
0
40
0.508
0
CIRCLE
8
drills_PTH
10
11.270000000000001
20
44.03
30
0
40
0.508
0
CIRCLE
8
drills_PTH
10
8.73
20
41.49
30
0
40
0.508
0
CIRCLE
8
drills_PTH
10
11.270000000000001
20
41.49
30
0
40
0.508
0
CIRCLE
8
drills_PTH
10
8.73
20
38.95
30
0
40
0.508
0
CIRCLE
8
drills_PTH
10
11.270000000000001
20
38.95
30
0
40
0.508
0
CIRCLE
8
drills_PTH
10
8.73
20
36.410000000000004
30
0
40
0.508
0
CIRCLE
8
drills_PTH
10
11.270000000000001
20
36.410000000000004
30
0
40
0.508
0
CIRCLE
8
drills_PTH
10
8.73
20
33.870000000000005
30
0
40
0.508
0
CIRCLE
8
drills_PTH
10
11.270000000000001
20
33.870000000000005
30
0
40
0.508
0
CIRCLE
8
drills_PTH
10
8.73
20
31.330000000000002
30
0
40
0.508
0
CIRCLE
8
drills_PTH
10
11.270000000000001
20
31.330000000000002
30
0
40
0.508
0
CIRCLE
8
drills_PTH
10
8.73
20
28.790000000000003
30
0
40
0.508
0
CIRCLE
8
drills_PTH
10
11.270000000000001
20
28.790000000000003
30
0
40
0.508
0
CIRCLE
8
drills_PTH
10
8.73
20
26.25
30
0
40
0.508
0
CIRCLE
8
drills_PTH
10
11.270000000000001
20
26.25
30
0
40
0.508
0
CIRCLE
8
drills_PTH
10
8.73
20
23.71
30
0
40
0.508
0
CIRCLE
8
drills_PTH
10
11.270000000000001
20
23.71
30
0
40
0.508
0
CIRCLE
8
drills_PTH
10
8.73
20
21.17
30
0
40
0.508
0
CIRCLE
8
drills_PTH
10
11.270000000000001
20
21.17
30
0
40
0.508
0
CIRCLE
8
drills_PTH
10
8.73
20
18.630000000000003
30
0
40
0.508
0
CIRCLE
8
drills_PTH
10
11.270000000000001
20
18.630000000000003
30
0
40
0.508
0
CIRCLE
8
drills_PTH
10
8.73
20
16.09
30
0
40
0.508
0
CIRCLE
8
drills_PTH
10
11.270000000000001
20
16.09
30
0
40
0.508
0
CIRCLE
8
drills_PTH
10
8.73
20
13.55
30
0
40
0.508
0
CIRCLE
8
drills_PTH
10
11.270000000000001
20
13.55
30
0
40
0.508
0
CIRCLE
8
drills_PTH
10
8.73
20
11.01
30
0
40
0.508
0
CIRCLE
8
drills_PTH
10
11.270000000000001
20
11.01
30
0
40
0.508
0
CIRCLE
8
drills_PTH
10
8.73
20
8.47
30
0
40
0.508
0
CIRCLE
8
drills_PTH
10
11.270000000000001
20
8.47
30
0
40
0.508
0
CIRCLE
8
drills_PTH
10
1
20
65.46000000000001
30
0
40
0.508
0
CIRCLE
8
drills_PTH
10
1
20
68
30
0
40
0.508
0
CIRCLE
8
drills_PTH
10
1
20
70.54
30
0
40
0.508
0
CIRCLE
8
drills_PTH
10
1
20
54.46
30
0
40
0.508
0
CIRCLE
8
drills_PTH
10
1
20
57
30
0
40
0.508
0
CIRCLE
8
drills_PTH
10
1
20
59.540000000000006
30
0
40
0.508
0
CIRCLE
8
drills_PTH
10
1
20
33.730000000000004
30
0
40
0.508
0
CIRCLE
8
drills_PTH
10
1
20
36.27
30
0
40
0.508
0
CIRCLE
8
drills_PTH
10
1
20
23.73
30
0
40
0.508
0
CIRCLE
8
drills_PTH
10
1
20
26.27
30
0
40
0.508
0
CIRCLE
8
drills_PTH
10
1
20
13.73
30
0
40
0.508
0
CIRCLE
8
drills_PTH
10
1
20
16.27
30
0
40
0.508
0
CIRCLE
8
drills_PTH
10
1
20
3.73
30
0
40
0.508
0
CIRCLE
8
drills_PTH
10
1
20
6.2700000000000005
30
0
40
0.508
0
CIRCLE
8
drills_PTH
10
1
20
43.46
30
0
40
0.508
0
CIRCLE
8
drills_PTH
10
1
20
46
30
0
40
0.508
0
CIRCLE
8
drills_PTH
10
1
20
48.54
30
0
40
0.508
0
ENDSEC
0
EOF